<svg width="15" height="15" viewBox="0 0 15 15" fill="none" xmlns="http://www.w3.org/2000/svg">
<path d="M5 14.5C5.55228 14.5 6 14.0523 6 13.5C6 12.9477 5.55228 12.5 5 12.5C4.44772 12.5 4 12.9477 4 13.5C4 14.0523 4.44772 14.5 5 14.5Z" fill="#62708C"/>
<path d="M12 14.5C12.5523 14.5 13 14.0523 13 13.5C13 12.9477 12.5523 12.5 12 12.5C11.4477 12.5 11 12.9477 11 13.5C11 14.0523 11.4477 14.5 12 14.5Z" fill="#62708C"/>
<path d="M2.4903 0.90195C2.46763 0.788604 2.40639 0.686612 2.317 0.613329C2.22761 0.540046 2.11559 0.499998 2 0.5H0V1.5H1.59L3.5097 11.0981C3.53237 11.2114 3.59361 11.3134 3.683 11.3867C3.77239 11.46 3.88441 11.5 4 11.5H13V10.5H4.41L4.01 8.5H13C13.1138 8.5 13.2241 8.46121 13.3129 8.39004C13.4016 8.31886 13.4634 8.21955 13.4881 8.1085L14.6222 3H13.5985L12.5991 7.5H3.81L2.4903 0.90195Z" fill="#62708C"/>
<path d="M9 2.5V0.5H8V2.5H6V3.5H8V5.5H9V3.5H11V2.5H9Z" fill="#62708C"/>
</svg>
