<svg width="114" height="40" viewBox="0 0 114 40" fill="none" xmlns="http://www.w3.org/2000/svg">
<g clip-path="url(#clip0_4305_11357)">
<path d="M0 27.3376L1.9277 20.6437L3.17945 16.1063L3.54245 14.8598C3.72496 14.149 4.14972 13.5233 4.74413 13.0897C5.31226 12.6756 6.00619 12.4687 6.70938 12.5039H16.5857L15.6218 15.857H8.63708C8.39086 15.8378 8.14605 15.9087 7.94861 16.0565C7.72256 16.2394 7.56763 16.4951 7.5105 16.7795L6.9347 18.7365H12.9681L12.0669 21.8529H6.03344L4.46875 27.3376H0Z" fill="white"/>
<path d="M43.3232 27.3376L45.2509 20.6437L46.5653 16.1063L46.9283 14.8598C47.099 14.1698 47.4953 13.5558 48.0549 13.1147C48.6351 12.6843 49.3476 12.4684 50.0702 12.5039H59.7838L58.8324 15.857H51.9603C51.7141 15.8378 51.4693 15.9087 51.2719 16.0565C51.0505 16.2413 50.9001 16.4968 50.8463 16.7795L50.2579 18.7365H56.3289L55.4277 21.8528H49.3567L47.792 27.3376H43.3232Z" fill="white"/>
<path d="M16.6865 15.857L17.3499 13.551H21.2804L20.6295 15.857H16.6865ZM16.386 16.9041H20.2539L17.2623 27.3501H13.3818L16.386 16.9041Z" fill="white"/>
<path d="M17.6498 12.5038L16.9863 14.8098H20.8542L21.5177 12.5038H17.6498Z" fill="white"/>
<path d="M20.9044 18.7365C21.0207 18.239 21.3086 17.7978 21.7181 17.49C22.4641 17.0234 23.3449 16.8172 24.2216 16.9041H27.8642C28.443 16.8308 29.0308 16.8747 29.5923 17.0332C30.1537 17.1917 30.6771 17.4616 31.1312 17.8266C31.4714 18.258 31.6892 18.7723 31.7619 19.3161C31.8345 19.8598 31.7594 20.413 31.5443 20.918L29.6917 27.3501H25.8113L27.2884 22.0398C27.5406 21.4732 27.5719 20.8332 27.376 20.2448C27.1632 19.821 26.7376 19.6216 25.949 19.6216H25.2605C25.0536 19.6096 24.848 19.6619 24.6722 19.7711C24.4844 19.9181 24.3628 20.1333 24.3342 20.3695L22.3189 27.3501H18.4385L20.9044 18.7365Z" fill="white"/>
<path d="M34.8485 27.35C33.2839 27.35 31.957 27.35 31.5189 25.9788C31.2811 25.2309 31.5189 24.134 32.0571 22.2393C32.5954 20.3445 32.9584 18.7739 34.1851 17.8016C35.4118 16.8293 37.4522 16.7794 39.43 16.7794C41.4077 16.7794 42.9223 16.7794 43.5607 17.49C44.1991 18.2005 44.0114 19.8584 43.6734 20.9927C43.552 21.7473 43.1553 22.4309 42.5593 22.9124C42.2305 23.1301 41.8394 23.2352 41.4453 23.2115H35.6622C35.5772 23.4877 35.5772 23.783 35.6622 24.0592C35.8499 24.5827 36.5634 24.5453 37.2644 24.5453H42.3465L41.5454 27.35H34.8485ZM39.2297 20.7559C39.4108 20.7802 39.5947 20.738 39.7467 20.637C39.8988 20.536 40.0087 20.3833 40.0558 20.2074C40.1309 19.9332 40.0558 19.6215 39.5426 19.4969C39.2107 19.4512 38.8762 19.4262 38.5412 19.4221C38.0672 19.3973 37.5925 19.4564 37.1393 19.5966C36.9284 19.714 36.7497 19.881 36.6188 20.0831C36.4878 20.2852 36.4087 20.5162 36.3882 20.7559H39.2297Z" fill="white"/>
<path d="M60.5471 13.5508H64.4276L60.4595 27.3374H56.5791L60.5471 13.5508Z" fill="white"/>
<path d="M60.8479 12.5038L56.8799 26.3028H60.7603L64.7284 12.5038H60.8479Z" fill="white"/>
<path d="M74.8673 17.839C75.8312 19.0108 75.318 21.08 75.0176 22.1271C74.633 23.7966 73.715 25.2969 72.4014 26.4027C70.8799 27.256 69.1328 27.6258 67.3944 27.4622C65.7296 27.4622 63.8895 27.3999 63.0258 26.4027C62.1621 25.4055 62.5751 23.1617 62.8756 22.1271C63.2516 20.4506 64.1708 18.9438 65.4917 17.839C67.0132 16.9856 68.7603 16.6159 70.4987 16.7795C72.1636 16.7795 74.0036 16.7795 74.8673 17.839ZM66.7184 23.9595C66.7184 24.0717 67.0439 24.67 68.2331 24.67C68.9246 24.6881 69.5953 24.4326 70.0982 23.9595C70.5602 23.4383 70.8793 22.8071 71.0245 22.1271C71.2754 21.5321 71.3324 20.8737 71.1872 20.2448C71.062 19.9955 70.724 19.5842 69.6601 19.5842C68.9594 19.5461 68.2717 19.7833 67.7449 20.2448C67.2854 20.7852 66.971 21.4328 66.8311 22.1271C66.5785 22.7044 66.5257 23.349 66.6809 23.9595" fill="white"/>
<path d="M87.6853 17.839C88.6617 19.0107 88.1484 21.08 87.848 22.1271C87.4635 23.7966 86.5455 25.2969 85.2319 26.4027C83.709 27.2523 81.9631 27.6218 80.2249 27.4622C78.5725 27.4622 76.72 27.3999 75.8688 26.4027C75.0176 25.4054 75.4056 23.1617 75.706 22.1271C76.0872 20.4527 77.0056 18.9474 78.3222 17.839C79.8451 16.9894 81.591 16.6199 83.3292 16.7795C84.9815 16.7795 86.8341 16.7795 87.6853 17.839ZM79.5364 23.9595C79.5364 24.0717 79.8744 24.67 81.0635 24.67C81.4121 24.6825 81.7597 24.6262 82.0862 24.5042C82.4128 24.3823 82.7119 24.1971 82.9662 23.9595C83.4099 23.4295 83.719 22.801 83.8675 22.1271C84.1248 21.5334 84.1776 20.8715 84.0177 20.2448C83.905 19.9955 83.567 19.5841 82.4905 19.5841C81.7903 19.5487 81.1036 19.7856 80.5754 20.2448C80.1208 20.7884 79.807 21.4347 79.6616 22.1271C79.4162 22.7062 79.3636 23.3484 79.5114 23.9595" fill="white"/>
<path d="M89.0372 21.2919C89.3347 19.9234 90.1278 18.712 91.2653 17.8889C92.5223 17.1587 93.9685 16.816 95.4211 16.9041H97.9997L97.2111 19.6215H95.8717C95.4765 19.5902 95.0791 19.6404 94.7043 19.7691C94.3295 19.8978 93.9854 20.1022 93.6937 20.3695C93.1736 20.9328 92.8073 21.6194 92.6297 22.3639L91.2027 27.35H87.3223L89.0372 21.2919Z" fill="white"/>
</g>
<defs>
<clipPath id="clip0_4305_11357">
<rect width="98" height="15" fill="white" transform="translate(0 12.5)"/>
</clipPath>
</defs>
</svg>
