<svg width="14" height="14" viewBox="0 0 14 14" fill="none" xmlns="http://www.w3.org/2000/svg">
<path d="M4.9737 8.49999C4.48436 8.5001 4.00598 8.35507 3.59907 8.08326C3.19217 7.81145 2.87501 7.42506 2.68773 6.97298C2.50045 6.52089 2.45145 6.02342 2.54693 5.54349C2.64242 5.06355 2.87809 4.62272 3.22415 4.27674L5.7768 1.72459C6.24077 1.26059 6.87006 0.999902 7.52624 0.999879C8.18241 0.999855 8.81172 1.2605 9.27573 1.72447C9.73973 2.18844 10.0004 2.81773 10.0004 3.4739C10.0005 4.13008 9.73982 4.75939 9.27585 5.22339L8.9997 5.49969L8.2918 4.79324L8.57065 4.51429C8.84599 4.23755 9.0004 3.86295 9.00004 3.47256C8.99967 3.08218 8.84456 2.70786 8.5687 2.43164C8.28782 2.16358 7.91447 2.01402 7.5262 2.01402C7.13793 2.01402 6.76458 2.16358 6.4837 2.43164L3.93135 4.98364C3.79443 5.1205 3.68582 5.28299 3.61172 5.46183C3.53762 5.64067 3.49948 5.83236 3.49948 6.02594C3.49948 6.21953 3.53762 6.41122 3.61172 6.59006C3.68582 6.7689 3.79443 6.93139 3.93135 7.06824C4.21223 7.3363 4.58558 7.48586 4.97385 7.48586C5.36212 7.48586 5.73547 7.3363 6.01635 7.06824L6.7235 7.77549C6.49421 8.00593 6.2215 8.18861 5.92115 8.31297C5.6208 8.43733 5.29878 8.5009 4.9737 8.49999Z" fill="#7D8FB3"/>
<path d="M8.9737 7.49999C8.48436 7.50009 8.00598 7.35507 7.59907 7.08326C7.19217 6.81145 6.87501 6.42506 6.68773 5.97298C6.50045 5.52089 6.45145 5.02342 6.54693 4.54349C6.64242 4.06355 6.87809 3.62272 7.22415 3.27674L7.50045 3.00044L8.2076 3.70774L7.9313 3.98389C7.79442 4.12075 7.68583 4.28323 7.61175 4.46206C7.53767 4.64089 7.49954 4.83255 7.49954 5.02612C7.49954 5.21968 7.53767 5.41135 7.61175 5.59018C7.68583 5.769 7.79442 5.93148 7.9313 6.06834C8.21218 6.3364 8.58553 6.48596 8.9738 6.48596C9.36207 6.48596 9.73542 6.3364 10.0163 6.06834C10.1463 5.93834 12.3809 3.70369 12.5689 3.51609C12.8449 3.23948 13 2.86468 13 2.47392C13 2.08316 12.8449 1.70836 12.5689 1.43174C12.2881 1.16368 11.9147 1.01412 11.5265 1.01412C11.1382 1.01412 10.7648 1.16368 10.4839 1.43174L9.7768 0.724492C10.2409 0.261196 10.87 0.00111606 11.5258 0.00140405C12.1816 0.00169204 12.8104 0.262324 13.2742 0.726028C13.7379 1.18973 13.9985 1.81857 13.9989 2.47436C13.9992 3.13015 13.7391 3.75924 13.2759 4.22339C13.0876 4.41139 10.8539 6.64479 10.724 6.77514C10.4946 7.00566 10.2218 7.18841 9.92141 7.31283C9.62098 7.43725 9.29887 7.50086 8.9737 7.49999Z" fill="#7D8FB3"/>
<path d="M11 14H1C0.734869 13.9997 0.480676 13.8943 0.2932 13.7068C0.105724 13.5193 0.00027795 13.2651 0 13V2.99999C0.00027795 2.73486 0.105724 2.48067 0.2932 2.29319C0.480676 2.10572 0.734869 2.00027 1 1.99999H3V2.99999H1V13H11V7.99999H12V13C11.9997 13.2651 11.8943 13.5193 11.7068 13.7068C11.5193 13.8943 11.2651 13.9997 11 14Z" fill="#7D8FB3"/>
</svg>
