<svg width="32" height="32" viewBox="0 0 32 32" fill="none" xmlns="http://www.w3.org/2000/svg">
<path d="M4.9 1.5V14.5H1.5V1.5H4.9ZM9.7 14.5H7.9V1.5H9.7V14.5ZM12.7 14.5V1.5H14.5V6.4V11.2V14.5H12.7ZM17.5 4.9V1.5H30.5V4.9H17.5ZM17.5 7.9H30.5V9.7H17.5V7.9ZM17.5 12.7H30.5V14.5H25.6H20.8H17.5V12.7ZM27.1 17.5H30.5V30.5H27.1V17.5ZM24.1 17.5V30.5H22.3V17.5H24.1ZM19.3 17.5V30.5H17.5V25.6V20.8V17.5H19.3ZM14.5 27.1V30.5H1.5V27.1H14.5ZM14.5 24.1H1.5V22.3H14.5V24.1ZM14.5 19.3H1.5V17.5H6.4H11.2H14.5V19.3Z" stroke="#7D8FB3" stroke-width="3"/>
</svg>
