<svg width="30" height="30" viewBox="0 0 30 30" fill="none" xmlns="http://www.w3.org/2000/svg">
<path fill-rule="evenodd" clip-rule="evenodd" d="M0.333984 0.333332H14.1061L19.0283 2.79441L15.134 5.71515V10.4716L12.1777 12.4424H7.43903L10.1299 23.2061H16.9934L18.3388 20.5152H21.8613V29.9333H0.333984V0.333332ZM3.02489 3.02424V27.2424H19.1703V24.8691L18.6564 25.897H8.02894L3.99258 9.75151H11.363L12.4431 9.03145V4.3697L13.9306 3.25407L13.4709 3.02424H3.02489Z" fill="#7D8FB3"/>
<path fill-rule="evenodd" clip-rule="evenodd" d="M24.0798 0.333332H29.9336V29.9333H23.2063V19.1697H17.3106L15.9652 21.8606H11.3922L9.37402 13.7879H13.3808L16.4791 11.7224V6.41395L24.0798 0.333332ZM25.0238 3.02424L19.17 7.70726V13.1625L14.1955 16.4788H12.8205L13.4932 19.1697H14.3021L15.6475 16.4788H25.8972V27.2424H27.2427V3.02424H25.0238Z" fill="#7D8FB3"/>
</svg>
