<svg width="8" height="54" viewBox="0 0 8 54" fill="none" xmlns="http://www.w3.org/2000/svg">
<path d="M7.86741 54L2.38674 54C1.96685 54 1.58748 53.8937 1.24862 53.681C0.90976 53.4605 0.640884 53.169 0.441989 52.8067C0.235727 52.4365 0.132596 52.0309 0.132596 51.5898L0.132596 48.6007L1.52486 48.6007L1.52486 51.4008C1.52486 51.6528 1.60958 51.8694 1.77901 52.0506C1.94844 52.2239 2.15101 52.3105 2.38674 52.3105L3.63536 52.3105L3.63536 49.0024L5.02763 49.0024L5.02763 52.3105L7.86741 52.3105L7.86741 54Z" fill="#334466"/>
<path d="M7.86741 47.5751L6.47514 47.5751L6.47514 46.0865L1.52486 46.0865L1.52486 47.5751L0.132596 47.5751L0.132596 42.9084L1.52486 42.9084L1.52486 44.397L6.47514 44.397L6.47514 42.9084L7.86741 42.9084L7.86741 47.5751Z" fill="#334466"/>
<path d="M8 35.8902C8 36.3785 7.89687 36.8078 7.69061 37.178C7.47698 37.5482 7.19706 37.8357 6.85083 38.0405C6.49724 38.2452 6.1105 38.3476 5.69061 38.3476L2.12155 38.3476C1.98895 38.3476 1.8674 38.3831 1.75691 38.454C1.64641 38.5249 1.55801 38.6194 1.49171 38.7375C1.42541 38.8557 1.39226 38.9856 1.39226 39.1274C1.39226 39.2692 1.42541 39.3991 1.49171 39.5173C1.55801 39.6276 1.64641 39.7181 1.75691 39.789C1.8674 39.8599 1.98895 39.8954 2.12155 39.8954L7.86741 39.8954L7.86741 41.5848L2.30939 41.5848C1.88214 41.5848 1.4954 41.4825 1.14917 41.2777C0.802946 41.0729 0.526703 40.7854 0.320442 40.4152C0.106814 40.045 -6.28756e-07 39.6157 -6.50102e-07 39.1274C-6.71792e-07 38.6312 0.106814 38.198 0.320441 37.8278C0.526703 37.4576 0.802946 37.1701 1.14917 36.9653C1.4954 36.7605 1.88214 36.6581 2.30939 36.6581L5.87845 36.6581C6.01105 36.6581 6.1326 36.6227 6.2431 36.5518C6.35359 36.4809 6.44199 36.3903 6.50829 36.2801C6.57459 36.1619 6.60774 36.032 6.60774 35.8902C6.60774 35.7484 6.57459 35.6185 6.50829 35.5003C6.44199 35.3822 6.35359 35.2876 6.2431 35.2168C6.1326 35.1459 6.01105 35.1104 5.87845 35.1104L0.132596 35.1104L0.132595 33.4209L5.69061 33.4209C6.1105 33.4209 6.49724 33.5233 6.85083 33.7281C7.19705 33.9329 7.47698 34.2204 7.69061 34.5906C7.89687 34.9608 8 35.394 8 35.8902Z" fill="#334466"/>
<path d="M7.8674 29.7756C7.8674 30.2324 7.76427 30.6498 7.55801 31.0279C7.35175 31.3981 7.07551 31.6935 6.72928 31.914C6.37569 32.1346 5.98527 32.2448 5.55801 32.2448C5.24862 32.2448 4.95764 32.1739 4.68508 32.0322C4.41252 31.8904 4.17311 31.6974 3.96685 31.4532C3.76059 31.6974 3.52118 31.8904 3.24862 32.0322C2.97606 32.1739 2.68877 32.2448 2.38674 32.2448C1.96685 32.2448 1.58748 32.1385 1.24862 31.9258C0.909759 31.7053 0.640883 31.4139 0.441988 31.0515C0.235726 30.6814 0.132595 30.2757 0.132595 29.8346L0.132595 26.432L1.52486 26.432L1.52486 29.6456C1.52486 29.811 1.56538 29.9646 1.64641 30.1064C1.72007 30.2403 1.8232 30.3505 1.9558 30.4372C2.08103 30.5159 2.22468 30.5553 2.38674 30.5553C2.54144 30.5553 2.68508 30.5159 2.81768 30.4372C2.94291 30.3505 3.04604 30.2403 3.12707 30.1064C3.20074 29.9646 3.23757 29.811 3.23757 29.6456L3.23757 26.8337L4.62983 26.8337L4.62984 29.5747C4.62984 29.7559 4.67403 29.9213 4.76243 30.0709C4.84346 30.2206 4.95396 30.3387 5.09392 30.4254C5.23389 30.512 5.38858 30.5553 5.55801 30.5553C5.72744 30.5553 5.88214 30.512 6.0221 30.4254C6.16206 30.3387 6.27256 30.2206 6.35359 30.0709C6.43462 29.9213 6.47514 29.7559 6.47514 29.5747L6.47514 26.432L7.8674 26.432L7.8674 29.7756Z" fill="#334466"/>
<path d="M7.8674 23.1872L0.994473 20.4935C0.662981 20.3596 0.416205 20.1509 0.254142 19.8673C0.0847131 19.5759 -1.51901e-06 19.249 -1.53485e-06 18.8867C-1.55069e-06 18.5244 0.0810296 18.1975 0.243092 17.9061C0.397788 17.6147 0.644566 17.4059 0.983424 17.2799L7.8674 14.5744L7.8674 16.4293L6.30939 16.9846L6.30939 20.8361L7.8674 21.415L7.8674 23.1872ZM4.91713 20.3281L4.91713 17.4808L1.52486 18.674C1.4733 18.6898 1.43646 18.7174 1.41436 18.7568C1.39226 18.7883 1.38121 18.8276 1.38121 18.8749C1.38121 18.9222 1.39595 18.9615 1.42541 18.993C1.44751 19.0245 1.48066 19.0482 1.52486 19.0639L4.91713 20.3281Z" fill="#334466"/>
<path d="M7.8674 13.9261L0.876781 13.9261C0.465778 13.9261 0.132595 13.5706 0.132595 13.132L0.132594 10.4644C0.132594 9.92097 0.250458 9.4287 0.486185 8.98762C0.714547 8.53866 1.03499 8.18422 1.44751 7.9243C1.86004 7.6565 2.33886 7.5226 2.88398 7.5226C3.42173 7.5226 3.90055 7.6565 4.32044 7.9243C4.73296 8.18422 5.05709 8.53866 5.29282 8.98762C5.52118 9.4287 5.63536 9.92097 5.63536 10.4644L5.63536 12.2366L7.8674 12.2366L7.8674 13.9261ZM4.24309 12.2366L4.24309 10.6653C4.24309 10.3975 4.19153 10.1533 4.0884 9.93279C3.9779 9.71225 3.8232 9.53897 3.62431 9.41294C3.41805 9.27904 3.17127 9.2121 2.88398 9.2121C2.59668 9.2121 2.35359 9.27905 2.15469 9.41294C1.94843 9.53897 1.79374 9.71225 1.69061 9.93279C1.58011 10.1533 1.52486 10.3975 1.52486 10.6653L1.52486 12.2366L4.24309 12.2366Z" fill="#334466"/>
<path d="M7.8674 6.40353L0.876781 6.40353C0.465778 6.40353 0.132594 6.048 0.132594 5.60942L0.132594 2.94184C0.132594 2.39837 0.250458 1.9061 0.486185 1.46502C0.714546 1.01606 1.03499 0.661621 1.44751 0.401699C1.86003 0.133903 2.33886 -1.02235e-07 2.88398 -1.26063e-07C3.42173 -1.49569e-07 3.90055 0.133903 4.32044 0.401699C4.73296 0.661621 5.05709 1.01606 5.29282 1.46502C5.52118 1.9061 5.63536 2.39837 5.63536 2.94184L5.63536 4.71404L7.8674 4.71404L7.8674 6.40353ZM4.24309 4.71404L4.24309 3.1427C4.24309 2.8749 4.19153 2.63073 4.0884 2.41019C3.9779 2.18965 3.8232 2.01637 3.62431 1.89034C3.41805 1.75645 3.17127 1.68949 2.88398 1.68949C2.59668 1.68949 2.35359 1.75645 2.15469 1.89034C1.94843 2.01637 1.79374 2.18965 1.69061 2.41019C1.58011 2.63073 1.52486 2.8749 1.52486 3.1427L1.52486 4.71404L4.24309 4.71404Z" fill="#334466"/>
</svg>
