<svg width="24" height="24" viewBox="0 0 24 24" fill="none" xmlns="http://www.w3.org/2000/svg">
<path d="M21 6H15.6213L13.0607 3.43942C12.9214 3.30011 12.7561 3.1896 12.5741 3.11421C12.3921 3.03881 12.197 3 12 3H3C2.60218 3 2.22064 3.15804 1.93934 3.43934C1.65804 3.72064 1.5 4.10218 1.5 4.5V19.5C1.5 19.8978 1.65804 20.2794 1.93934 20.5607C2.22064 20.842 2.60218 21 3 21H21C21.3978 21 21.7794 20.842 22.0607 20.5607C22.342 20.2794 22.5 19.8978 22.5 19.5V7.5C22.5 7.10218 22.342 6.72064 22.0607 6.43934C21.7794 6.15804 21.3978 6 21 6ZM6 19.5V10.5H12V15.1275L10.0575 13.1925L9 14.25L12.75 18L16.5 14.25L15.4425 13.1925L13.5 15.1275V10.5C13.4995 10.1023 13.3413 9.72109 13.0601 9.43989C12.7789 9.15869 12.3977 9.0005 12 9H6C5.60233 9.0005 5.22109 9.15869 4.93989 9.43989C4.65869 9.72109 4.5005 10.1023 4.5 10.5V19.5H3V4.5H12L15 7.5H21V9H16.5V10.5H21V19.5H6Z" fill="#7D8FB3"/>
</svg>
