<svg width="32" height="32" viewBox="0 0 32 32" fill="none" xmlns="http://www.w3.org/2000/svg">
<path fill-rule="evenodd" clip-rule="evenodd" d="M7.05346 1.33337L19.4833 8.7913L13.8853 14.3894H30.6663V31.056H1.33301V24.3894H10.1141L2.86335 17.1386L1.33301 13.3128V10.2252L2.11582 7.09395L7.05346 1.33337ZM19.416 24.3894H27.9997V17.056H11.2186L10.537 17.7377L10.0795 19.5676L11.0955 21.5995L12.1228 22.6269L14.3917 23.7613L19.416 24.3894ZM7.6773 18.1814L5.136 15.6401L3.99967 12.7992V10.5535L4.55019 8.35143L7.61256 4.77867L15.1827 9.32074L8.12906 16.3744L7.6773 18.1814ZM27.9997 27.056H3.99967V28.3894H27.9997V27.056Z" fill="#7D8FB3"/>
</svg>
