<svg width="24" height="24" viewBox="0 0 24 24" fill="none" xmlns="http://www.w3.org/2000/svg">
<path d="M6 14.25H4.5V12.75C4.50066 12.1535 4.73792 11.5815 5.15973 11.1597C5.58155 10.7379 6.15346 10.5007 6.75 10.5H10.5V12H6.75C6.55115 12.0002 6.36052 12.0793 6.21991 12.2199C6.07931 12.3605 6.00022 12.5512 6 12.75V14.25Z" fill="#7D8FB3"/>
<path d="M9 9.75C8.40666 9.75 7.82664 9.57405 7.33329 9.24441C6.83994 8.91476 6.45542 8.44623 6.22836 7.89805C6.0013 7.34987 5.94189 6.74667 6.05764 6.16473C6.1734 5.58279 6.45912 5.04824 6.87868 4.62868C7.29824 4.20912 7.83279 3.9234 8.41473 3.80764C8.99667 3.69189 9.59987 3.7513 10.1481 3.97836C10.6962 4.20542 11.1648 4.58994 11.4944 5.08329C11.8241 5.57664 12 6.15666 12 6.75C11.9991 7.54538 11.6827 8.30792 11.1203 8.87033C10.5579 9.43275 9.79538 9.74911 9 9.75ZM9 5.25C8.70333 5.25 8.41332 5.33797 8.16664 5.5028C7.91997 5.66762 7.72771 5.90189 7.61418 6.17598C7.50065 6.45006 7.47094 6.75166 7.52882 7.04264C7.5867 7.33361 7.72956 7.60088 7.93934 7.81066C8.14912 8.02044 8.41639 8.1633 8.70736 8.22118C8.99834 8.27906 9.29994 8.24935 9.57402 8.13582C9.84811 8.02229 10.0824 7.83003 10.2472 7.58336C10.412 7.33668 10.5 7.04667 10.5 6.75C10.4996 6.3523 10.3414 5.97101 10.0602 5.6898C9.77899 5.40859 9.3977 5.25042 9 5.25Z" fill="#7D8FB3"/>
<path d="M15 15C14.4067 15 13.8266 14.8241 13.3333 14.4944C12.8399 14.1648 12.4554 13.6962 12.2284 13.148C12.0013 12.5999 11.9419 11.9967 12.0576 11.4147C12.1734 10.8328 12.4591 10.2982 12.8787 9.87868C13.2982 9.45912 13.8328 9.1734 14.4147 9.05764C14.9967 8.94189 15.5999 9.0013 16.148 9.22836C16.6962 9.45542 17.1648 9.83994 17.4944 10.3333C17.8241 10.8266 18 11.4067 18 12C17.9991 12.7954 17.6827 13.5579 17.1203 14.1203C16.5579 14.6827 15.7954 14.9991 15 15ZM15 10.5C14.7033 10.5 14.4133 10.588 14.1666 10.7528C13.92 10.9176 13.7277 11.1519 13.6142 11.426C13.5006 11.7001 13.4709 12.0017 13.5288 12.2926C13.5867 12.5836 13.7296 12.8509 13.9393 13.0607C14.1491 13.2704 14.4164 13.4133 14.7074 13.4712C14.9983 13.5291 15.2999 13.4994 15.574 13.3858C15.8481 13.2723 16.0824 13.08 16.2472 12.8334C16.412 12.5867 16.5 12.2967 16.5 12C16.4996 11.6023 16.3414 11.221 16.0602 10.9398C15.779 10.6586 15.3977 10.5004 15 10.5Z" fill="#7D8FB3"/>
<path d="M19.5 19.5H18V18C17.9998 17.8012 17.9207 17.6105 17.7801 17.4699C17.6395 17.3293 17.4488 17.2502 17.25 17.25H12.75C12.5512 17.2502 12.3605 17.3293 12.2199 17.4699C12.0793 17.6105 12.0002 17.8012 12 18V19.5H10.5V18C10.5007 17.4035 10.7379 16.8315 11.1597 16.4097C11.5815 15.9879 12.1535 15.7507 12.75 15.75H17.25C17.8465 15.7507 18.4185 15.9879 18.8403 16.4097C19.2621 16.8315 19.4993 17.4035 19.5 18V19.5Z" fill="#7D8FB3"/>
<path d="M6 22.5H3C2.6023 22.4996 2.22101 22.3414 1.9398 22.0602C1.65859 21.779 1.50042 21.3977 1.5 21V3C1.50042 2.6023 1.65859 2.22101 1.9398 1.9398C2.22101 1.65859 2.6023 1.50042 3 1.5H6V3H3V21H6V22.5Z" fill="#7D8FB3"/>
<path d="M21 22.5H18V21H21V3H18V1.5H21C21.3977 1.50042 21.779 1.65859 22.0602 1.9398C22.3414 2.22101 22.4996 2.6023 22.5 3V21C22.4996 21.3977 22.3414 21.779 22.0602 22.0602C21.779 22.3414 21.3977 22.4996 21 22.5Z" fill="#7D8FB3"/>
</svg>
