<svg width="24" height="24" viewBox="0 0 24 24" fill="none" xmlns="http://www.w3.org/2000/svg">
<path d="M10.5 18C10.337 18 10.1785 17.9469 10.0484 17.8487C9.91831 17.7506 9.82372 17.6127 9.77895 17.456L8.4342 12.75H6V11.25H9C9.16297 11.25 9.3215 11.3031 9.45159 11.4013C9.58169 11.4994 9.67628 11.6373 9.72105 11.794L10.5 14.52L12.779 6.54397C12.8238 6.38734 12.9184 6.24956 13.0485 6.15148C13.1786 6.05339 13.3371 6.00034 13.5 6.00034C13.6629 6.00034 13.8214 6.05339 13.9515 6.15148C14.0816 6.24956 14.1762 6.38734 14.221 6.54397L15.5658 11.25H18V12.75H15C14.837 12.75 14.6785 12.6969 14.5484 12.5987C14.4183 12.5006 14.3237 12.3627 14.279 12.206L13.5 9.48L11.2211 17.456C11.1763 17.6127 11.0817 17.7506 10.9516 17.8487C10.8215 17.9469 10.663 18 10.5 18Z" fill="#7D8FB3"/>
<path d="M12 23.25C11.8672 23.2502 11.7368 23.215 11.6221 23.1482L2.62208 17.8982C2.50884 17.8321 2.4149 17.7374 2.34962 17.6237C2.28434 17.51 2.24999 17.3811 2.25 17.25V6.75C2.24995 6.61891 2.28428 6.49009 2.34957 6.37641C2.41486 6.26273 2.50882 6.16817 2.62208 6.10215L11.6221 0.852148C11.7368 0.78523 11.8672 0.749969 12 0.749969C12.1328 0.749969 12.2632 0.78523 12.3779 0.852148L21.3779 6.10215L20.6221 7.39785L12 2.36827L3.75 7.18065V16.8193L12 21.6321L20.25 16.8193V11.25H21.75V17.25C21.75 17.3811 21.7157 17.51 21.6504 17.6237C21.5851 17.7374 21.4912 17.8321 21.3779 17.8982L12.3779 23.1482C12.2632 23.215 12.1328 23.2502 12 23.25Z" fill="#7D8FB3"/>
</svg>
