<svg width="32" height="32" viewBox="0 0 32 32" fill="none" xmlns="http://www.w3.org/2000/svg">
<path fill-rule="evenodd" clip-rule="evenodd" d="M32 22V19.3767H27.7537L32 16.5205V11.9863L27.7015 10L23.403 11.9863V14.5205H26.2687V13.5753L27.7015 12.9178L29.1343 13.5753V14.9863L23.403 19.0685V22H32ZM21.9552 10.6027H19.0299L16.2388 17.6849L13.4478 10.6027H10.5224V22H13.3731V18.0822L14.8955 22H17.5672L19.1045 18.0822V22H21.9552V10.6027ZM4.9403 16.0548L9.49254 10.6027H5.86567L2.86567 14.2329V10.6027H0V22H2.86567V19.3014L3.45522 18.5685L6.03731 22H9.55224L4.9403 16.0548Z" fill="#7D8FB3"/>
</svg>
