<svg width="64" height="40" viewBox="0 0 64 40" fill="none" xmlns="http://www.w3.org/2000/svg">
<g clip-path="url(#clip0_4500_7689)">
<rect width="64" height="40" rx="4" fill="white"/>
<path d="M-33.9961 9.19359L7.4277 9.19359V19.166L-33.9961 19.166V9.19359Z" fill="#CACDD2"/>
<path d="M-33.9961 30.6743L7.4277 30.6743V40.6467L-33.9961 40.6467V30.6743Z" fill="#CACDD2"/>
<path d="M8.19775 9.19359L49.6215 9.19359V19.166L8.19775 19.166V9.19359Z" fill="#CACDD2"/>
<path d="M8.19775 30.6743L49.6215 30.6743V40.6467L8.19775 40.6467V30.6743Z" fill="#CACDD2"/>
<path d="M-12.5176 -1.54562L28.9062 -1.54562V8.42677L-12.5176 8.42677V-1.54562Z" fill="#CACDD2"/>
<path d="M-12.5176 19.9328L28.9062 19.9328V29.9052L-12.5176 29.9052V19.9328Z" fill="#CACDD2"/>
<path d="M50.3877 9.19359L91.8115 9.19359V19.166L50.3877 19.166V9.19359Z" fill="#CACDD2"/>
<path d="M50.3877 30.672L91.8115 30.672V40.6444L50.3877 40.6444V30.672Z" fill="#CACDD2"/>
<path d="M29.6763 -1.54562L71.1001 -1.54562V8.42677L29.6763 8.42677V-1.54562Z" fill="#CACDD2"/>
<path d="M29.6763 19.9328L71.1001 19.9328V29.9052L29.6763 29.9052V19.9328Z" fill="#CACDD2"/>
</g>
<defs>
<clipPath id="clip0_4500_7689">
<rect width="64" height="40" rx="4" fill="white"/>
</clipPath>
</defs>
</svg>
