<svg width="24" height="24" viewBox="0 0 24 24" fill="none" xmlns="http://www.w3.org/2000/svg">
<path d="M21 3H3C2.60218 3 2.22064 3.15804 1.93934 3.43934C1.65804 3.72064 1.5 4.10218 1.5 4.5V19.5C1.5 19.8978 1.65804 20.2794 1.93934 20.5607C2.22064 20.842 2.60218 21 3 21H21C21.3978 21 21.7794 20.842 22.0607 20.5607C22.342 20.2794 22.5 19.8978 22.5 19.5V4.5C22.5 4.10218 22.342 3.72064 22.0607 3.43934C21.7794 3.15804 21.3978 3 21 3ZM21 19.5H9V15H7.5V19.5H3V12.75H15.1289L12.4394 15.4394L13.5 16.5L18 12L13.5 7.5L12.4394 8.56057L15.1289 11.25H3V4.5H7.5V9H9V4.5H21V19.5Z" fill="#7D8FB3"/>
</svg>
