<svg width="14" height="14" viewBox="0 0 14 14" fill="none" xmlns="http://www.w3.org/2000/svg">
<path d="M14 7.99999V6.99999H11V12H12V9.99999H13.5V8.99999H12V7.99999H14Z" fill="#7D8FB3"/>
<path d="M8.5 12H6.5V6.99999H8.5C8.89769 7.00043 9.27897 7.1586 9.56018 7.43981C9.84139 7.72102 9.99956 8.1023 10 8.49999V10.5C9.99956 10.8977 9.84139 11.279 9.56018 11.5602C9.27897 11.8414 8.89769 11.9996 8.5 12ZM7.5 11H8.5C8.63256 10.9998 8.75966 10.9471 8.85339 10.8534C8.94713 10.7596 8.99985 10.6326 9 10.5V8.49999C8.99985 8.36742 8.94713 8.24033 8.85339 8.1466C8.75966 8.05286 8.63256 8.00013 8.5 7.99999H7.5V11Z" fill="#7D8FB3"/>
<path d="M4.5 6.99999H2V12H3V10.5H4.5C4.76511 10.4996 5.01925 10.3942 5.20671 10.2067C5.39417 10.0192 5.49964 9.7651 5.5 9.49999V7.99999C5.4997 7.73487 5.39424 7.48069 5.20677 7.29322C5.0193 7.10575 4.76512 7.00029 4.5 6.99999ZM3 9.49999V7.99999H4.5L4.5005 9.49999H3Z" fill="#7D8FB3"/>
<path d="M10 5.99999V3.99999C10.0018 3.93427 9.98931 3.86895 9.96341 3.80853C9.93752 3.7481 9.89882 3.69401 9.85 3.64999L6.35 0.149989C6.30599 0.101153 6.2519 0.0624507 6.19147 0.0365533C6.13105 0.010656 6.06572 -0.00181923 6 -1.12436e-05H1C0.735023 0.000767 0.481121 0.106374 0.293753 0.293742C0.106385 0.48111 0.000778244 0.735012 0 0.999989V13C0 13.2652 0.105357 13.5196 0.292893 13.7071C0.48043 13.8946 0.734784 14 1 14H9V13H1V0.999989H5V3.99999C5.00078 4.26497 5.10639 4.51887 5.29375 4.70624C5.48112 4.8936 5.73502 4.99921 6 4.99999H9V5.99999H10ZM6 3.99999V1.19999L8.8 3.99999H6Z" fill="#7D8FB3"/>
</svg>
