<svg width="43" height="44" viewBox="0 0 43 44" fill="none" xmlns="http://www.w3.org/2000/svg">
<path d="M9.12109 3.23529C9.12109 1.44849 10.5796 0 12.3787 0H29.9696C31.7687 0 33.2272 1.44849 33.2272 3.23529V40.7647C33.2272 42.5515 31.7687 44 29.9696 44H12.3787C10.5796 44 9.12109 42.5515 9.12109 40.7647V3.23529Z" fill="white"/>
<path fill-rule="evenodd" clip-rule="evenodd" d="M29.9696 1.29412H12.3787C11.2992 1.29412 10.4241 2.16321 10.4241 3.23529V40.7647C10.4241 41.8368 11.2992 42.7059 12.3787 42.7059H29.9696C31.049 42.7059 31.9241 41.8368 31.9241 40.7647V3.23529C31.9241 2.16321 31.049 1.29412 29.9696 1.29412ZM12.3787 0C10.5796 0 9.12109 1.44849 9.12109 3.23529V40.7647C9.12109 42.5515 10.5796 44 12.3787 44H29.9696C31.7687 44 33.2272 42.5515 33.2272 40.7647V3.23529C33.2272 1.44849 31.7687 0 29.9696 0H12.3787Z" fill="#171717"/>
<path d="M0 23.6418L21.4989 9.73415L42.9997 23.6421L21.4991 38.1971L0 23.6418Z" fill="white"/>
<path fill-rule="evenodd" clip-rule="evenodd" d="M0 23.6425L3.32894 21.4889L3.98642 22.5216L2.21775 23.6657L3.99698 24.8703L3.31823 25.8889L0 23.6425ZM8.42655 18.1912L13.5242 14.8935L14.1816 15.9261L9.08402 19.2238L8.42655 18.1912ZM18.6218 11.5957L21.4993 9.7342L24.377 11.5956L23.7195 12.6283L21.4993 11.1922L19.2792 12.6284L18.6218 11.5957ZM13.5131 32.7909L8.41569 29.3399L9.09444 28.3213L14.1919 31.7723L13.5131 32.7909ZM29.4748 14.8931L34.5727 18.1906L33.9152 19.2233L28.8174 15.9258L29.4748 14.8931ZM18.6106 36.2419L19.2894 35.2233L21.4987 36.719L23.7084 35.2231L24.3871 36.2418L21.4987 38.1971L18.6106 36.2419ZM34.5831 29.3393L29.4851 32.7905L28.8064 31.7719L33.9044 28.3207L34.5831 29.3393ZM39.6706 21.4881L42.9997 23.6415L39.6811 25.8881L39.0024 24.8695L40.7818 23.6649L39.0131 22.5208L39.6706 21.4881Z" fill="#171717"/>
<path d="M18.4659 26.9254C18.9843 26.9254 19.4208 26.8788 19.7846 26.7763C20.1393 26.6832 20.4303 26.5341 20.6486 26.3478C20.8668 26.1615 21.0214 25.9287 21.1215 25.6585C21.2124 25.3884 21.267 25.081 21.267 24.7363C21.267 24.1402 21.0942 23.6744 20.7668 23.3577C20.4303 23.041 19.9574 22.8733 19.3572 22.8547L19.0116 22.8454L20.785 21.2245V20.3582H15.965V21.4481H19.2117L17.702 22.864V23.6558H18.4659C18.8024 23.6558 19.0752 23.6837 19.2753 23.7303C19.4754 23.7862 19.6209 23.8514 19.73 23.9445C19.8392 24.0377 19.9028 24.1402 19.9392 24.2706C19.9756 24.401 19.9938 24.5407 19.9938 24.6991C19.9938 24.8761 19.9665 25.0344 19.921 25.1648C19.8755 25.3045 19.7937 25.4256 19.6755 25.5188C19.5572 25.6119 19.4026 25.6865 19.2026 25.733C19.0025 25.7889 18.7569 25.8076 18.4477 25.8076C18.2113 25.8076 17.993 25.7889 17.8111 25.7517C17.6201 25.7144 17.4564 25.6492 17.3291 25.5561C17.1927 25.4629 17.0927 25.3325 17.0199 25.1648C16.9472 24.9971 16.9017 24.7922 16.9017 24.5314H15.6376C15.6285 24.9878 15.6921 25.3698 15.8195 25.6678C15.9468 25.9752 16.1378 26.2174 16.3833 26.4037C16.6289 26.59 16.929 26.7298 17.2837 26.8043C17.6292 26.8881 18.0294 26.9254 18.4659 26.9254Z" fill="#171717"/>
<path d="M22.1496 20.3582V26.7857H24.8234C25.36 26.7857 25.8329 26.7391 26.233 26.6366C26.6332 26.5435 26.9606 26.3665 27.2243 26.1243C27.488 25.8821 27.6881 25.5561 27.8154 25.1462C27.9428 24.7363 28.0155 24.2147 28.0155 23.5812C28.0155 22.9106 27.9428 22.361 27.8063 21.9418C27.6608 21.5226 27.4608 21.1966 27.1879 20.9637C26.9151 20.7308 26.5877 20.5725 26.1875 20.4886C25.7874 20.4048 25.3327 20.3582 24.8234 20.3582H22.1496ZM24.7143 25.6958H23.3865V21.4481H24.7143C25.0507 21.4481 25.3509 21.4667 25.6055 21.504C25.8601 21.5412 26.0693 21.6251 26.2421 21.7648C26.4149 21.9138 26.5422 22.1281 26.6332 22.4075C26.715 22.6963 26.7605 23.0875 26.7605 23.5812C26.7605 24.047 26.715 24.4103 26.6332 24.6897C26.5422 24.9692 26.4149 25.1835 26.2512 25.3325C26.0784 25.4815 25.8692 25.584 25.6146 25.6306C25.36 25.6772 25.0598 25.6958 24.7143 25.6958Z" fill="#171717"/>
<rect x="18.2422" y="2.62689" width="5.86364" height="1.97015" rx="0.985075" fill="#171717"/>
<rect x="16.9395" y="41.3731" width="8.4697" height="0.656715" rx="0.328358" fill="#171717"/>
</svg>
