<svg width="16" height="16" viewBox="0 0 16 16" fill="none" xmlns="http://www.w3.org/2000/svg">
<path fill-rule="evenodd" clip-rule="evenodd" d="M5.19635 5.99983C5.19635 4.45583 6.45235 3.19983 7.99635 3.19983C9.54035 3.19983 10.7964 4.45583 10.7964 5.99983C10.7964 7.26383 9.94835 8.32223 8.79635 8.66943V9.59983C8.79635 10.0422 8.43875 10.3998 7.99635 10.3998C7.55395 10.3998 7.19635 10.0422 7.19635 9.59983V7.99983C7.19635 7.55743 7.55395 7.19983 7.99635 7.19983C8.65795 7.19983 9.19635 6.66143 9.19635 5.99983C9.19635 5.33823 8.65795 4.79983 7.99635 4.79983C7.33475 4.79983 6.79635 5.33823 6.79635 5.99983C6.79635 6.44223 6.43875 6.79983 5.99635 6.79983C5.55395 6.79983 5.19635 6.44223 5.19635 5.99983ZM7.19635 11.9998C7.19635 11.5574 7.55395 11.1998 7.99635 11.1998C8.43875 11.1998 8.79635 11.5574 8.79635 11.9998C8.79635 12.4422 8.43875 12.7998 7.99635 12.7998C7.55395 12.7998 7.19635 12.4422 7.19635 11.9998ZM8.00208 14.4021C4.47328 14.4021 1.60208 11.5309 1.60208 8.00211C1.60208 4.47331 4.47328 1.60211 8.00208 1.60211C11.5309 1.60211 14.4021 4.47331 14.4021 8.00211C14.4021 11.5309 11.5309 14.4021 8.00208 14.4021ZM8 0C3.5888 0 0 3.5888 0 8C0 12.4112 3.5888 16 8 16C12.4112 16 16 12.4112 16 8C16 3.5888 12.4112 0 8 0Z" fill="#DFE3EB"/>
</svg>
