<svg width="100" height="100" viewBox="0 0 100 100" fill="none" xmlns="http://www.w3.org/2000/svg">
<g clip-path="url(#clip0_4575_7951)">
<rect width="100" height="100" fill="white"/>
<g clip-path="url(#clip1_4575_7951)">
<path fill-rule="evenodd" clip-rule="evenodd" d="M-19.5527 0.969116V-9.38707L20.5486 -9.38707V0.969116L-19.5527 0.969116ZM-19.0527 0.469116L20.0486 0.469116V-8.88707L-19.0527 -8.88707V0.469116Z" fill="#7D8FB3"/>
<path fill-rule="evenodd" clip-rule="evenodd" d="M-19.5527 10.8253V0.46913L20.5486 0.46913V10.8253L-19.5527 10.8253ZM-19.0527 10.3253L20.0486 10.3253V0.96913L-19.0527 0.96913V10.3253Z" fill="#7D8FB3"/>
<path fill-rule="evenodd" clip-rule="evenodd" d="M-19.5527 20.6815V10.3253L20.5486 10.3253V20.6815L-19.5527 20.6815ZM-19.0527 20.1815L20.0486 20.1815V10.8253L-19.0527 10.8253V20.1815Z" fill="#7D8FB3"/>
<path fill-rule="evenodd" clip-rule="evenodd" d="M20.0488 0.969116V-9.38707L60.1502 -9.38707V0.969116L20.0488 0.969116ZM20.5488 0.469116L59.6502 0.469116V-8.88707L20.5488 -8.88707V0.469116Z" fill="#7D8FB3"/>
<path fill-rule="evenodd" clip-rule="evenodd" d="M20.0488 10.8253V0.46913L60.1501 0.46913V10.8253L20.0488 10.8253ZM20.5488 10.3253L59.6501 10.3253V0.96913L20.5488 0.96913V10.3253Z" fill="#7D8FB3"/>
<path fill-rule="evenodd" clip-rule="evenodd" d="M20.0488 20.6815V10.3253L60.1502 10.3253V20.6815L20.0488 20.6815ZM20.5488 20.1815L59.6502 20.1815V10.8253L20.5488 10.8253V20.1815Z" fill="#7D8FB3"/>
<path fill-rule="evenodd" clip-rule="evenodd" d="M59.6504 0.969116V-9.38707L99.7518 -9.38707V0.969116L59.6504 0.969116ZM60.1504 0.469116L99.2518 0.469116V-8.88707L60.1504 -8.88707V0.469116Z" fill="#7D8FB3"/>
<path fill-rule="evenodd" clip-rule="evenodd" d="M59.6504 10.8253V0.46913L99.7517 0.46913V10.8253L59.6504 10.8253ZM60.1504 10.3253L99.2517 10.3253V0.96913L60.1504 0.96913V10.3253Z" fill="#7D8FB3"/>
<path fill-rule="evenodd" clip-rule="evenodd" d="M59.6504 20.6814V10.3252L99.7518 10.3252V20.6814L59.6504 20.6814ZM60.1504 20.1814L99.2518 20.1814V10.8252L60.1504 10.8252V20.1814Z" fill="#7D8FB3"/>
<path fill-rule="evenodd" clip-rule="evenodd" d="M99.252 0.969116V-9.38703L139.353 -9.38703V0.969116L99.252 0.969116ZM99.752 0.469116L138.853 0.469116V-8.88703L99.752 -8.88703V0.469116Z" fill="#7D8FB3"/>
<path fill-rule="evenodd" clip-rule="evenodd" d="M99.252 10.8253V0.469167L139.353 0.469167V10.8253L99.252 10.8253ZM99.752 10.3253L138.853 10.3253V0.969167L99.752 0.969167V10.3253Z" fill="#7D8FB3"/>
<path fill-rule="evenodd" clip-rule="evenodd" d="M99.252 20.6814V10.3252L139.353 10.3252V20.6814L99.252 20.6814ZM99.752 20.1814L138.853 20.1814V10.8252L99.752 10.8252V20.1814Z" fill="#7D8FB3"/>
<path fill-rule="evenodd" clip-rule="evenodd" d="M-39.3525 30.5377V20.1815H0.748821V30.5377L-39.3525 30.5377ZM-38.8525 30.0377L0.248821 30.0377V20.6815H-38.8525V30.0377Z" fill="#7D8FB3"/>
<path fill-rule="evenodd" clip-rule="evenodd" d="M-39.3525 40.3937V30.0375H0.748821V40.3937H-39.3525ZM-38.8525 39.8937H0.248821V30.5375H-38.8525V39.8937Z" fill="#7D8FB3"/>
<path fill-rule="evenodd" clip-rule="evenodd" d="M-39.3525 50.2499V39.8937H0.748821V50.2499H-39.3525ZM-38.8525 49.7499H0.248821V40.3937H-38.8525V49.7499Z" fill="#7D8FB3"/>
<path fill-rule="evenodd" clip-rule="evenodd" d="M0.248047 30.5376L0.248047 20.1814H40.3494V30.5376L0.248047 30.5376ZM0.748047 30.0376L39.8494 30.0376V20.6814H0.748047L0.748047 30.0376Z" fill="#7D8FB3"/>
<path fill-rule="evenodd" clip-rule="evenodd" d="M0.248047 40.3938L0.248047 30.0376H40.3494V40.3938H0.248047ZM0.748047 39.8938H39.8494V30.5376H0.748047L0.748047 39.8938Z" fill="#7D8FB3"/>
<path fill-rule="evenodd" clip-rule="evenodd" d="M0.248047 50.25L0.248047 39.8938H40.3494V50.25H0.248047ZM0.748047 49.75H39.8494V40.3938H0.748047L0.748047 49.75Z" fill="#7D8FB3"/>
<path fill-rule="evenodd" clip-rule="evenodd" d="M39.8496 30.5376V20.1814H79.951V30.5376L39.8496 30.5376ZM40.3496 30.0376L79.451 30.0376V20.6814H40.3496V30.0376Z" fill="#7D8FB3"/>
<path fill-rule="evenodd" clip-rule="evenodd" d="M39.8496 40.3938V30.0376H79.951V40.3938H39.8496ZM40.3496 39.8938H79.451V30.5376H40.3496V39.8938Z" fill="#7D8FB3"/>
<path fill-rule="evenodd" clip-rule="evenodd" d="M39.8496 50.25V39.8938H79.951V50.25H39.8496ZM40.3496 49.75H79.451V40.3938H40.3496V49.75Z" fill="#7D8FB3"/>
<path fill-rule="evenodd" clip-rule="evenodd" d="M79.4512 30.5376V20.1814H119.553V30.5376L79.4512 30.5376ZM79.9512 30.0376L119.053 30.0376V20.6814H79.9512V30.0376Z" fill="#7D8FB3"/>
<path fill-rule="evenodd" clip-rule="evenodd" d="M79.4512 40.3938V30.0376H119.553V40.3938H79.4512ZM79.9512 39.8938H119.053V30.5376H79.9512V39.8938Z" fill="#7D8FB3"/>
<path fill-rule="evenodd" clip-rule="evenodd" d="M79.4512 50.25V39.8938H119.553V50.25H79.4512ZM79.9512 49.75H119.053V40.3938H79.9512V49.75Z" fill="#7D8FB3"/>
<path fill-rule="evenodd" clip-rule="evenodd" d="M-19.5527 60.1062V49.75H20.5486V60.1062H-19.5527ZM-19.0527 59.6062H20.0486V50.25H-19.0527V59.6062Z" fill="#7D8FB3"/>
<path fill-rule="evenodd" clip-rule="evenodd" d="M-19.5527 69.9624V59.6062H20.5486V69.9624H-19.5527ZM-19.0527 69.4624H20.0486V60.1062H-19.0527V69.4624Z" fill="#7D8FB3"/>
<path fill-rule="evenodd" clip-rule="evenodd" d="M-19.5527 79.8186V69.4624H20.5486V79.8186H-19.5527ZM-19.0527 79.3186H20.0486V69.9624H-19.0527V79.3186Z" fill="#7D8FB3"/>
<path fill-rule="evenodd" clip-rule="evenodd" d="M20.0488 60.1062V49.75H60.1502V60.1062H20.0488ZM20.5488 59.6062H59.6502V50.25H20.5488V59.6062Z" fill="#7D8FB3"/>
<path fill-rule="evenodd" clip-rule="evenodd" d="M20.0488 69.9623V59.6061H60.1502V69.9623H20.0488ZM20.5488 69.4623H59.6502V60.1061H20.5488V69.4623Z" fill="#7D8FB3"/>
<path fill-rule="evenodd" clip-rule="evenodd" d="M20.0488 79.8184V69.4622H60.1502V79.8184H20.0488ZM20.5488 79.3184H59.6502V69.9622H20.5488V79.3184Z" fill="#7D8FB3"/>
<path fill-rule="evenodd" clip-rule="evenodd" d="M59.6504 60.1062V49.75H99.7518V60.1062H59.6504ZM60.1504 59.6062H99.2518V50.25H60.1504V59.6062Z" fill="#7D8FB3"/>
<path fill-rule="evenodd" clip-rule="evenodd" d="M59.6504 69.9624V59.6062H99.7518V69.9624H59.6504ZM60.1504 69.4624H99.2518V60.1062H60.1504V69.4624Z" fill="#7D8FB3"/>
<path fill-rule="evenodd" clip-rule="evenodd" d="M59.6504 79.8185V69.4623H99.7518V79.8185H59.6504ZM60.1504 79.3185H99.2518V69.9623H60.1504V79.3185Z" fill="#7D8FB3"/>
<path fill-rule="evenodd" clip-rule="evenodd" d="M99.252 60.1062V49.7501H139.353V60.1062H99.252ZM99.752 59.6062H138.853V50.2501H99.752V59.6062Z" fill="#7D8FB3"/>
<path fill-rule="evenodd" clip-rule="evenodd" d="M99.252 69.9624V59.6063H139.353V69.9624H99.252ZM99.752 69.4624H138.853V60.1063H99.752V69.4624Z" fill="#7D8FB3"/>
<path fill-rule="evenodd" clip-rule="evenodd" d="M99.252 79.8185V69.4623H139.353V79.8185H99.252ZM99.752 79.3185H138.853V69.9623H99.752V79.3185Z" fill="#7D8FB3"/>
<path fill-rule="evenodd" clip-rule="evenodd" d="M-39.3535 89.6746V79.3183H0.747845V89.6746H-39.3535ZM-38.8535 89.1746H0.247845V79.8183H-38.8535V89.1746Z" fill="#7D8FB3"/>
<path fill-rule="evenodd" clip-rule="evenodd" d="M-39.3535 99.5308V89.1745H0.747845V99.5308H-39.3535ZM-38.8535 99.0308H0.247845V89.6745H-38.8535V99.0308Z" fill="#7D8FB3"/>
<path fill-rule="evenodd" clip-rule="evenodd" d="M-39.3535 109.387V99.0307H0.747845V109.387H-39.3535ZM-38.8535 108.887H0.247845V99.5307H-38.8535V108.887Z" fill="#7D8FB3"/>
<path fill-rule="evenodd" clip-rule="evenodd" d="M0.248047 89.6747L0.248047 79.3185H40.3494V89.6747H0.248047ZM0.748047 89.1747H39.8494V79.8185H0.748047L0.748047 89.1747Z" fill="#7D8FB3"/>
<path fill-rule="evenodd" clip-rule="evenodd" d="M0.248047 99.5309L0.248047 89.1747H40.3494V99.5309H0.248047ZM0.748047 99.0309H39.8494V89.6747H0.748047L0.748047 99.0309Z" fill="#7D8FB3"/>
<path fill-rule="evenodd" clip-rule="evenodd" d="M0.248047 109.387L0.248047 99.0309H40.3494V109.387H0.248047ZM0.748047 108.887H39.8494V99.5309H0.748047L0.748047 108.887Z" fill="#7D8FB3"/>
<path fill-rule="evenodd" clip-rule="evenodd" d="M39.8496 89.6747V79.3185H79.951V89.6747H39.8496ZM40.3496 89.1747H79.451V79.8185H40.3496V89.1747Z" fill="#7D8FB3"/>
<path fill-rule="evenodd" clip-rule="evenodd" d="M39.8496 99.5309V89.1747H79.951V99.5309H39.8496ZM40.3496 99.0309H79.451V89.6747H40.3496V99.0309Z" fill="#7D8FB3"/>
<path fill-rule="evenodd" clip-rule="evenodd" d="M39.8496 109.387V99.0309H79.951V109.387H39.8496ZM40.3496 108.887H79.451V99.5309H40.3496V108.887Z" fill="#7D8FB3"/>
<path fill-rule="evenodd" clip-rule="evenodd" d="M79.4512 89.6747V79.3185H119.553V89.6747H79.4512ZM79.9512 89.1747H119.053V79.8185H79.9512V89.1747Z" fill="#7D8FB3"/>
<path fill-rule="evenodd" clip-rule="evenodd" d="M79.4512 99.5308V89.1746H119.553V99.5308H79.4512ZM79.9512 99.0308H119.053V89.6746H79.9512V99.0308Z" fill="#7D8FB3"/>
<path fill-rule="evenodd" clip-rule="evenodd" d="M79.4512 109.387V99.0308H119.553V109.387H79.4512ZM79.9512 108.887H119.053V99.5308H79.9512V108.887Z" fill="#7D8FB3"/>
</g>
</g>
<rect x="1" y="1" width="98" height="98" stroke="#DFE3EB" stroke-width="2"/>
<defs>
<clipPath id="clip0_4575_7951">
<rect width="100" height="100" fill="white"/>
</clipPath>
<clipPath id="clip1_4575_7951">
<rect width="258" height="178" fill="white" transform="translate(-79 -39)"/>
</clipPath>
</defs>
</svg>
