<svg width="100" height="100" viewBox="0 0 100 100" fill="none" xmlns="http://www.w3.org/2000/svg">
<g clip-path="url(#clip0_4575_7864)">
<rect width="100" height="100" fill="white"/>
<g clip-path="url(#clip1_4575_7864)">
<path fill-rule="evenodd" clip-rule="evenodd" d="M10.9736 32.1462H-0.748417L-0.748417 -13.1714H10.9736L10.9736 32.1462ZM10.4736 31.6462L10.4736 -12.6714H-0.248417L-0.248417 31.6462H10.4736Z" fill="#7D8FB3"/>
<path fill-rule="evenodd" clip-rule="evenodd" d="M10.9736 76.9639H-0.748417L-0.748417 31.6462H10.9736L10.9736 76.9639ZM10.4736 76.4639L10.4736 32.1462H-0.248417L-0.248417 76.4639H10.4736Z" fill="#7D8FB3"/>
<path fill-rule="evenodd" clip-rule="evenodd" d="M10.9736 121.782H-0.748417L-0.748417 76.464H10.9736L10.9736 121.782ZM10.4736 121.282L10.4736 76.964H-0.248417L-0.248417 121.282H10.4736Z" fill="#7D8FB3"/>
<path fill-rule="evenodd" clip-rule="evenodd" d="M22.1953 44.4839H10.4733L10.4733 -0.833847H22.1953L22.1953 44.4839ZM21.6953 43.9839L21.6953 -0.333847H10.9733L10.9733 43.9839H21.6953Z" fill="#7D8FB3"/>
<path fill-rule="evenodd" clip-rule="evenodd" d="M22.1953 89.3014H10.4733L10.4733 43.9837H22.1953L22.1953 89.3014ZM21.6953 88.8014L21.6953 44.4837H10.9733L10.9733 88.8014H21.6953Z" fill="#7D8FB3"/>
<path fill-rule="evenodd" clip-rule="evenodd" d="M22.1953 134.119H10.4733L10.4733 88.8015H22.1953L22.1953 134.119ZM21.6953 133.619L21.6953 89.3015H10.9733L10.9733 133.619H21.6953Z" fill="#7D8FB3"/>
<path fill-rule="evenodd" clip-rule="evenodd" d="M33.417 56.8213H21.6949L21.6949 11.5036H33.417L33.417 56.8213ZM32.917 56.3213L32.917 12.0036H22.1949L22.1949 56.3213H32.917Z" fill="#7D8FB3"/>
<path fill-rule="evenodd" clip-rule="evenodd" d="M33.417 101.639H21.6949L21.6949 56.3213H33.417L33.417 101.639ZM32.917 101.139L32.917 56.8213H22.1949L22.1949 101.139H32.917Z" fill="#7D8FB3"/>
<path fill-rule="evenodd" clip-rule="evenodd" d="M44.6387 69.1589H32.9166L32.9166 23.8412H44.6387L44.6387 69.1589ZM44.1387 68.6589L44.1387 24.3412H33.4166L33.4166 68.6589H44.1387Z" fill="#7D8FB3"/>
<path fill-rule="evenodd" clip-rule="evenodd" d="M44.6387 113.977H32.9166L32.9166 68.6588H44.6387L44.6387 113.977ZM44.1387 113.477L44.1387 69.1588H33.4166L33.4166 113.477H44.1387Z" fill="#7D8FB3"/>
<path fill-rule="evenodd" clip-rule="evenodd" d="M55.8613 81.4963H44.1393L44.1393 36.1787H55.8613L55.8613 81.4963ZM55.3613 80.9963L55.3613 36.6787H44.6393L44.6393 80.9963H55.3613Z" fill="#7D8FB3"/>
<path fill-rule="evenodd" clip-rule="evenodd" d="M55.8613 126.314H44.1393L44.1393 80.9964H55.8613L55.8613 126.314ZM55.3613 125.814L55.3613 81.4964H44.6393L44.6393 125.814H55.3613Z" fill="#7D8FB3"/>
<path fill-rule="evenodd" clip-rule="evenodd" d="M67.083 93.834H55.361L55.361 48.5163H67.083V93.834ZM66.583 93.334V49.0163H55.861L55.861 93.334H66.583Z" fill="#7D8FB3"/>
<path fill-rule="evenodd" clip-rule="evenodd" d="M67.083 138.652H55.361L55.361 93.334H67.083V138.652ZM66.583 138.152V93.834H55.861L55.861 138.152H66.583Z" fill="#7D8FB3"/>
<path fill-rule="evenodd" clip-rule="evenodd" d="M78.3047 106.172H66.5826V60.8539H78.3047V106.172ZM77.8047 105.672V61.3539H67.0826V105.672H77.8047Z" fill="#7D8FB3"/>
<path fill-rule="evenodd" clip-rule="evenodd" d="M89.5273 118.509H77.8053V73.1914H89.5273V118.509ZM89.0273 118.009V73.6914H78.3053V118.009H89.0273Z" fill="#7D8FB3"/>
<path fill-rule="evenodd" clip-rule="evenodd" d="M100.749 130.847H89.027V85.529H100.749V130.847ZM100.249 130.347V86.029H89.527V130.347H100.249Z" fill="#7D8FB3"/>
<path fill-rule="evenodd" clip-rule="evenodd" d="M33.417 12.0037L21.6949 12.0037L21.6949 -33.3141H33.417L33.417 12.0037ZM32.917 11.5037L32.917 -32.8141H22.1949L22.1949 11.5037L32.917 11.5037Z" fill="#7D8FB3"/>
<path fill-rule="evenodd" clip-rule="evenodd" d="M44.6387 24.3411H32.9166L32.9166 -20.9766H44.6387L44.6387 24.3411ZM44.1387 23.8411L44.1387 -20.4766H33.4166L33.4166 23.8411H44.1387Z" fill="#7D8FB3"/>
<path fill-rule="evenodd" clip-rule="evenodd" d="M55.8613 36.6787H44.1393L44.1393 -8.63902H55.8613L55.8613 36.6787ZM55.3613 36.1787L55.3613 -8.13902H44.6393L44.6393 36.1787H55.3613Z" fill="#7D8FB3"/>
<path fill-rule="evenodd" clip-rule="evenodd" d="M67.083 4.19849L55.361 4.19849L55.361 -41.1192H67.083V4.19849ZM66.583 3.69849V-40.6192H55.861L55.861 3.69849L66.583 3.69849Z" fill="#7D8FB3"/>
<path fill-rule="evenodd" clip-rule="evenodd" d="M67.083 49.0162H55.361L55.361 3.69859H67.083V49.0162ZM66.583 48.5162V4.19859H55.861L55.861 48.5162H66.583Z" fill="#7D8FB3"/>
<path fill-rule="evenodd" clip-rule="evenodd" d="M78.3047 16.536H66.5826V-28.7816H78.3047V16.536ZM77.8047 16.036V-28.2816H67.0826V16.036H77.8047Z" fill="#7D8FB3"/>
<path fill-rule="evenodd" clip-rule="evenodd" d="M78.3047 61.3539H66.5826V16.0361H78.3047V61.3539ZM77.8047 60.8539V16.5361H67.0826V60.8539H77.8047Z" fill="#7D8FB3"/>
<path fill-rule="evenodd" clip-rule="evenodd" d="M89.5273 28.8737H77.8053V-16.4441H89.5273V28.8737ZM89.0273 28.3737V-15.9441H78.3053V28.3737H89.0273Z" fill="#7D8FB3"/>
<path fill-rule="evenodd" clip-rule="evenodd" d="M89.5273 73.6914H77.8053V28.3738H89.5273V73.6914ZM89.0273 73.1914V28.8738H78.3053V73.1914H89.0273Z" fill="#7D8FB3"/>
<path fill-rule="evenodd" clip-rule="evenodd" d="M100.749 41.2112H89.027V-4.10646H100.749V41.2112ZM100.249 40.7112V-3.60646H89.527V40.7112H100.249Z" fill="#7D8FB3"/>
<path fill-rule="evenodd" clip-rule="evenodd" d="M100.749 86.0291H89.027V40.7113H100.749V86.0291ZM100.249 85.5291V41.2113H89.527V85.5291H100.249Z" fill="#7D8FB3"/>
</g>
</g>
<rect x="1" y="1" width="98" height="98" stroke="#DFE3EB" stroke-width="2"/>
<defs>
<clipPath id="clip0_4575_7864">
<rect width="100" height="100" fill="white"/>
</clipPath>
<clipPath id="clip1_4575_7864">
<rect width="214" height="243" fill="white" transform="translate(-57 -75)"/>
</clipPath>
</defs>
</svg>
