<svg width="24" height="24" viewBox="0 0 24 24" fill="none" xmlns="http://www.w3.org/2000/svg">
<path d="M9 22.5H3C2.60232 22.4995 2.22105 22.3414 1.93984 22.0602C1.65864 21.7789 1.50046 21.3977 1.5 21V18C1.50046 17.6023 1.65864 17.221 1.93984 16.9398C2.22105 16.6586 2.60232 16.5005 3 16.5H9C9.39768 16.5005 9.77895 16.6586 10.0602 16.9398C10.3414 17.221 10.4995 17.6023 10.5 18V21C10.4995 21.3977 10.3414 21.7789 10.0602 22.0602C9.77895 22.3414 9.39768 22.4995 9 22.5ZM3 18V21H9V18H3Z" fill="#7D8FB3"/>
<path d="M21 15H9C8.60232 14.9995 8.22105 14.8414 7.93984 14.5602C7.65864 14.279 7.50046 13.8977 7.5 13.5V10.5C7.50046 10.1023 7.65864 9.72105 7.93984 9.43984C8.22105 9.15864 8.60232 9.00046 9 9H21C21.3977 9.00046 21.7789 9.15864 22.0602 9.43984C22.3414 9.72105 22.4995 10.1023 22.5 10.5V13.5C22.4995 13.8977 22.3414 14.279 22.0602 14.5602C21.7789 14.8414 21.3977 14.9995 21 15ZM9 10.5V13.5H21V10.5H9Z" fill="#7D8FB3"/>
<path d="M12 7.5H3C2.60232 7.49954 2.22105 7.34136 1.93984 7.06016C1.65864 6.77895 1.50046 6.39768 1.5 6V3C1.50046 2.60232 1.65864 2.22105 1.93984 1.93984C2.22105 1.65864 2.60232 1.50046 3 1.5H12C12.3977 1.50046 12.779 1.65864 13.0602 1.93984C13.3414 2.22105 13.4995 2.60232 13.5 3V6C13.4995 6.39768 13.3414 6.77895 13.0602 7.06016C12.779 7.34136 12.3977 7.49954 12 7.5ZM3 3V6H12V3H3Z" fill="#7D8FB3"/>
</svg>
