<svg width="16" height="17" viewBox="0 0 16 17" fill="none" xmlns="http://www.w3.org/2000/svg">
<path d="M5 15.5C5.55228 15.5 6 15.0523 6 14.5C6 13.9477 5.55228 13.5 5 13.5C4.44772 13.5 4 13.9477 4 14.5C4 15.0523 4.44772 15.5 5 15.5Z" fill="#62708C"/>
<path d="M12 15.5C12.5523 15.5 13 15.0523 13 14.5C13 13.9477 12.5523 13.5 12 13.5C11.4477 13.5 11 13.9477 11 14.5C11 15.0523 11.4477 15.5 12 15.5Z" fill="#62708C"/>
<path d="M2.4903 1.90195C2.46763 1.7886 2.40639 1.68661 2.317 1.61333C2.22761 1.54005 2.11559 1.5 2 1.5H0V2.5H1.59L3.5097 12.0981C3.53237 12.2114 3.59361 12.3134 3.683 12.3867C3.77239 12.46 3.88441 12.5 4 12.5H13V11.5H4.41L4.01 9.5H13C13.1138 9.5 13.2241 9.46121 13.3129 9.39004C13.4016 9.31886 13.4634 9.21955 13.4881 9.1085L14.6222 4H13.5985L12.5991 8.5H3.81L2.4903 1.90195Z" fill="#62708C"/>
<path d="M9 3.5V1.5H8V3.5H6V4.5H8V6.5H9V4.5H11V3.5H9Z" fill="#62708C"/>
</svg>
