<svg width="32" height="32" viewBox="0 0 32 32" fill="none" xmlns="http://www.w3.org/2000/svg">
<rect x="1.5" y="1.5" width="29" height="29" stroke="#7D8FB3" stroke-width="3"/>
<path d="M1.45508 21.8183C3.15205 18.4244 11.6369 12.7274 16.7278 15.2728C21.0914 17.4547 21.8187 23.2728 17.4551 30.5456" stroke="#7D8FB3" stroke-width="3"/>
<path d="M1.45508 14.5456C6.06114 10.4244 13.732 5.433 21.0914 7.27288C25.5925 8.39815 26.6114 12.135 26.8421 13.7692C26.9149 14.2846 26.9503 14.8049 27.0106 15.3219C27.5559 19.9936 26.7593 23.3729 24.0005 30.5456" stroke="#7D8FB3" stroke-width="3"/>
<path d="M1.45508 5.81823C3.15205 6.30307 6.98235 6.10913 8.72781 1.45459" stroke="#7D8FB3" stroke-width="3"/>
<path d="M23.2725 1.45459C24.4361 5.52732 28.6058 6.5455 30.5452 6.5455" stroke="#7D8FB3" stroke-width="3"/>
<path d="M1.45508 27.6364C3.6369 25.4545 6.54598 21.4545 10.1824 20.3636C13.0914 19.4909 16.0005 20.3636 16.0005 23.2727C16.0005 26.1818 15.1278 27.6364 11.6369 30.5455" stroke="#7D8FB3" stroke-width="3"/>
</svg>
