<svg width="24" height="24" viewBox="0 0 24 24" fill="none" xmlns="http://www.w3.org/2000/svg">
<g clip-path="url(#clip0_434_1323)">
<path d="M17.25 6.75366H21.75C22.1478 6.75366 22.5294 6.59563 22.8107 6.31432C23.092 6.03302 23.25 5.65149 23.25 5.25366V2.25366C23.25 1.85584 23.092 1.47431 22.8107 1.193C22.5294 0.911697 22.1478 0.753662 21.75 0.753662H17.25C16.8522 0.753662 16.4706 0.911697 16.1893 1.193C15.908 1.47431 15.75 1.85584 15.75 2.25366V3.00366H8.25V2.25366C8.25 1.85584 8.09196 1.47431 7.81066 1.193C7.52936 0.911697 7.14782 0.753662 6.75 0.753662H2.25C1.85218 0.753662 1.47064 0.911697 1.18934 1.193C0.908035 1.47431 0.75 1.85584 0.75 2.25366V5.25366C0.75 5.65149 0.908035 6.03302 1.18934 6.31432C1.47064 6.59563 1.85218 6.75366 2.25 6.75366H6.75C7.14782 6.75366 7.52936 6.59563 7.81066 6.31432C8.09196 6.03302 8.25 5.65149 8.25 5.25366V4.50366H11.25V19.5037C11.2505 19.9013 11.4086 20.2826 11.6898 20.5638C11.9711 20.845 12.3523 21.0032 12.75 21.0037H15.75V21.7537C15.75 22.1515 15.908 22.533 16.1893 22.8143C16.4706 23.0956 16.8522 23.2537 17.25 23.2537H21.75C22.1478 23.2537 22.5294 23.0956 22.8107 22.8143C23.092 22.533 23.25 22.1515 23.25 21.7537V18.7537C23.25 18.3558 23.092 17.9743 22.8107 17.693C22.5294 17.4117 22.1478 17.2537 21.75 17.2537H17.25C16.8522 17.2537 16.4706 17.4117 16.1893 17.693C15.908 17.9743 15.75 18.3558 15.75 18.7537V19.5037H12.75V12.7537H15.75V13.5037C15.75 13.9015 15.908 14.283 16.1893 14.5643C16.4706 14.8456 16.8522 15.0037 17.25 15.0037H21.75C22.1478 15.0037 22.5294 14.8456 22.8107 14.5643C23.092 14.283 23.25 13.9015 23.25 13.5037V10.5037C23.25 10.1058 23.092 9.72431 22.8107 9.443C22.5294 9.1617 22.1478 9.00366 21.75 9.00366H17.25C16.8522 9.00366 16.4706 9.1617 16.1893 9.443C15.908 9.72431 15.75 10.1058 15.75 10.5037V11.2537H12.75V4.50366H15.75V5.25366C15.75 5.65149 15.908 6.03302 16.1893 6.31432C16.4706 6.59563 16.8522 6.75366 17.25 6.75366ZM17.25 2.25366H21.75V5.25366H17.25V2.25366ZM6.75 5.25366H2.25V2.25366H6.75V5.25366ZM17.25 18.7537H21.75V21.7537H17.25V18.7537ZM17.25 10.5037H21.75V13.5037H17.25V10.5037Z" fill="white"/>
</g>
<defs>
<clipPath id="clip0_434_1323">
<rect width="24" height="24" fill="white"/>
</clipPath>
</defs>
</svg>
