<svg width="64" height="40" viewBox="0 0 64 40" fill="none" xmlns="http://www.w3.org/2000/svg">
<g clip-path="url(#clip0_4520_8235)">
<path d="M-33.9961 9.1936L7.4277 9.1936V19.166L-33.9961 19.166V9.1936Z" fill="#F5333F"/>
<path d="M-33.9961 30.6743L7.4277 30.6743V40.6467L-33.9961 40.6467V30.6743Z" fill="#F5333F"/>
<path d="M8.19775 9.1936L49.6215 9.1936V19.166L8.19775 19.166V9.1936Z" fill="#F5333F"/>
<path d="M8.19775 30.6743L49.6215 30.6743V40.6467L8.19775 40.6467V30.6743Z" fill="#F5333F"/>
<path d="M-12.5176 -1.54565L28.9062 -1.54565V8.42674L-12.5176 8.42674V-1.54565Z" fill="#F5333F"/>
<path d="M-12.5176 19.9329L28.9062 19.9329V29.9053L-12.5176 29.9053V19.9329Z" fill="#F5333F"/>
<path d="M50.3877 9.1936L91.8115 9.1936V19.166L50.3877 19.166V9.1936Z" fill="#F5333F"/>
<path d="M50.3877 30.672L91.8115 30.672V40.6444L50.3877 40.6444V30.672Z" fill="#F5333F"/>
<path d="M29.6763 -1.54565L71.1001 -1.54565V8.42674L29.6763 8.42674V-1.54565Z" fill="#F5333F"/>
<path d="M29.6763 19.9329L71.1001 19.9329V29.9053L29.6763 29.9053V19.9329Z" fill="#F5333F"/>
</g>
<defs>
<clipPath id="clip0_4520_8235">
<rect width="64" height="40" rx="4" fill="white"/>
</clipPath>
</defs>
</svg>
