<svg width="64" height="40" viewBox="0 0 64 40" fill="none" xmlns="http://www.w3.org/2000/svg">
<g clip-path="url(#clip0_4520_7774)">
<path d="M-30.9897 40.5688L-3.11717 12.6963L3.13994 18.9534L-24.7326 46.826L-30.9897 40.5688Z" fill="#F5333F"/>
<path d="M-16.769 54.7896L11.1035 26.917L17.9295 33.7429L-9.94311 61.6155L-16.769 54.7896Z" fill="#F5333F"/>
<path d="M26.4619 41.1377L54.3345 13.2651L61.1604 20.0911L33.2879 47.9636L26.4619 41.1377Z" fill="#F5333F"/>
<path d="M-17.3379 -2.66211L10.5347 -30.5347L17.3606 -23.7087L-10.512 4.16383L-17.3379 -2.66211Z" fill="#F5333F"/>
<path d="M41.2515 55.9272L69.124 28.0547L75.3812 34.3118L47.5086 62.1844L41.2515 55.9272Z" fill="#F5333F"/>
<path d="M-2.54834 12.1274L25.3242 -15.7451L31.5813 -9.48803L3.70877 18.3846L-2.54834 12.1274Z" fill="#F5333F"/>
<path d="M11.6724 26.3481L39.5449 -1.52443L46.3709 5.3015L18.4983 33.1741L11.6724 26.3481Z" fill="#F5333F"/>
<path d="M20.2046 62.1843L48.0772 34.3117L54.9031 41.1377L27.0305 69.0103L20.2046 62.1843Z" fill="#F5333F"/>
<path d="M-23.5952 18.3845L4.27736 -9.48806L11.1033 -2.66212L-16.7693 25.2105L-23.5952 18.3845Z" fill="#F5333F"/>
<path d="M-9.37451 32.6052L18.4981 4.73265L25.324 11.5586L-2.54857 39.4312L-9.37451 32.6052Z" fill="#F5333F"/>
<path d="M5.41504 47.3948L33.2876 19.5222L40.1136 26.3481L12.241 54.2207L5.41504 47.3948Z" fill="#F5333F"/>
<path d="M54.9033 12.6963L83.3447 -15.7451L90.1707 -8.91918L61.7293 19.5222L54.9033 12.6963Z" fill="#F5333F"/>
<path d="M40.1138 -2.09326L68.5552 -30.5347L75.3811 -23.7087L46.9397 4.73268L40.1138 -2.09326Z" fill="#F5333F"/>
<path d="M48.646 33.7429L76.5186 5.87034L83.3445 12.6963L55.4719 40.5689L48.646 33.7429Z" fill="#F5333F"/>
<path d="M62.8667 47.9636L90.7393 20.091L97.5652 26.917L69.6926 54.7896L62.8667 47.9636Z" fill="#F5333F"/>
<path d="M19.0669 4.16382L46.9395 -23.7088L53.7654 -16.8828L25.8928 10.9898L19.0669 4.16382Z" fill="#F5333F"/>
<path d="M33.8564 18.9534L61.729 -8.91921L68.555 -2.09327L40.6824 25.7793L33.8564 18.9534Z" fill="#F5333F"/>
</g>
<defs>
<clipPath id="clip0_4520_7774">
<rect width="64" height="40" rx="4" fill="white"/>
</clipPath>
</defs>
</svg>
