<svg xmlns="http://www.w3.org/2000/svg" width="100" height="100" fill="none"><g clip-path="url(#a)"><g fill="#7D8FB3" fill-rule="evenodd" clip-path="url(#b)" clip-rule="evenodd"><path d="M10.965 36.867H-.76v-45.4h11.725v45.4Zm-.5-.5v-44.4H-.26v44.4h10.725Z"/><path d="M10.965 81.766H-.76v-45.4h11.725v45.4Zm-.5-.5v-44.4H-.26v44.4h10.725Z"/><path d="M10.965 126.665H-.76v-45.4h11.725v45.4Zm-.5-.5v-44.4H-.26v44.4h10.725ZM22.19 14.417H10.464v-45.4h11.724v45.4Zm-.5-.5v-44.4H10.964v44.4h10.724Z"/><path d="M22.19 59.316H10.464V13.917h11.724v45.4Zm-.5-.5V14.417H10.964v44.4h10.724Z"/><path d="M22.19 104.215H10.464V58.816h11.724v45.399Zm-.5-.5V59.316H10.964v44.399h10.724ZM33.413 36.867H21.69v-45.4h11.724v45.4Zm-.5-.5v-44.4H22.19v44.4h10.724Z"/><path d="M33.413 81.766H21.69v-45.4h11.724v45.4Zm-.5-.5v-44.4H22.19v44.4h10.724Z"/><path d="M33.413 126.665H21.69v-45.4h11.724v45.4Zm-.5-.5v-44.4H22.19v44.4h10.724ZM44.638 14.417H32.913v-45.4h11.725v45.4Zm-.5-.5v-44.4H33.413v44.4h10.725Z"/><path d="M44.638 59.316H32.913V13.917h11.725v45.4Zm-.5-.5V14.417H33.413v44.4h10.725Z"/><path d="M44.638 104.215H32.913V58.816h11.725v45.399Zm-.5-.5V59.316H33.413v44.399h10.725ZM55.862 36.867H44.138v-45.4h11.724v45.4Zm-.5-.5v-44.4H44.638v44.4h10.724Z"/><path d="M55.862 81.766H44.138v-45.4h11.724v45.4Zm-.5-.5v-44.4H44.638v44.4h10.724Z"/><path d="M55.862 126.665H44.138v-45.4h11.724v45.4Zm-.5-.5v-44.4H44.638v44.4h10.724ZM67.087 14.417H55.362v-45.4h11.725v45.4Zm-.5-.5v-44.4H55.862v44.4h10.725Z"/><path d="M67.087 59.316H55.362V13.917h11.725v45.4Zm-.5-.5V14.417H55.862v44.4h10.725Z"/><path d="M67.087 104.215H55.362V58.816h11.725v45.399Zm-.5-.5V59.316H55.862v44.399h10.725ZM78.311 36.867H66.587v-45.4h11.724v45.4Zm-.5-.5v-44.4H67.087v44.4h10.724Z"/><path d="M78.311 81.766H66.587v-45.4h11.724v45.4Zm-.5-.5v-44.4H67.087v44.4h10.724Z"/><path d="M78.311 126.665H66.587v-45.4h11.724v45.4Zm-.5-.5v-44.4H67.087v44.4h10.724ZM89.535 14.417H77.811v-45.4h11.724v45.4Zm-.5-.5v-44.4H78.311v44.4h10.724Z"/><path d="M89.535 59.316H77.811V13.917h11.724v45.4Zm-.5-.5V14.417H78.311v44.4h10.724Z"/><path d="M89.535 104.215H77.811V58.816h11.724v45.399Zm-.5-.5V59.316H78.311v44.399h10.724ZM100.76 36.867H89.035v-45.4h11.725v45.4Zm-.5-.5v-44.4H89.535v44.4h10.725Z"/><path d="M100.76 81.766H89.035v-45.4h11.725v45.4Zm-.5-.5v-44.4H89.535v44.4h10.725Z"/><path d="M100.76 126.665H89.035v-45.4h11.725v45.4Zm-.5-.5v-44.4H89.535v44.4h10.725Z"/></g></g><defs><clipPath id="a"><path fill="#fff" d="M0 0h100v100H0z"/></clipPath><clipPath id="b"><path fill="#fff" d="M-57-76h214v225.233H-57z"/></clipPath></defs></svg>