<svg width="100" height="100" viewBox="0 0 100 100" fill="none" xmlns="http://www.w3.org/2000/svg">
<g clip-path="url(#clip0_4206_8825)">
<rect width="100" height="100" fill="white"/>
<g clip-path="url(#clip1_4206_8825)">
<path d="M9.30627 -1.7287H-0.866211V38.9269H9.30627V-1.7287Z" stroke="#7D8FB3" stroke-width="0.5" stroke-miterlimit="10"/>
<path d="M19.4791 -1.7287H9.30664V38.9269H19.4791V-1.7287Z" stroke="#7D8FB3" stroke-width="0.5" stroke-miterlimit="10"/>
<path d="M29.651 -1.7287H19.4785V38.9269H29.651V-1.7287Z" stroke="#7D8FB3" stroke-width="0.5" stroke-miterlimit="10"/>
<path d="M39.8238 -1.7287H29.6514V38.9269H39.8238V-1.7287Z" stroke="#7D8FB3" stroke-width="0.5" stroke-miterlimit="10"/>
<path d="M49.9957 -1.7287H39.8232V38.9269H49.9957V-1.7287Z" stroke="#7D8FB3" stroke-width="0.5" stroke-miterlimit="10"/>
<path d="M60.1686 -1.7287H49.9961V38.9269H60.1686V-1.7287Z" stroke="#7D8FB3" stroke-width="0.5" stroke-miterlimit="10"/>
<path d="M70.3414 -1.7287H60.1689V38.9269H70.3414V-1.7287Z" stroke="#7D8FB3" stroke-width="0.5" stroke-miterlimit="10"/>
<path d="M80.5133 -1.7287H70.3408V38.9269H80.5133V-1.7287Z" stroke="#7D8FB3" stroke-width="0.5" stroke-miterlimit="10"/>
<path d="M90.6862 -1.7287H80.5137V38.9269H90.6862V-1.7287Z" stroke="#7D8FB3" stroke-width="0.5" stroke-miterlimit="10"/>
<path d="M100.858 -1.7287H90.6855V38.9269H100.858V-1.7287Z" stroke="#7D8FB3" stroke-width="0.5" stroke-miterlimit="10"/>
<path d="M-11.0371 38.927V49.0905H29.6543V38.927H-11.0371Z" stroke="#7D8FB3" stroke-width="0.5" stroke-miterlimit="10"/>
<path d="M29.6543 38.9269V49.0904H70.3457V38.9269H29.6543Z" stroke="#7D8FB3" stroke-width="0.5" stroke-miterlimit="10"/>
<path d="M70.3457 38.9268V49.0904H111.037V38.9268H70.3457Z" stroke="#7D8FB3" stroke-width="0.5" stroke-miterlimit="10"/>
<path d="M9.30627 49.0904H-0.866211V89.7459H9.30627V49.0904Z" stroke="#7D8FB3" stroke-width="0.5" stroke-miterlimit="10"/>
<path d="M19.4791 49.0904H9.30664V89.7459H19.4791V49.0904Z" stroke="#7D8FB3" stroke-width="0.5" stroke-miterlimit="10"/>
<path d="M29.651 49.0904H19.4785V89.7459H29.651V49.0904Z" stroke="#7D8FB3" stroke-width="0.5" stroke-miterlimit="10"/>
<path d="M39.8238 49.0904H29.6514V89.7459H39.8238V49.0904Z" stroke="#7D8FB3" stroke-width="0.5" stroke-miterlimit="10"/>
<path d="M49.9957 49.0904H39.8232V89.7459H49.9957V49.0904Z" stroke="#7D8FB3" stroke-width="0.5" stroke-miterlimit="10"/>
<path d="M60.1686 49.0904H49.9961V89.7459H60.1686V49.0904Z" stroke="#7D8FB3" stroke-width="0.5" stroke-miterlimit="10"/>
<path d="M70.3414 49.0904H60.1689V89.7459H70.3414V49.0904Z" stroke="#7D8FB3" stroke-width="0.5" stroke-miterlimit="10"/>
<path d="M80.5133 49.0904H70.3408V89.7459H80.5133V49.0904Z" stroke="#7D8FB3" stroke-width="0.5" stroke-miterlimit="10"/>
<path d="M90.6862 49.0904H80.5137V89.7459H90.6862V49.0904Z" stroke="#7D8FB3" stroke-width="0.5" stroke-miterlimit="10"/>
<path d="M100.858 49.0904H90.6855V89.7459H100.858V49.0904Z" stroke="#7D8FB3" stroke-width="0.5" stroke-miterlimit="10"/>
<path d="M-11.0371 89.7461V99.9096H29.6543V89.7461H-11.0371Z" stroke="#7D8FB3" stroke-width="0.5" stroke-miterlimit="10"/>
<path d="M29.6543 89.746V99.9095H70.3457V89.746H29.6543Z" stroke="#7D8FB3" stroke-width="0.5" stroke-miterlimit="10"/>
<path d="M70.3457 89.746V99.9096H111.037V89.746H70.3457Z" stroke="#7D8FB3" stroke-width="0.5" stroke-miterlimit="10"/>
<path d="M9.30627 99.9095H-0.866211V140.565H9.30627V99.9095Z" stroke="#7D8FB3" stroke-width="0.5" stroke-miterlimit="10"/>
<path d="M19.4791 99.9095H9.30664V140.565H19.4791V99.9095Z" stroke="#7D8FB3" stroke-width="0.5" stroke-miterlimit="10"/>
<path d="M29.651 99.9095H19.4785V140.565H29.651V99.9095Z" stroke="#7D8FB3" stroke-width="0.5" stroke-miterlimit="10"/>
<path d="M39.8238 99.9095H29.6514V140.565H39.8238V99.9095Z" stroke="#7D8FB3" stroke-width="0.5" stroke-miterlimit="10"/>
<path d="M49.9957 99.9095H39.8232V140.565H49.9957V99.9095Z" stroke="#7D8FB3" stroke-width="0.5" stroke-miterlimit="10"/>
<path d="M60.1686 99.9095H49.9961V140.565H60.1686V99.9095Z" stroke="#7D8FB3" stroke-width="0.5" stroke-miterlimit="10"/>
<path d="M70.3414 99.9095H60.1689V140.565H70.3414V99.9095Z" stroke="#7D8FB3" stroke-width="0.5" stroke-miterlimit="10"/>
<path d="M80.5133 99.9095H70.3408V140.565H80.5133V99.9095Z" stroke="#7D8FB3" stroke-width="0.5" stroke-miterlimit="10"/>
<path d="M90.6862 99.9095H80.5137V140.565H90.6862V99.9095Z" stroke="#7D8FB3" stroke-width="0.5" stroke-miterlimit="10"/>
<path d="M100.858 99.9095H90.6855V140.565H100.858V99.9095Z" stroke="#7D8FB3" stroke-width="0.5" stroke-miterlimit="10"/>
</g>
</g>
<rect x="1" y="1" width="98" height="98" stroke="#DFE3EB" stroke-width="2"/>
<defs>
<clipPath id="clip0_4206_8825">
<rect width="100" height="100" fill="white"/>
</clipPath>
<clipPath id="clip1_4206_8825">
<rect width="204" height="153" fill="white" transform="translate(-52 -2)"/>
</clipPath>
</defs>
</svg>
