<svg width="100" height="100" viewBox="0 0 100 100" fill="none" xmlns="http://www.w3.org/2000/svg">
<g clip-path="url(#clip0_4206_8099)">
<rect width="100" height="100" fill="white"/>
<g clip-path="url(#clip1_4206_8099)">
<path d="M-0.498417 31.8962H10.7236L10.7236 -12.9214H-0.498417L-0.498417 31.8962Z" stroke="#7D8FB3" stroke-width="0.5" stroke-miterlimit="10"/>
<path d="M-0.498417 76.7138H10.7236L10.7236 31.8962H-0.498417L-0.498417 76.7138Z" stroke="#7D8FB3" stroke-width="0.5" stroke-miterlimit="10"/>
<path d="M-0.498417 121.532H10.7236L10.7236 76.7139H-0.498417L-0.498417 121.532Z" stroke="#7D8FB3" stroke-width="0.5" stroke-miterlimit="10"/>
<path d="M10.7233 44.2339H21.9453L21.9453 -0.583847H10.7233L10.7233 44.2339Z" stroke="#7D8FB3" stroke-width="0.5" stroke-miterlimit="10"/>
<path d="M10.7233 89.0514H21.9453L21.9453 44.2337H10.7233L10.7233 89.0514Z" stroke="#7D8FB3" stroke-width="0.5" stroke-miterlimit="10"/>
<path d="M10.7233 133.869H21.9453L21.9453 89.0516H10.7233L10.7233 133.869Z" stroke="#7D8FB3" stroke-width="0.5" stroke-miterlimit="10"/>
<path d="M21.9449 56.5713H33.167L33.167 11.7536H21.9449L21.9449 56.5713Z" stroke="#7D8FB3" stroke-width="0.5" stroke-miterlimit="10"/>
<path d="M21.9449 101.389H33.167L33.167 56.5713H21.9449L21.9449 101.389Z" stroke="#7D8FB3" stroke-width="0.5" stroke-miterlimit="10"/>
<path d="M33.1666 68.9089H44.3887L44.3887 24.0911H33.1666L33.1666 68.9089Z" stroke="#7D8FB3" stroke-width="0.5" stroke-miterlimit="10"/>
<path d="M33.1666 113.727H44.3887L44.3887 68.9088H33.1666L33.1666 113.727Z" stroke="#7D8FB3" stroke-width="0.5" stroke-miterlimit="10"/>
<path d="M44.3893 81.2464H55.6113L55.6113 36.4288H44.3893L44.3893 81.2464Z" stroke="#7D8FB3" stroke-width="0.5" stroke-miterlimit="10"/>
<path d="M44.3893 126.064H55.6113L55.6113 81.2464H44.3893L44.3893 126.064Z" stroke="#7D8FB3" stroke-width="0.5" stroke-miterlimit="10"/>
<path d="M55.611 93.584H66.833V48.7663H55.611L55.611 93.584Z" stroke="#7D8FB3" stroke-width="0.5" stroke-miterlimit="10"/>
<path d="M55.611 138.402H66.833V93.584H55.611L55.611 138.402Z" stroke="#7D8FB3" stroke-width="0.5" stroke-miterlimit="10"/>
<path d="M66.8326 105.922H78.0547V61.1039H66.8326V105.922Z" stroke="#7D8FB3" stroke-width="0.5" stroke-miterlimit="10"/>
<path d="M78.0553 118.259H89.2773V73.4414H78.0553V118.259Z" stroke="#7D8FB3" stroke-width="0.5" stroke-miterlimit="10"/>
<path d="M89.277 130.597H100.499V85.779H89.277V130.597Z" stroke="#7D8FB3" stroke-width="0.5" stroke-miterlimit="10"/>
<path d="M21.9449 11.7536L33.167 11.7536L33.167 -33.0641H21.9449L21.9449 11.7536Z" stroke="#7D8FB3" stroke-width="0.5" stroke-miterlimit="10"/>
<path d="M33.1666 24.0911H44.3887L44.3887 -20.7265H33.1666L33.1666 24.0911Z" stroke="#7D8FB3" stroke-width="0.5" stroke-miterlimit="10"/>
<path d="M44.3893 36.4288H55.6113L55.6113 -8.38896H44.3893L44.3893 36.4288Z" stroke="#7D8FB3" stroke-width="0.5" stroke-miterlimit="10"/>
<path d="M55.611 3.94849L66.833 3.94849V-40.8692H55.611L55.611 3.94849Z" stroke="#7D8FB3" stroke-width="0.5" stroke-miterlimit="10"/>
<path d="M55.611 48.7663H66.833V3.94865H55.611L55.611 48.7663Z" stroke="#7D8FB3" stroke-width="0.5" stroke-miterlimit="10"/>
<path d="M66.8326 16.286H78.0547V-28.5316H66.8326V16.286Z" stroke="#7D8FB3" stroke-width="0.5" stroke-miterlimit="10"/>
<path d="M66.8326 61.1039H78.0547V16.2861H66.8326V61.1039Z" stroke="#7D8FB3" stroke-width="0.5" stroke-miterlimit="10"/>
<path d="M78.0553 28.6236H89.2773V-16.1941H78.0553V28.6236Z" stroke="#7D8FB3" stroke-width="0.5" stroke-miterlimit="10"/>
<path d="M78.0553 73.4414H89.2773V28.6238H78.0553V73.4414Z" stroke="#7D8FB3" stroke-width="0.5" stroke-miterlimit="10"/>
<path d="M89.277 40.9611H100.499V-3.85652H89.277V40.9611Z" stroke="#7D8FB3" stroke-width="0.5" stroke-miterlimit="10"/>
<path d="M89.277 85.7791H100.499V40.9613H89.277V85.7791Z" stroke="#7D8FB3" stroke-width="0.5" stroke-miterlimit="10"/>
</g>
</g>
<rect x="1" y="1" width="98" height="98" stroke="#DFE3EB" stroke-width="2"/>
<defs>
<clipPath id="clip0_4206_8099">
<rect width="100" height="100" fill="white"/>
</clipPath>
<clipPath id="clip1_4206_8099">
<rect width="214" height="243" fill="white" transform="translate(-57 -75)"/>
</clipPath>
</defs>
</svg>
