<svg width="100" height="100" viewBox="0 0 100 100" fill="none" xmlns="http://www.w3.org/2000/svg">
<g clip-path="url(#clip0_4206_9201)">
<rect width="100" height="100" fill="white"/>
<g clip-path="url(#clip1_4206_9201)">
<path d="M46.5777 20.1732H0.615234V27.0187H46.5777V20.1732Z" stroke="#7D8FB3" stroke-width="0.5" stroke-miterlimit="10"/>
<path d="M-6.23047 0.614834L-6.23047 46.5773H0.614975L0.614975 0.614834H-6.23047Z" stroke="#7D8FB3" stroke-width="0.5" stroke-miterlimit="10"/>
<path d="M20.1729 -25.7892L20.1729 20.1733H27.0183L27.0183 -25.7892H20.1729Z" stroke="#7D8FB3" stroke-width="0.5" stroke-miterlimit="10"/>
<path d="M20.1729 27.0188L20.1729 72.9812H27.0183L27.0183 27.0188H20.1729Z" stroke="#7D8FB3" stroke-width="0.5" stroke-miterlimit="10"/>
<path d="M20.1737 27.0188H0.615234V46.5773H20.1737V27.0188Z" stroke="#7D8FB3" stroke-width="0.5" stroke-miterlimit="10"/>
<path d="M20.1737 0.614746H0.615234V20.1732H20.1737V0.614746Z" stroke="#7D8FB3" stroke-width="0.5" stroke-miterlimit="10"/>
<path d="M46.577 27.0188H27.0186V46.5773H46.577V27.0188Z" stroke="#7D8FB3" stroke-width="0.5" stroke-miterlimit="10"/>
<path d="M46.5777 72.9812H0.615234V79.8267H46.5777V72.9812Z" stroke="#7D8FB3" stroke-width="0.5" stroke-miterlimit="10"/>
<path d="M-6.23047 53.4228L-6.23047 99.3853H0.614975L0.614975 53.4228H-6.23047Z" stroke="#7D8FB3" stroke-width="0.5" stroke-miterlimit="10"/>
<path d="M20.1729 79.8267L20.1729 125.789H27.0183L27.0183 79.8267H20.1729Z" stroke="#7D8FB3" stroke-width="0.5" stroke-miterlimit="10"/>
<path d="M20.1737 79.8267H0.615234V99.3852H20.1737V79.8267Z" stroke="#7D8FB3" stroke-width="0.5" stroke-miterlimit="10"/>
<path d="M46.577 79.8267H27.0186V99.3852H46.577V79.8267Z" stroke="#7D8FB3" stroke-width="0.5" stroke-miterlimit="10"/>
<path d="M20.1734 46.5773H-25.7891V53.4227H20.1734V46.5773Z" stroke="#7D8FB3" stroke-width="0.5" stroke-miterlimit="10"/>
<path d="M125.79 46.5773H79.8271V53.4227H125.79V46.5773Z" stroke="#7D8FB3" stroke-width="0.5" stroke-miterlimit="10"/>
<path d="M72.981 46.5773H27.0186V53.4227H72.981V46.5773Z" stroke="#7D8FB3" stroke-width="0.5" stroke-miterlimit="10"/>
<path d="M20.1737 53.4227H0.615234V72.9812H20.1737V53.4227Z" stroke="#7D8FB3" stroke-width="0.5" stroke-miterlimit="10"/>
<path d="M99.3853 20.1732H53.4229V27.0187H99.3853V20.1732Z" stroke="#7D8FB3" stroke-width="0.5" stroke-miterlimit="10"/>
<path d="M46.5771 0.614834V46.5773H53.4226V0.614834H46.5771Z" stroke="#7D8FB3" stroke-width="0.5" stroke-miterlimit="10"/>
<path d="M72.9813 27.0188H53.4229V46.5773H72.9813V27.0188Z" stroke="#7D8FB3" stroke-width="0.5" stroke-miterlimit="10"/>
<path d="M72.9813 0.614746H53.4229V20.1732H72.9813V0.614746Z" stroke="#7D8FB3" stroke-width="0.5" stroke-miterlimit="10"/>
<path d="M99.3853 72.9812H53.4229V79.8267H99.3853V72.9812Z" stroke="#7D8FB3" stroke-width="0.5" stroke-miterlimit="10"/>
<path d="M46.5771 53.4227V99.3851H53.4226V53.4227H46.5771Z" stroke="#7D8FB3" stroke-width="0.5" stroke-miterlimit="10"/>
<path d="M72.9813 79.8267H53.4229V99.3852H72.9813V79.8267Z" stroke="#7D8FB3" stroke-width="0.5" stroke-miterlimit="10"/>
<path d="M72.9813 53.4227H53.4229V72.9812H72.9813V53.4227Z" stroke="#7D8FB3" stroke-width="0.5" stroke-miterlimit="10"/>
<path d="M46.577 53.4227H27.0186V72.9812H46.577V53.4227Z" stroke="#7D8FB3" stroke-width="0.5" stroke-miterlimit="10"/>
<path d="M72.9814 27.0188V72.9812H79.8269V27.0188H72.9814Z" stroke="#7D8FB3" stroke-width="0.5" stroke-miterlimit="10"/>
<path d="M99.3856 27.0188H79.8271V46.5773H99.3856V27.0188Z" stroke="#7D8FB3" stroke-width="0.5" stroke-miterlimit="10"/>
<path d="M72.9814 79.8267V125.789H79.8269V79.8267H72.9814Z" stroke="#7D8FB3" stroke-width="0.5" stroke-miterlimit="10"/>
<path d="M99.3856 79.8267H79.8271V99.3852H99.3856V79.8267Z" stroke="#7D8FB3" stroke-width="0.5" stroke-miterlimit="10"/>
<path d="M99.3856 53.4227H79.8271V72.9812H99.3856V53.4227Z" stroke="#7D8FB3" stroke-width="0.5" stroke-miterlimit="10"/>
<path d="M20.1734 99.3853H-25.7891V106.231H20.1734V99.3853Z" stroke="#7D8FB3" stroke-width="0.5" stroke-miterlimit="10"/>
<path d="M125.79 99.3853H79.8271V106.231H125.79V99.3853Z" stroke="#7D8FB3" stroke-width="0.5" stroke-miterlimit="10"/>
<path d="M72.981 99.3853H27.0186V106.231H72.981V99.3853Z" stroke="#7D8FB3" stroke-width="0.5" stroke-miterlimit="10"/>
<path d="M46.577 0.614746H27.0186V20.1732H46.577V0.614746Z" stroke="#7D8FB3" stroke-width="0.5" stroke-miterlimit="10"/>
<path d="M72.9814 -25.7891V20.1733H79.8269V-25.7891H72.9814Z" stroke="#7D8FB3" stroke-width="0.5" stroke-miterlimit="10"/>
<path d="M99.3856 0.614746H79.8271V20.1732H99.3856V0.614746Z" stroke="#7D8FB3" stroke-width="0.5" stroke-miterlimit="10"/>
</g>
</g>
<rect x="1" y="1" width="98" height="98" stroke="#DFE3EB" stroke-width="2"/>
<defs>
<clipPath id="clip0_4206_9201">
<rect width="100" height="100" fill="white"/>
</clipPath>
<clipPath id="clip1_4206_9201">
<rect width="152" height="152" fill="white" transform="translate(-26 -26)"/>
</clipPath>
</defs>
</svg>
