<svg width="100" height="100" viewBox="0 0 100 100" fill="none" xmlns="http://www.w3.org/2000/svg">
<g clip-path="url(#clip0_4206_9093)">
<rect width="100" height="100" fill="white"/>
<g clip-path="url(#clip1_4206_9093)">
<path d="M7.22563 3.27344L-20.7588 31.2816L-16.5909 35.453L11.3935 7.44486L7.22563 3.27344Z" stroke="#7D8FB3" stroke-width="0.5" stroke-miterlimit="10"/>
<path d="M35.21 -24.7348L7.22559 3.27338L11.3935 7.44483L39.3779 -20.5634L35.21 -24.7348Z" stroke="#7D8FB3" stroke-width="0.5" stroke-miterlimit="10"/>
<path d="M-6.76654 25.6204L-18.6748 37.5388L-6.76654 49.4571L5.14173 37.5388L-6.76654 25.6204Z" stroke="#7D8FB3" stroke-width="0.5" stroke-miterlimit="10"/>
<path d="M5.14168 13.7019L-6.7666 25.6203L5.14167 37.5387L17.05 25.6203L5.14168 13.7019Z" stroke="#7D8FB3" stroke-width="0.5" stroke-miterlimit="10"/>
<path d="M17.0499 1.78359L5.1416 13.702L17.0499 25.6203L28.9581 13.702L17.0499 1.78359Z" stroke="#7D8FB3" stroke-width="0.5" stroke-miterlimit="10"/>
<path d="M28.9581 -10.1348L17.0498 1.78357L28.9581 13.702L40.8664 1.7836L28.9581 -10.1348Z" stroke="#7D8FB3" stroke-width="0.5" stroke-miterlimit="10"/>
<path d="M40.8663 -22.0533L28.958 -10.1349L40.8663 1.78349L52.7746 -10.1349L40.8663 -22.0533Z" stroke="#7D8FB3" stroke-width="0.5" stroke-miterlimit="10"/>
<path d="M23.3018 19.3632L-4.68262 47.3714L-0.514739 51.5428L27.4697 23.5346L23.3018 19.3632Z" stroke="#7D8FB3" stroke-width="0.5" stroke-miterlimit="10"/>
<path d="M51.2862 -8.64503L23.3018 19.3632L27.4696 23.5346L55.4541 -4.47362L51.2862 -8.64503Z" stroke="#7D8FB3" stroke-width="0.5" stroke-miterlimit="10"/>
<path d="M-2.59857 53.6286L-14.5068 65.5469L-2.59857 77.4653L9.3097 65.5469L-2.59857 53.6286Z" stroke="#7D8FB3" stroke-width="0.5" stroke-miterlimit="10"/>
<path d="M9.30965 41.7101L-2.59863 53.6285L9.30967 65.5469L21.218 53.6285L9.30965 41.7101Z" stroke="#7D8FB3" stroke-width="0.5" stroke-miterlimit="10"/>
<path d="M21.2178 29.7918L9.30957 41.7101L21.2178 53.6285L33.1261 41.7101L21.2178 29.7918Z" stroke="#7D8FB3" stroke-width="0.5" stroke-miterlimit="10"/>
<path d="M33.126 17.8734L21.2178 29.7917L33.126 41.7101L45.0343 29.7917L33.126 17.8734Z" stroke="#7D8FB3" stroke-width="0.5" stroke-miterlimit="10"/>
<path d="M45.0342 5.95503L33.126 17.8734L45.0342 29.7918L56.9425 17.8734L45.0342 5.95503Z" stroke="#7D8FB3" stroke-width="0.5" stroke-miterlimit="10"/>
<path d="M56.9424 -5.96336L45.0342 5.95502L56.9425 17.8734L68.8507 5.95505L56.9424 -5.96336Z" stroke="#7D8FB3" stroke-width="0.5" stroke-miterlimit="10"/>
<path d="M68.8507 -17.8818L56.9424 -5.96338L68.8507 5.955L80.7589 -5.96338L68.8507 -17.8818Z" stroke="#7D8FB3" stroke-width="0.5" stroke-miterlimit="10"/>
<path d="M11.3936 63.4612L-16.5908 91.4694L-12.4229 95.6408L15.5615 67.6327L11.3936 63.4612Z" stroke="#7D8FB3" stroke-width="0.5" stroke-miterlimit="10"/>
<path d="M39.378 35.453L11.3936 63.4612L15.5614 67.6326L43.5459 39.6244L39.378 35.453Z" stroke="#7D8FB3" stroke-width="0.5" stroke-miterlimit="10"/>
<path d="M95.3467 -20.5634L67.3623 7.44482L71.5302 11.6162L99.5146 -16.392L95.3467 -20.5634Z" stroke="#7D8FB3" stroke-width="0.5" stroke-miterlimit="10"/>
<path d="M67.3624 7.44487L39.3779 35.4531L43.5458 39.6245L71.5302 11.6163L67.3624 7.44487Z" stroke="#7D8FB3" stroke-width="0.5" stroke-miterlimit="10"/>
<path d="M1.5694 81.6367L-10.3389 93.5551L1.5694 105.473L13.4777 93.5551L1.5694 81.6367Z" stroke="#7D8FB3" stroke-width="0.5" stroke-miterlimit="10"/>
<path d="M13.4776 69.7183L1.56934 81.6367L13.4776 93.5551L25.3859 81.6367L13.4776 69.7183Z" stroke="#7D8FB3" stroke-width="0.5" stroke-miterlimit="10"/>
<path d="M25.3858 57.8L13.4775 69.7184L25.3858 81.6368L37.2941 69.7184L25.3858 57.8Z" stroke="#7D8FB3" stroke-width="0.5" stroke-miterlimit="10"/>
<path d="M37.294 45.8816L25.3857 57.8L37.294 69.7184L49.2023 57.8L37.294 45.8816Z" stroke="#7D8FB3" stroke-width="0.5" stroke-miterlimit="10"/>
<path d="M49.2022 33.9632L37.2939 45.8816L49.2022 57.8L61.1105 45.8816L49.2022 33.9632Z" stroke="#7D8FB3" stroke-width="0.5" stroke-miterlimit="10"/>
<path d="M61.1104 22.0449L49.2021 33.9633L61.1104 45.8816L73.0187 33.9632L61.1104 22.0449Z" stroke="#7D8FB3" stroke-width="0.5" stroke-miterlimit="10"/>
<path d="M73.0186 10.1264L61.1104 22.0448L73.0186 33.9632L84.9269 22.0448L73.0186 10.1264Z" stroke="#7D8FB3" stroke-width="0.5" stroke-miterlimit="10"/>
<path d="M84.9268 -1.79191L73.0186 10.1265L84.9268 22.0448L96.8351 10.1265L84.9268 -1.79191Z" stroke="#7D8FB3" stroke-width="0.5" stroke-miterlimit="10"/>
<path d="M27.4698 79.5511L-0.514648 107.559L3.65326 111.731L31.6377 83.7225L27.4698 79.5511Z" stroke="#7D8FB3" stroke-width="0.5" stroke-miterlimit="10"/>
<path d="M55.4542 51.5428L27.4697 79.551L31.6376 83.7224L59.6221 55.7142L55.4542 51.5428Z" stroke="#7D8FB3" stroke-width="0.5" stroke-miterlimit="10"/>
<path d="M111.423 -4.47359L83.4385 23.5346L87.6064 27.7061L115.591 -0.302137L111.423 -4.47359Z" stroke="#7D8FB3" stroke-width="0.5" stroke-miterlimit="10"/>
<path d="M83.4385 23.5347L55.4541 51.5428L59.622 55.7143L87.6064 27.7061L83.4385 23.5347Z" stroke="#7D8FB3" stroke-width="0.5" stroke-miterlimit="10"/>
<path d="M17.6456 97.7266L5.7373 109.645L17.6456 121.563L29.5538 109.645L17.6456 97.7266Z" stroke="#7D8FB3" stroke-width="0.5" stroke-miterlimit="10"/>
<path d="M29.5538 85.8082L17.6455 97.7266L29.5538 109.645L41.462 97.7266L29.5538 85.8082Z" stroke="#7D8FB3" stroke-width="0.5" stroke-miterlimit="10"/>
<path d="M41.462 73.8898L29.5537 85.8082L41.462 97.7266L53.3702 85.8082L41.462 73.8898Z" stroke="#7D8FB3" stroke-width="0.5" stroke-miterlimit="10"/>
<path d="M53.3702 61.9715L41.4619 73.8898L53.3702 85.8082L65.2785 73.8898L53.3702 61.9715Z" stroke="#7D8FB3" stroke-width="0.5" stroke-miterlimit="10"/>
<path d="M65.2784 50.053L53.3701 61.9714L65.2784 73.8898L77.1867 61.9714L65.2784 50.053Z" stroke="#7D8FB3" stroke-width="0.5" stroke-miterlimit="10"/>
<path d="M77.1866 38.1347L65.2783 50.053L77.1866 61.9714L89.0949 50.053L77.1866 38.1347Z" stroke="#7D8FB3" stroke-width="0.5" stroke-miterlimit="10"/>
<path d="M89.0948 26.2162L77.1865 38.1346L89.0948 50.053L101.003 38.1346L89.0948 26.2162Z" stroke="#7D8FB3" stroke-width="0.5" stroke-miterlimit="10"/>
<path d="M101.003 14.2979L89.0947 26.2163L101.003 38.1347L112.911 26.2163L101.003 14.2979Z" stroke="#7D8FB3" stroke-width="0.5" stroke-miterlimit="10"/>
<path d="M43.546 95.6409L15.5615 123.649L19.7294 127.82L47.7138 99.8123L43.546 95.6409Z" stroke="#7D8FB3" stroke-width="0.5" stroke-miterlimit="10"/>
<path d="M71.5303 67.6326L43.5459 95.6408L47.7138 99.8122L75.6982 71.804L71.5303 67.6326Z" stroke="#7D8FB3" stroke-width="0.5" stroke-miterlimit="10"/>
<path d="M127.499 11.6163L99.5146 39.6245L103.683 43.7959L131.667 15.7877L127.499 11.6163Z" stroke="#7D8FB3" stroke-width="0.5" stroke-miterlimit="10"/>
<path d="M99.5147 39.6245L71.5303 67.6327L75.6982 71.8041L103.683 43.7959L99.5147 39.6245Z" stroke="#7D8FB3" stroke-width="0.5" stroke-miterlimit="10"/>
<path d="M57.5382 89.9797L45.6299 101.898L57.5382 113.816L69.4464 101.898L57.5382 89.9797Z" stroke="#7D8FB3" stroke-width="0.5" stroke-miterlimit="10"/>
<path d="M69.4464 78.0612L57.5381 89.9796L69.4464 101.898L81.3547 89.9796L69.4464 78.0612Z" stroke="#7D8FB3" stroke-width="0.5" stroke-miterlimit="10"/>
<path d="M81.3546 66.1428L69.4463 78.0612L81.3546 89.9796L93.2628 78.0612L81.3546 66.1428Z" stroke="#7D8FB3" stroke-width="0.5" stroke-miterlimit="10"/>
<path d="M93.2628 54.2244L81.3545 66.1428L93.2628 78.0612L105.171 66.1428L93.2628 54.2244Z" stroke="#7D8FB3" stroke-width="0.5" stroke-miterlimit="10"/>
<path d="M105.171 42.3061L93.2627 54.2245L105.171 66.1429L117.079 54.2245L105.171 42.3061Z" stroke="#7D8FB3" stroke-width="0.5" stroke-miterlimit="10"/>
<path d="M87.6065 83.7226L59.6221 111.731L63.79 115.902L91.7744 87.894L87.6065 83.7226Z" stroke="#7D8FB3" stroke-width="0.5" stroke-miterlimit="10"/>
<path d="M115.591 55.7143L87.6064 83.7225L91.7743 87.8939L119.759 59.8857L115.591 55.7143Z" stroke="#7D8FB3" stroke-width="0.5" stroke-miterlimit="10"/>
<path d="M85.5225 94.1511L73.6143 106.069L85.5225 117.988L97.4308 106.069L85.5225 94.1511Z" stroke="#7D8FB3" stroke-width="0.5" stroke-miterlimit="10"/>
<path d="M97.4307 82.2327L85.5225 94.1511L97.4307 106.069L109.339 94.151L97.4307 82.2327Z" stroke="#7D8FB3" stroke-width="0.5" stroke-miterlimit="10"/>
<path d="M109.339 70.3143L97.4307 82.2327L109.339 94.1511L121.247 82.2327L109.339 70.3143Z" stroke="#7D8FB3" stroke-width="0.5" stroke-miterlimit="10"/>
</g>
</g>
<rect x="1" y="1" width="98" height="98" stroke="#DFE3EB" stroke-width="2"/>
<defs>
<clipPath id="clip0_4206_9093">
<rect width="100" height="100" fill="white"/>
</clipPath>
<clipPath id="clip1_4206_9093">
<rect width="197" height="207" fill="white" transform="translate(-49 -53)"/>
</clipPath>
</defs>
</svg>
