<svg width="100" height="100" viewBox="0 0 100 100" fill="none" xmlns="http://www.w3.org/2000/svg">
<g clip-path="url(#clip0_4206_8736)">
<rect width="100" height="100" fill="white"/>
<g clip-path="url(#clip1_4206_8736)">
<path d="M0.406119 22.4512H11.4268L11.4268 -21.6465H0.406119L0.406119 22.4512Z" stroke="#7D8FB3" stroke-width="0.5" stroke-miterlimit="10"/>
<path d="M-10.6144 22.4512H0.40625L0.40625 -21.6465H-10.6144L-10.6144 22.4512Z" stroke="#7D8FB3" stroke-width="0.5" stroke-miterlimit="10"/>
<path d="M11.4268 33.4753V22.4512L-32.6572 22.4512V33.4753H11.4268Z" stroke="#7D8FB3" stroke-width="0.5" stroke-miterlimit="10"/>
<path d="M11.4268 44.4992V33.4752H-32.6572V44.4992H11.4268Z" stroke="#7D8FB3" stroke-width="0.5" stroke-miterlimit="10"/>
<path d="M11.4268 55.5233V44.4992H-32.6572V55.5233H11.4268Z" stroke="#7D8FB3" stroke-width="0.5" stroke-miterlimit="10"/>
<path d="M0.406119 99.6208H11.4268L11.4268 55.5232H0.406119L0.406119 99.6208Z" stroke="#7D8FB3" stroke-width="0.5" stroke-miterlimit="10"/>
<path d="M-10.6144 99.6208H0.40625L0.40625 55.5232H-10.6144L-10.6144 99.6208Z" stroke="#7D8FB3" stroke-width="0.5" stroke-miterlimit="10"/>
<path d="M11.4268 110.645V99.621H-32.6573V110.645H11.4268Z" stroke="#7D8FB3" stroke-width="0.5" stroke-miterlimit="10"/>
<path d="M77.5526 22.4512H88.5732V-21.6465H77.5526V22.4512Z" stroke="#7D8FB3" stroke-width="0.5" stroke-miterlimit="10"/>
<path d="M66.5321 22.4512H77.5527V-21.6465H66.5321V22.4512Z" stroke="#7D8FB3" stroke-width="0.5" stroke-miterlimit="10"/>
<path d="M55.5106 22.4512H66.5312V-21.6465H55.5106L55.5106 22.4512Z" stroke="#7D8FB3" stroke-width="0.5" stroke-miterlimit="10"/>
<path d="M11.4268 11.4271V22.4511L55.5108 22.4511V11.4271L11.4268 11.4271Z" stroke="#7D8FB3" stroke-width="0.5" stroke-miterlimit="10"/>
<path d="M11.4268 0.403007V11.4271L55.5108 11.4271V0.403007L11.4268 0.403007Z" stroke="#7D8FB3" stroke-width="0.5" stroke-miterlimit="10"/>
<path d="M11.4268 -10.6209V0.403137L55.5108 0.403137V-10.6209L11.4268 -10.6209Z" stroke="#7D8FB3" stroke-width="0.5" stroke-miterlimit="10"/>
<path d="M22.4474 22.4511H11.4268V66.5488H22.4474V22.4511Z" stroke="#7D8FB3" stroke-width="0.5" stroke-miterlimit="10"/>
<path d="M33.4679 22.4511H22.4473V66.5488H33.4679V22.4511Z" stroke="#7D8FB3" stroke-width="0.5" stroke-miterlimit="10"/>
<path d="M44.4884 22.4511H33.4678V66.5488H44.4884V22.4511Z" stroke="#7D8FB3" stroke-width="0.5" stroke-miterlimit="10"/>
<path d="M88.5732 33.4752V22.4511L44.4892 22.4511V33.4752H88.5732Z" stroke="#7D8FB3" stroke-width="0.5" stroke-miterlimit="10"/>
<path d="M88.5732 44.4992V33.4752H44.4892V44.4992H88.5732Z" stroke="#7D8FB3" stroke-width="0.5" stroke-miterlimit="10"/>
<path d="M88.5732 55.5233V44.4992H44.4892V55.5233H88.5732Z" stroke="#7D8FB3" stroke-width="0.5" stroke-miterlimit="10"/>
<path d="M77.5526 99.6208H88.5732V55.5232H77.5526V99.6208Z" stroke="#7D8FB3" stroke-width="0.5" stroke-miterlimit="10"/>
<path d="M66.5321 99.6208H77.5527V55.5232H66.5321V99.6208Z" stroke="#7D8FB3" stroke-width="0.5" stroke-miterlimit="10"/>
<path d="M55.5106 99.6208H66.5312V55.5232H55.5106L55.5106 99.6208Z" stroke="#7D8FB3" stroke-width="0.5" stroke-miterlimit="10"/>
<path d="M11.4268 88.5968V99.6208H55.5108V88.5968H11.4268Z" stroke="#7D8FB3" stroke-width="0.5" stroke-miterlimit="10"/>
<path d="M11.4268 77.5729V88.5969H55.5107V77.5729H11.4268Z" stroke="#7D8FB3" stroke-width="0.5" stroke-miterlimit="10"/>
<path d="M11.4268 66.5488V77.5728H55.5108V66.5488H11.4268Z" stroke="#7D8FB3" stroke-width="0.5" stroke-miterlimit="10"/>
<path d="M22.4474 99.6208H11.4268V143.719H22.4474V99.6208Z" stroke="#7D8FB3" stroke-width="0.5" stroke-miterlimit="10"/>
<path d="M33.4679 99.6208H22.4473V143.719H33.4679V99.6208Z" stroke="#7D8FB3" stroke-width="0.5" stroke-miterlimit="10"/>
<path d="M44.4884 99.6208H33.4678V143.719H44.4884V99.6208Z" stroke="#7D8FB3" stroke-width="0.5" stroke-miterlimit="10"/>
<path d="M88.5732 110.645V99.621H44.4892V110.645H88.5732Z" stroke="#7D8FB3" stroke-width="0.5" stroke-miterlimit="10"/>
<path d="M88.5732 11.4271V22.4511L132.657 22.4511V11.4271L88.5732 11.4271Z" stroke="#7D8FB3" stroke-width="0.5" stroke-miterlimit="10"/>
<path d="M88.5732 0.403129V11.4272L132.657 11.4272V0.403129L88.5732 0.403129Z" stroke="#7D8FB3" stroke-width="0.5" stroke-miterlimit="10"/>
<path d="M88.5732 -10.6209V0.403137L132.657 0.403137V-10.6209L88.5732 -10.6209Z" stroke="#7D8FB3" stroke-width="0.5" stroke-miterlimit="10"/>
<path d="M99.5939 22.4511H88.5732V66.5488H99.5939V22.4511Z" stroke="#7D8FB3" stroke-width="0.5" stroke-miterlimit="10"/>
<path d="M110.614 22.4511H99.5938V66.5488H110.614V22.4511Z" stroke="#7D8FB3" stroke-width="0.5" stroke-miterlimit="10"/>
<path d="M88.5732 88.5968V99.6208H132.657V88.5968H88.5732Z" stroke="#7D8FB3" stroke-width="0.5" stroke-miterlimit="10"/>
<path d="M88.5732 77.5729V88.5969H132.657V77.5729H88.5732Z" stroke="#7D8FB3" stroke-width="0.5" stroke-miterlimit="10"/>
<path d="M88.5732 66.5488V77.5729H132.657V66.5488H88.5732Z" stroke="#7D8FB3" stroke-width="0.5" stroke-miterlimit="10"/>
<path d="M99.5939 99.6208H88.5732V143.719H99.5939V99.6208Z" stroke="#7D8FB3" stroke-width="0.5" stroke-miterlimit="10"/>
<path d="M110.614 99.6208H99.5938V143.719H110.614V99.6208Z" stroke="#7D8FB3" stroke-width="0.5" stroke-miterlimit="10"/>
</g>
</g>
<rect x="1" y="1" width="98" height="98" stroke="#DFE3EB" stroke-width="2"/>
<defs>
<clipPath id="clip0_4206_8736">
<rect width="100" height="100" fill="white"/>
</clipPath>
<clipPath id="clip1_4206_8736">
<rect width="232" height="199" fill="white" transform="translate(-66 -55)"/>
</clipPath>
</defs>
</svg>
