<svg width="100" height="100" viewBox="0 0 100 100" fill="none" xmlns="http://www.w3.org/2000/svg">
<g clip-path="url(#clip0_4206_8330)">
<rect width="100" height="100" fill="white"/>
<g clip-path="url(#clip1_4206_8330)">
<path d="M135.685 -4.04635L126.758 -12.9265L90.6104 23.0316L99.5373 31.9117L135.685 -4.04635Z" stroke="#7D8FB3" stroke-width="0.5125" stroke-miterlimit="10"/>
<path d="M9.82921 14.589L0.902344 5.70886L-35.2451 41.6669L-26.3182 50.547L9.82921 14.589Z" stroke="#7D8FB3" stroke-width="0.5125" stroke-miterlimit="10"/>
<path d="M45.9767 -21.3691L37.0498 -30.2492L0.902399 5.70882L9.82927 14.5889L45.9767 -21.3691Z" stroke="#7D8FB3" stroke-width="0.5125" stroke-miterlimit="10"/>
<path d="M36.8302 5.49008L27.9033 -3.39001L-8.24408 32.568L0.682775 41.4481L36.8302 5.49008Z" stroke="#7D8FB3" stroke-width="0.5125" stroke-miterlimit="10"/>
<path d="M27.6827 32.3491L18.7559 23.469L-17.3915 59.427L-8.46467 68.3071L27.6827 32.3491Z" stroke="#7D8FB3" stroke-width="0.5125" stroke-miterlimit="10"/>
<path d="M63.8302 -3.60888L54.9033 -12.489L18.7559 23.469L27.6828 32.3491L63.8302 -3.60888Z" stroke="#7D8FB3" stroke-width="0.5125" stroke-miterlimit="10"/>
<path d="M18.5362 59.2083L9.60938 50.3282L-26.538 86.2862L-17.6112 95.1663L18.5362 59.2083Z" stroke="#7D8FB3" stroke-width="0.5125" stroke-miterlimit="10"/>
<path d="M54.6837 23.2503L45.7568 14.3702L9.60944 50.3282L18.5363 59.2083L54.6837 23.2503Z" stroke="#7D8FB3" stroke-width="0.5125" stroke-miterlimit="10"/>
<path d="M90.8312 -12.7078L81.9043 -21.5879L45.7569 14.3701L54.6838 23.2502L90.8312 -12.7078Z" stroke="#7D8FB3" stroke-width="0.5125" stroke-miterlimit="10"/>
<path d="M117.831 -21.8067L108.904 -30.6868L72.7569 5.27125L81.6838 14.1513L117.831 -21.8067Z" stroke="#7D8FB3" stroke-width="0.5125" stroke-miterlimit="10"/>
<path d="M9.38878 86.0674L0.461914 77.1873L-35.6855 113.145L-26.7586 122.025L9.38878 86.0674Z" stroke="#7D8FB3" stroke-width="0.5125" stroke-miterlimit="10"/>
<path d="M45.5362 50.1093L36.6094 41.2292L0.461981 77.1873L9.38884 86.0674L45.5362 50.1093Z" stroke="#7D8FB3" stroke-width="0.5125" stroke-miterlimit="10"/>
<path d="M81.6837 14.1513L72.7568 5.27124L36.6094 41.2293L45.5363 50.1094L81.6837 14.1513Z" stroke="#7D8FB3" stroke-width="0.5125" stroke-miterlimit="10"/>
<path d="M36.3898 76.9685L27.4629 68.0884L-8.68452 104.046L0.242346 112.927L36.3898 76.9685Z" stroke="#7D8FB3" stroke-width="0.5125" stroke-miterlimit="10"/>
<path d="M72.5372 41.0105L63.6104 32.1304L27.4629 68.0884L36.3898 76.9685L72.5372 41.0105Z" stroke="#7D8FB3" stroke-width="0.5125" stroke-miterlimit="10"/>
<path d="M108.685 5.05246L99.7578 -3.82764L63.6104 32.1304L72.5373 41.0105L108.685 5.05246Z" stroke="#7D8FB3" stroke-width="0.5125" stroke-miterlimit="10"/>
<path d="M63.3907 67.8696L54.4639 58.9895L18.3165 94.9475L27.2433 103.828L63.3907 67.8696Z" stroke="#7D8FB3" stroke-width="0.5125" stroke-miterlimit="10"/>
<path d="M99.5382 31.9116L90.6113 23.0316L54.4639 58.9896L63.3908 67.8697L99.5382 31.9116Z" stroke="#7D8FB3" stroke-width="0.5125" stroke-miterlimit="10"/>
<path d="M54.2433 94.7287L45.3164 85.8486L9.16901 121.807L18.0959 130.687L54.2433 94.7287Z" stroke="#7D8FB3" stroke-width="0.5125" stroke-miterlimit="10"/>
<path d="M90.3907 58.7707L81.4639 49.8906L45.3165 85.8486L54.2433 94.7287L90.3907 58.7707Z" stroke="#7D8FB3" stroke-width="0.5125" stroke-miterlimit="10"/>
<path d="M126.538 22.8127L117.611 13.9326L81.4639 49.8906L90.3908 58.7707L126.538 22.8127Z" stroke="#7D8FB3" stroke-width="0.5125" stroke-miterlimit="10"/>
<path d="M81.2443 85.6299L72.3174 76.7498L36.17 112.708L45.0969 121.588L81.2443 85.6299Z" stroke="#7D8FB3" stroke-width="0.5125" stroke-miterlimit="10"/>
<path d="M117.392 49.6718L108.465 40.7917L72.3174 76.7498L81.2443 85.6299L117.392 49.6718Z" stroke="#7D8FB3" stroke-width="0.5125" stroke-miterlimit="10"/>
<path d="M108.244 76.531L99.3174 67.6509L63.17 103.609L72.0968 112.489L108.244 76.531Z" stroke="#7D8FB3" stroke-width="0.5125" stroke-miterlimit="10"/>
</g>
</g>
<rect x="1" y="1" width="98" height="98" stroke="#DADEE6" stroke-width="2"/>
<defs>
<clipPath id="clip0_4206_8330">
<rect width="100" height="100" fill="white"/>
</clipPath>
<clipPath id="clip1_4206_8330">
<rect width="172" height="162" fill="white" transform="translate(-36 -31)"/>
</clipPath>
</defs>
</svg>
