<svg width="100" height="100" viewBox="0 0 100 100" fill="none" xmlns="http://www.w3.org/2000/svg">
<g clip-path="url(#clip0_4206_8899)">
<rect width="100" height="100" fill="white"/>
<g clip-path="url(#clip1_4206_8899)">
<path d="M17.2141 8.52463L23.1104 2.62842L-0.475397 -20.9573L-6.37161 -15.0611L17.2141 8.52463Z" stroke="#7D8FB3" stroke-width="0.5" stroke-miterlimit="10"/>
<path d="M11.3177 14.4209L17.2139 8.52466L-6.37192 -15.0611L-12.2681 -9.16492L11.3177 14.4209Z" stroke="#7D8FB3" stroke-width="0.5" stroke-miterlimit="10"/>
<path d="M-24.0612 26.2137L-18.165 32.1099L5.42071 8.52412L-0.475501 2.6279L-24.0612 26.2137Z" stroke="#7D8FB3" stroke-width="0.5" stroke-miterlimit="10"/>
<path d="M5.42062 43.9024L-0.475586 38.0062L-24.0613 61.5919L-18.1651 67.4881L5.42062 43.9024Z" stroke="#7D8FB3" stroke-width="0.5" stroke-miterlimit="10"/>
<path d="M17.2141 79.281L23.1104 73.3848L-0.475397 49.7991L-6.37161 55.6953L17.2141 79.281Z" stroke="#7D8FB3" stroke-width="0.5" stroke-miterlimit="10"/>
<path d="M11.3177 85.1772L17.2139 79.281L-6.37188 55.6953L-12.2681 61.5915L11.3177 85.1772Z" stroke="#7D8FB3" stroke-width="0.5" stroke-miterlimit="10"/>
<path d="M-24.0612 96.9702L-18.165 102.866L5.42075 79.2806L-0.475458 73.3844L-24.0612 96.9702Z" stroke="#7D8FB3" stroke-width="0.5" stroke-miterlimit="10"/>
<path d="M-6.37234 20.3171L-12.2686 26.2133L11.3172 49.7991L17.2134 43.9029L-6.37234 20.3171Z" stroke="#7D8FB3" stroke-width="0.5" stroke-miterlimit="10"/>
<path d="M-0.47586 14.4209L-6.37207 20.3171L17.2137 43.9029L23.1099 38.0067L-0.47586 14.4209Z" stroke="#7D8FB3" stroke-width="0.5" stroke-miterlimit="10"/>
<path d="M34.903 2.62796L29.0068 -3.26825L5.42109 20.3175L11.3173 26.2137L34.903 2.62796Z" stroke="#7D8FB3" stroke-width="0.5" stroke-miterlimit="10"/>
<path d="M40.7985 8.52419L34.9023 2.62799L11.3166 26.2137L17.2128 32.1099L40.7985 8.52419Z" stroke="#7D8FB3" stroke-width="0.5" stroke-miterlimit="10"/>
<path d="M52.5921 43.9029L58.4883 38.0067L34.9025 14.4209L29.0063 20.3171L52.5921 43.9029Z" stroke="#7D8FB3" stroke-width="0.5" stroke-miterlimit="10"/>
<path d="M46.6956 49.799L52.5918 43.9028L29.006 20.3171L23.1098 26.2133L46.6956 49.799Z" stroke="#7D8FB3" stroke-width="0.5" stroke-miterlimit="10"/>
<path d="M11.3167 61.592L17.2129 67.4882L40.7986 43.9024L34.9024 38.0062L11.3167 61.592Z" stroke="#7D8FB3" stroke-width="0.5" stroke-miterlimit="10"/>
<path d="M5.42117 55.6957L11.3174 61.5919L34.9031 38.0062L29.0069 32.11L5.42117 55.6957Z" stroke="#7D8FB3" stroke-width="0.5" stroke-miterlimit="10"/>
<path d="M29.0066 -15.0611L23.1104 -9.16492L46.6961 14.4209L52.5924 8.52466L29.0066 -15.0611Z" stroke="#7D8FB3" stroke-width="0.5" stroke-miterlimit="10"/>
<path d="M34.9021 -20.9573L29.0059 -15.0611L52.5916 8.52465L58.4878 2.62844L34.9021 -20.9573Z" stroke="#7D8FB3" stroke-width="0.5" stroke-miterlimit="10"/>
<path d="M87.97 8.52457L93.8662 2.62836L70.2805 -20.9574L64.3843 -15.0612L87.97 8.52457Z" stroke="#7D8FB3" stroke-width="0.5" stroke-miterlimit="10"/>
<path d="M82.0735 14.4209L87.9697 8.52472L64.3839 -15.0611L58.4877 -9.16486L82.0735 14.4209Z" stroke="#7D8FB3" stroke-width="0.5" stroke-miterlimit="10"/>
<path d="M46.6956 26.2138L52.5918 32.11L76.1775 8.52424L70.2813 2.62803L46.6956 26.2138Z" stroke="#7D8FB3" stroke-width="0.5" stroke-miterlimit="10"/>
<path d="M40.7991 20.3175L46.6953 26.2137L70.2811 2.628L64.3849 -3.2682L40.7991 20.3175Z" stroke="#7D8FB3" stroke-width="0.5" stroke-miterlimit="10"/>
<path d="M-6.37234 91.0735L-12.2686 96.9697L11.3172 120.555L17.2134 114.659L-6.37234 91.0735Z" stroke="#7D8FB3" stroke-width="0.5" stroke-miterlimit="10"/>
<path d="M-0.47586 85.1772L-6.37207 91.0734L17.2137 114.659L23.1099 108.763L-0.47586 85.1772Z" stroke="#7D8FB3" stroke-width="0.5" stroke-miterlimit="10"/>
<path d="M34.903 73.3844L29.0068 67.4882L5.42109 91.074L11.3173 96.9702L34.903 73.3844Z" stroke="#7D8FB3" stroke-width="0.5" stroke-miterlimit="10"/>
<path d="M40.7995 79.2806L34.9033 73.3844L11.3175 96.9702L17.2137 102.866L40.7995 79.2806Z" stroke="#7D8FB3" stroke-width="0.5" stroke-miterlimit="10"/>
<path d="M52.5921 114.659L58.4883 108.763L34.9025 85.1773L29.0063 91.0735L52.5921 114.659Z" stroke="#7D8FB3" stroke-width="0.5" stroke-miterlimit="10"/>
<path d="M46.6956 120.555L52.5918 114.659L29.006 91.0735L23.1098 96.9697L46.6956 120.555Z" stroke="#7D8FB3" stroke-width="0.5" stroke-miterlimit="10"/>
<path d="M29.0066 55.6953L23.1104 61.5915L46.6961 85.1772L52.5923 79.281L29.0066 55.6953Z" stroke="#7D8FB3" stroke-width="0.5" stroke-miterlimit="10"/>
<path d="M34.9021 49.7991L29.0059 55.6953L52.5916 79.2811L58.4878 73.3849L34.9021 49.7991Z" stroke="#7D8FB3" stroke-width="0.5" stroke-miterlimit="10"/>
<path d="M70.281 38.0062L64.3848 32.11L40.799 55.6957L46.6952 61.5919L70.281 38.0062Z" stroke="#7D8FB3" stroke-width="0.5" stroke-miterlimit="10"/>
<path d="M76.1775 43.9024L70.2812 38.0062L46.6955 61.5919L52.5917 67.4881L76.1775 43.9024Z" stroke="#7D8FB3" stroke-width="0.5" stroke-miterlimit="10"/>
<path d="M87.97 79.281L93.8662 73.3848L70.2805 49.7991L64.3843 55.6953L87.97 79.281Z" stroke="#7D8FB3" stroke-width="0.5" stroke-miterlimit="10"/>
<path d="M82.0735 85.1773L87.9697 79.2811L64.384 55.6953L58.4878 61.5915L82.0735 85.1773Z" stroke="#7D8FB3" stroke-width="0.5" stroke-miterlimit="10"/>
<path d="M46.6956 96.9701L52.5918 102.866L76.1776 79.2805L70.2814 73.3843L46.6956 96.9701Z" stroke="#7D8FB3" stroke-width="0.5" stroke-miterlimit="10"/>
<path d="M40.7991 91.074L46.6953 96.9702L70.2811 73.3844L64.3849 67.4882L40.7991 91.074Z" stroke="#7D8FB3" stroke-width="0.5" stroke-miterlimit="10"/>
<path d="M64.3845 20.317L58.4883 26.2133L82.074 49.799L87.9702 43.9028L64.3845 20.317Z" stroke="#7D8FB3" stroke-width="0.5" stroke-miterlimit="10"/>
<path d="M70.281 14.4209L64.3848 20.3171L87.9706 43.9029L93.8668 38.0067L70.281 14.4209Z" stroke="#7D8FB3" stroke-width="0.5" stroke-miterlimit="10"/>
<path d="M105.659 2.62802L99.7627 -3.26819L76.1769 20.3176L82.0732 26.2138L105.659 2.62802Z" stroke="#7D8FB3" stroke-width="0.5" stroke-miterlimit="10"/>
<path d="M111.555 8.5242L105.659 2.62799L82.0734 26.2137L87.9696 32.1099L111.555 8.5242Z" stroke="#7D8FB3" stroke-width="0.5" stroke-miterlimit="10"/>
<path d="M123.348 43.9028L129.244 38.0066L105.658 14.4208L99.7621 20.317L123.348 43.9028Z" stroke="#7D8FB3" stroke-width="0.5" stroke-miterlimit="10"/>
<path d="M117.452 49.7991L123.349 43.9029L99.7629 20.3171L93.8667 26.2134L117.452 49.7991Z" stroke="#7D8FB3" stroke-width="0.5" stroke-miterlimit="10"/>
<path d="M82.0735 61.5919L87.9697 67.4882L111.555 43.9024L105.659 38.0062L82.0735 61.5919Z" stroke="#7D8FB3" stroke-width="0.5" stroke-miterlimit="10"/>
<path d="M76.177 55.6957L82.0732 61.5919L105.659 38.0062L99.7628 32.11L76.177 55.6957Z" stroke="#7D8FB3" stroke-width="0.5" stroke-miterlimit="10"/>
<path d="M99.7624 -15.0611L93.8662 -9.16486L117.452 14.4209L123.348 8.52472L99.7624 -15.0611Z" stroke="#7D8FB3" stroke-width="0.5" stroke-miterlimit="10"/>
<path d="M105.659 -20.9574L99.7627 -15.0612L123.348 8.52459L129.245 2.62838L105.659 -20.9574Z" stroke="#7D8FB3" stroke-width="0.5" stroke-miterlimit="10"/>
<path d="M64.3845 91.0735L58.4883 96.9697L82.074 120.555L87.9702 114.659L64.3845 91.0735Z" stroke="#7D8FB3" stroke-width="0.5" stroke-miterlimit="10"/>
<path d="M70.281 85.1773L64.3848 91.0735L87.9705 114.659L93.8667 108.763L70.281 85.1773Z" stroke="#7D8FB3" stroke-width="0.5" stroke-miterlimit="10"/>
<path d="M105.659 73.3843L99.7627 67.4881L76.1769 91.0738L82.0732 96.9701L105.659 73.3843Z" stroke="#7D8FB3" stroke-width="0.5" stroke-miterlimit="10"/>
<path d="M111.555 79.2806L105.659 73.3844L82.0734 96.9702L87.9696 102.866L111.555 79.2806Z" stroke="#7D8FB3" stroke-width="0.5" stroke-miterlimit="10"/>
<path d="M123.348 114.659L129.244 108.763L105.658 85.1773L99.7622 91.0735L123.348 114.659Z" stroke="#7D8FB3" stroke-width="0.5" stroke-miterlimit="10"/>
<path d="M117.452 120.555L123.349 114.659L99.7629 91.0735L93.8667 96.9697L117.452 120.555Z" stroke="#7D8FB3" stroke-width="0.5" stroke-miterlimit="10"/>
<path d="M99.7624 55.6953L93.8662 61.5915L117.452 85.1772L123.348 79.281L99.7624 55.6953Z" stroke="#7D8FB3" stroke-width="0.5" stroke-miterlimit="10"/>
<path d="M105.659 49.7991L99.7627 55.6953L123.348 79.2811L129.245 73.3849L105.659 49.7991Z" stroke="#7D8FB3" stroke-width="0.5" stroke-miterlimit="10"/>
</g>
</g>
<rect x="1" y="1" width="98" height="98" stroke="#DFE3EB" stroke-width="2"/>
<defs>
<clipPath id="clip0_4206_8899">
<rect width="100" height="100" fill="white"/>
</clipPath>
<clipPath id="clip1_4206_8899">
<rect width="195.287" height="177.598" fill="white" transform="translate(-48 -39)"/>
</clipPath>
</defs>
</svg>
