<svg width="100" height="100" viewBox="0 0 100 100" fill="none" xmlns="http://www.w3.org/2000/svg">
<g clip-path="url(#clip0_4206_8991)">
<rect width="100" height="100" fill="white"/>
<g clip-path="url(#clip1_4206_8991)">
<path d="M-1.97808 14.0783L3.49316 8.60706L-18.3926 -13.2787L-23.8639 -7.80747L-1.97808 14.0783Z" stroke="#7D8FB3" stroke-width="0.5" stroke-miterlimit="10"/>
<path d="M3.49262 41.4345L8.96387 35.9633L-12.9219 14.0775L-18.3931 19.5488L3.49262 41.4345Z" stroke="#7D8FB3" stroke-width="0.5" stroke-miterlimit="10"/>
<path d="M-1.97808 46.9057L3.49316 41.4344L-18.3926 19.5487L-23.8639 25.0199L-1.97808 46.9057Z" stroke="#7D8FB3" stroke-width="0.5" stroke-miterlimit="10"/>
<path d="M8.96432 68.7907L14.4355 63.3195L-7.45023 41.4337L-12.9215 46.9049L8.96432 68.7907Z" stroke="#7D8FB3" stroke-width="0.5" stroke-miterlimit="10"/>
<path d="M3.49262 74.2619L8.96387 68.7906L-12.9219 46.9049L-18.3932 52.3761L3.49262 74.2619Z" stroke="#7D8FB3" stroke-width="0.5" stroke-miterlimit="10"/>
<path d="M14.435 96.1468L19.9062 90.6756L-1.97952 68.7898L-7.45077 74.2611L14.435 96.1468Z" stroke="#7D8FB3" stroke-width="0.5" stroke-miterlimit="10"/>
<path d="M8.96432 101.618L14.4355 96.1467L-7.45019 74.261L-12.9214 79.7322L8.96432 101.618Z" stroke="#7D8FB3" stroke-width="0.5" stroke-miterlimit="10"/>
<path d="M3.49175 96.1459L-1.97949 90.6747L-23.8653 112.56L-18.394 118.032L3.49175 96.1459Z" stroke="#7D8FB3" stroke-width="0.5" stroke-miterlimit="10"/>
<path d="M19.9067 123.503L25.3779 118.032L3.49216 96.146L-1.97909 101.617L19.9067 123.503Z" stroke="#7D8FB3" stroke-width="0.5" stroke-miterlimit="10"/>
<path d="M19.9078 -18.75L14.4365 -24.2213L-7.44923 -2.3355L-1.97798 3.13575L19.9078 -18.75Z" stroke="#7D8FB3" stroke-width="0.5" stroke-miterlimit="10"/>
<path d="M25.3785 -13.2788L19.9072 -18.75L-1.97855 3.13577L3.4927 8.60702L25.3785 -13.2788Z" stroke="#7D8FB3" stroke-width="0.5" stroke-miterlimit="10"/>
<path d="M41.7934 14.0782L47.2646 8.60699L25.3789 -13.2788L19.9076 -7.80753L41.7934 14.0782Z" stroke="#7D8FB3" stroke-width="0.5" stroke-miterlimit="10"/>
<path d="M36.3217 19.5495L41.793 14.0782L19.9072 -7.80753L14.436 -2.3363L36.3217 19.5495Z" stroke="#7D8FB3" stroke-width="0.5" stroke-miterlimit="10"/>
<path d="M19.9078 3.135L14.4365 -2.33624L-7.44925 19.5495L-1.978 25.0208L19.9078 3.135Z" stroke="#7D8FB3" stroke-width="0.5" stroke-miterlimit="10"/>
<path d="M25.3785 8.60619L19.9072 3.13495L-1.97855 25.0207L3.4927 30.492L25.3785 8.60619Z" stroke="#7D8FB3" stroke-width="0.5" stroke-miterlimit="10"/>
<path d="M30.8502 14.0774L25.3789 8.6062L3.49313 30.492L8.96438 35.9632L30.8502 14.0774Z" stroke="#7D8FB3" stroke-width="0.5" stroke-miterlimit="10"/>
<path d="M47.2641 41.4344L52.7354 35.9631L30.8496 14.0774L25.3784 19.5486L47.2641 41.4344Z" stroke="#7D8FB3" stroke-width="0.5" stroke-miterlimit="10"/>
<path d="M41.7934 46.9057L47.2646 41.4344L25.3789 19.5487L19.9076 25.0199L41.7934 46.9057Z" stroke="#7D8FB3" stroke-width="0.5" stroke-miterlimit="10"/>
<path d="M25.3785 30.4912L19.9072 25.02L-1.97855 46.9057L3.4927 52.377L25.3785 30.4912Z" stroke="#7D8FB3" stroke-width="0.5" stroke-miterlimit="10"/>
<path d="M30.8502 35.9625L25.3789 30.4912L3.49317 52.3769L8.96442 57.8482L30.8502 35.9625Z" stroke="#7D8FB3" stroke-width="0.5" stroke-miterlimit="10"/>
<path d="M36.3208 41.4336L30.8496 35.9624L8.96384 57.8482L14.4351 63.3194L36.3208 41.4336Z" stroke="#7D8FB3" stroke-width="0.5" stroke-miterlimit="10"/>
<path d="M52.7358 68.7907L58.207 63.3195L36.3213 41.4337L30.85 46.9049L52.7358 68.7907Z" stroke="#7D8FB3" stroke-width="0.5" stroke-miterlimit="10"/>
<path d="M47.2641 74.2619L52.7354 68.7906L30.8496 46.9049L25.3783 52.3761L47.2641 74.2619Z" stroke="#7D8FB3" stroke-width="0.5" stroke-miterlimit="10"/>
<path d="M30.8502 57.8473L25.3789 52.3761L3.49313 74.2619L8.96438 79.7331L30.8502 57.8473Z" stroke="#7D8FB3" stroke-width="0.5" stroke-miterlimit="10"/>
<path d="M36.3208 63.3186L30.8496 57.8474L8.96387 79.7331L14.4351 85.2044L36.3208 63.3186Z" stroke="#7D8FB3" stroke-width="0.5" stroke-miterlimit="10"/>
<path d="M41.7925 68.7898L36.3213 63.3186L14.4355 85.2044L19.9068 90.6756L41.7925 68.7898Z" stroke="#7D8FB3" stroke-width="0.5" stroke-miterlimit="10"/>
<path d="M58.2065 96.1468L63.6777 90.6756L41.792 68.7898L36.3207 74.2611L58.2065 96.1468Z" stroke="#7D8FB3" stroke-width="0.5" stroke-miterlimit="10"/>
<path d="M52.7358 101.618L58.207 96.1467L36.3213 74.261L30.8501 79.7322L52.7358 101.618Z" stroke="#7D8FB3" stroke-width="0.5" stroke-miterlimit="10"/>
<path d="M36.3208 85.2035L30.8496 79.7322L8.96387 101.618L14.4351 107.089L36.3208 85.2035Z" stroke="#7D8FB3" stroke-width="0.5" stroke-miterlimit="10"/>
<path d="M41.7925 90.6747L36.3213 85.2034L14.4355 107.089L19.9068 112.56L41.7925 90.6747Z" stroke="#7D8FB3" stroke-width="0.5" stroke-miterlimit="10"/>
<path d="M47.2632 96.1459L41.792 90.6746L19.9062 112.56L25.3775 118.032L47.2632 96.1459Z" stroke="#7D8FB3" stroke-width="0.5" stroke-miterlimit="10"/>
<path d="M63.6782 123.503L69.1494 118.032L47.2636 96.146L41.7924 101.617L63.6782 123.503Z" stroke="#7D8FB3" stroke-width="0.5" stroke-miterlimit="10"/>
<path d="M63.6792 -18.75L58.208 -24.2212L36.3223 -2.33544L41.7935 3.13579L63.6792 -18.75Z" stroke="#7D8FB3" stroke-width="0.5" stroke-miterlimit="10"/>
<path d="M69.15 -13.2788L63.6787 -18.75L41.7929 3.13577L47.2642 8.60702L69.15 -13.2788Z" stroke="#7D8FB3" stroke-width="0.5" stroke-miterlimit="10"/>
<path d="M85.5649 14.0782L91.0361 8.60699L69.1504 -13.2788L63.6791 -7.80753L85.5649 14.0782Z" stroke="#7D8FB3" stroke-width="0.5" stroke-miterlimit="10"/>
<path d="M80.0932 19.5495L85.5645 14.0782L63.6787 -7.80753L58.2074 -2.33628L80.0932 19.5495Z" stroke="#7D8FB3" stroke-width="0.5" stroke-miterlimit="10"/>
<path d="M63.6792 3.13498L58.208 -2.33624L36.3222 19.5495L41.7935 25.0208L63.6792 3.13498Z" stroke="#7D8FB3" stroke-width="0.5" stroke-miterlimit="10"/>
<path d="M69.15 8.60619L63.6787 3.13495L41.7929 25.0207L47.2642 30.492L69.15 8.60619Z" stroke="#7D8FB3" stroke-width="0.5" stroke-miterlimit="10"/>
<path d="M74.6216 14.0774L69.1504 8.6062L47.2646 30.492L52.7359 35.9632L74.6216 14.0774Z" stroke="#7D8FB3" stroke-width="0.5" stroke-miterlimit="10"/>
<path d="M91.0356 41.4344L96.5068 35.9632L74.6211 14.0775L69.1499 19.5487L91.0356 41.4344Z" stroke="#7D8FB3" stroke-width="0.5" stroke-miterlimit="10"/>
<path d="M85.5649 46.9057L91.0361 41.4344L69.1504 19.5487L63.6791 25.0199L85.5649 46.9057Z" stroke="#7D8FB3" stroke-width="0.5" stroke-miterlimit="10"/>
<path d="M69.15 30.4912L63.6787 25.02L41.7929 46.9057L47.2642 52.377L69.15 30.4912Z" stroke="#7D8FB3" stroke-width="0.5" stroke-miterlimit="10"/>
<path d="M74.6216 35.9625L69.1504 30.4912L47.2647 52.3769L52.7359 57.8482L74.6216 35.9625Z" stroke="#7D8FB3" stroke-width="0.5" stroke-miterlimit="10"/>
<path d="M80.0923 41.4336L74.6211 35.9624L52.7353 57.8482L58.2066 63.3194L80.0923 41.4336Z" stroke="#7D8FB3" stroke-width="0.5" stroke-miterlimit="10"/>
<path d="M96.5073 68.7906L101.979 63.3194L80.0927 41.4336L74.6215 46.9049L96.5073 68.7906Z" stroke="#7D8FB3" stroke-width="0.5" stroke-miterlimit="10"/>
<path d="M91.0356 74.2619L96.5068 68.7906L74.6211 46.9049L69.1498 52.3761L91.0356 74.2619Z" stroke="#7D8FB3" stroke-width="0.5" stroke-miterlimit="10"/>
<path d="M74.6216 57.8473L69.1504 52.3761L47.2646 74.2619L52.7359 79.7331L74.6216 57.8473Z" stroke="#7D8FB3" stroke-width="0.5" stroke-miterlimit="10"/>
<path d="M80.0923 63.3186L74.6211 57.8474L52.7354 79.7331L58.2066 85.2044L80.0923 63.3186Z" stroke="#7D8FB3" stroke-width="0.5" stroke-miterlimit="10"/>
<path d="M85.564 68.7898L80.0928 63.3186L58.207 85.2044L63.6782 90.6756L85.564 68.7898Z" stroke="#7D8FB3" stroke-width="0.5" stroke-miterlimit="10"/>
<path d="M101.978 96.1468L107.449 90.6755L85.5634 68.7898L80.0922 74.261L101.978 96.1468Z" stroke="#7D8FB3" stroke-width="0.5" stroke-miterlimit="10"/>
<path d="M96.5073 101.618L101.979 96.1467L80.0928 74.261L74.6215 79.7322L96.5073 101.618Z" stroke="#7D8FB3" stroke-width="0.5" stroke-miterlimit="10"/>
<path d="M80.0923 85.2035L74.6211 79.7322L52.7354 101.618L58.2066 107.089L80.0923 85.2035Z" stroke="#7D8FB3" stroke-width="0.5" stroke-miterlimit="10"/>
<path d="M85.564 90.6747L80.0928 85.2034L58.207 107.089L63.6782 112.56L85.564 90.6747Z" stroke="#7D8FB3" stroke-width="0.5" stroke-miterlimit="10"/>
<path d="M91.0347 96.1459L85.5635 90.6747L63.6777 112.56L69.149 118.032L91.0347 96.1459Z" stroke="#7D8FB3" stroke-width="0.5" stroke-miterlimit="10"/>
<path d="M107.45 123.503L112.921 118.032L91.0351 96.1459L85.5639 101.617L107.45 123.503Z" stroke="#7D8FB3" stroke-width="0.5" stroke-miterlimit="10"/>
<path d="M107.451 -18.75L101.979 -24.2213L80.0937 -2.3355L85.565 3.13574L107.451 -18.75Z" stroke="#7D8FB3" stroke-width="0.5" stroke-miterlimit="10"/>
<path d="M112.921 -13.2788L107.45 -18.75L85.5644 3.13577L91.0357 8.60702L112.921 -13.2788Z" stroke="#7D8FB3" stroke-width="0.5" stroke-miterlimit="10"/>
<path d="M107.451 3.13499L101.979 -2.33624L80.0937 19.5495L85.565 25.0208L107.451 3.13499Z" stroke="#7D8FB3" stroke-width="0.5" stroke-miterlimit="10"/>
<path d="M112.921 8.60619L107.45 3.13495L85.5644 25.0207L91.0357 30.492L112.921 8.60619Z" stroke="#7D8FB3" stroke-width="0.5" stroke-miterlimit="10"/>
<path d="M118.393 14.0774L112.922 8.6062L91.0361 30.492L96.5073 35.9632L118.393 14.0774Z" stroke="#7D8FB3" stroke-width="0.5" stroke-miterlimit="10"/>
<path d="M112.921 30.4912L107.45 25.02L85.5644 46.9057L91.0357 52.377L112.921 30.4912Z" stroke="#7D8FB3" stroke-width="0.5" stroke-miterlimit="10"/>
<path d="M118.393 35.9625L112.922 30.4912L91.0361 52.3769L96.5074 57.8482L118.393 35.9625Z" stroke="#7D8FB3" stroke-width="0.5" stroke-miterlimit="10"/>
<path d="M123.864 41.4336L118.393 35.9624L96.5068 57.8482L101.978 63.3194L123.864 41.4336Z" stroke="#7D8FB3" stroke-width="0.5" stroke-miterlimit="10"/>
<path d="M118.393 57.8473L112.922 52.376L91.0361 74.2618L96.5073 79.7331L118.393 57.8473Z" stroke="#7D8FB3" stroke-width="0.5" stroke-miterlimit="10"/>
<path d="M123.864 63.3185L118.393 57.8473L96.5068 79.733L101.978 85.2043L123.864 63.3185Z" stroke="#7D8FB3" stroke-width="0.5" stroke-miterlimit="10"/>
<path d="M123.864 85.2035L118.393 79.7322L96.5068 101.618L101.978 107.089L123.864 85.2035Z" stroke="#7D8FB3" stroke-width="0.5" stroke-miterlimit="10"/>
</g>
</g>
<rect x="1" y="1" width="98" height="98" stroke="#DFE3EB" stroke-width="2"/>
<defs>
<clipPath id="clip0_4206_8991">
<rect width="100" height="100" fill="white"/>
</clipPath>
<clipPath id="clip1_4206_8991">
<rect width="214" height="159.282" fill="white" transform="translate(-57 -30)"/>
</clipPath>
</defs>
</svg>
