<svg width="100" height="100" viewBox="0 0 100 100" fill="none" xmlns="http://www.w3.org/2000/svg">
<g clip-path="url(#clip0_4206_8638)">
<rect width="100" height="100" fill="white"/>
<g clip-path="url(#clip1_4206_8638)">
<path d="M0.104744 -29.7484H-9.87402V10.1684H0.104744V-29.7484Z" stroke="#7D8FB3" stroke-width="0.5" stroke-miterlimit="10"/>
<path d="M10.0833 -29.7484H0.104492V10.1684H10.0833V-29.7484Z" stroke="#7D8FB3" stroke-width="0.5" stroke-miterlimit="10"/>
<path d="M10.084 20.148V10.1692L-29.8328 10.1692V20.148H10.084Z" stroke="#7D8FB3" stroke-width="0.5" stroke-miterlimit="10"/>
<path d="M10.084 30.1268V20.148L-29.8328 20.148V30.1268H10.084Z" stroke="#7D8FB3" stroke-width="0.5" stroke-miterlimit="10"/>
<path d="M10.084 40.1055V30.1268L-29.8328 30.1268V40.1055H10.084Z" stroke="#7D8FB3" stroke-width="0.5" stroke-miterlimit="10"/>
<path d="M10.084 50.0844V40.1056H-29.8328V50.0844H10.084Z" stroke="#7D8FB3" stroke-width="0.5" stroke-miterlimit="10"/>
<path d="M0.104744 50.0844H-9.87402V90.0012H0.104744V50.0844Z" stroke="#7D8FB3" stroke-width="0.5" stroke-miterlimit="10"/>
<path d="M10.0833 50.0844H0.104492V90.0012H10.0833V50.0844Z" stroke="#7D8FB3" stroke-width="0.5" stroke-miterlimit="10"/>
<path d="M10.084 99.9807V90.0019H-29.8328V99.9807H10.084Z" stroke="#7D8FB3" stroke-width="0.5" stroke-miterlimit="10"/>
<path d="M10.084 109.96V99.9808H-29.8328V109.96H10.084Z" stroke="#7D8FB3" stroke-width="0.5" stroke-miterlimit="10"/>
<path d="M50 0.190315V-9.78845L10.0832 -9.78845V0.190315L50 0.190315Z" stroke="#7D8FB3" stroke-width="0.5" stroke-miterlimit="10"/>
<path d="M50 10.1691V0.190369L10.0832 0.190369V10.1691L50 10.1691Z" stroke="#7D8FB3" stroke-width="0.5" stroke-miterlimit="10"/>
<path d="M20.0628 10.1691H10.084V50.0859H20.0628V10.1691Z" stroke="#7D8FB3" stroke-width="0.5" stroke-miterlimit="10"/>
<path d="M30.0422 10.1691H20.0635V50.0859H30.0422V10.1691Z" stroke="#7D8FB3" stroke-width="0.5" stroke-miterlimit="10"/>
<path d="M40.0208 10.1691H30.042V50.0859H40.0208V10.1691Z" stroke="#7D8FB3" stroke-width="0.5" stroke-miterlimit="10"/>
<path d="M49.9993 10.1691H40.0205V50.0859H49.9993V10.1691Z" stroke="#7D8FB3" stroke-width="0.5" stroke-miterlimit="10"/>
<path d="M50 60.0655V50.0867H10.0832V60.0655H50Z" stroke="#7D8FB3" stroke-width="0.5" stroke-miterlimit="10"/>
<path d="M50 70.0443V60.0655H10.0832V70.0443H50Z" stroke="#7D8FB3" stroke-width="0.5" stroke-miterlimit="10"/>
<path d="M50 80.0231V70.0444H10.0832V80.0231H50Z" stroke="#7D8FB3" stroke-width="0.5" stroke-miterlimit="10"/>
<path d="M50 90.0019V80.0231H10.0832V90.0019H50Z" stroke="#7D8FB3" stroke-width="0.5" stroke-miterlimit="10"/>
<path d="M20.0628 90.0019H10.084V129.919H20.0628V90.0019Z" stroke="#7D8FB3" stroke-width="0.5" stroke-miterlimit="10"/>
<path d="M30.0422 90.0019H20.0635V129.919H30.0422V90.0019Z" stroke="#7D8FB3" stroke-width="0.5" stroke-miterlimit="10"/>
<path d="M40.0208 90.0019H30.042V129.919H40.0208V90.0019Z" stroke="#7D8FB3" stroke-width="0.5" stroke-miterlimit="10"/>
<path d="M49.9993 90.0019H40.0205V129.919H49.9993V90.0019Z" stroke="#7D8FB3" stroke-width="0.5" stroke-miterlimit="10"/>
<path d="M59.9788 -29.7484H50V10.1684H59.9788V-29.7484Z" stroke="#7D8FB3" stroke-width="0.5" stroke-miterlimit="10"/>
<path d="M69.9583 -29.7484H59.9795V10.1684H69.9583V-29.7484Z" stroke="#7D8FB3" stroke-width="0.5" stroke-miterlimit="10"/>
<path d="M79.9368 -29.7484H69.958V10.1684H79.9368V-29.7484Z" stroke="#7D8FB3" stroke-width="0.5" stroke-miterlimit="10"/>
<path d="M89.9153 -29.7484H79.9365V10.1684H89.9153V-29.7484Z" stroke="#7D8FB3" stroke-width="0.5" stroke-miterlimit="10"/>
<path d="M89.916 20.148V10.1692L49.9992 10.1692V20.148H89.916Z" stroke="#7D8FB3" stroke-width="0.5" stroke-miterlimit="10"/>
<path d="M89.916 30.1268V20.148L49.9992 20.148V30.1268H89.916Z" stroke="#7D8FB3" stroke-width="0.5" stroke-miterlimit="10"/>
<path d="M89.916 40.1056V30.1268L49.9992 30.1268V40.1056H89.916Z" stroke="#7D8FB3" stroke-width="0.5" stroke-miterlimit="10"/>
<path d="M89.916 50.0844V40.1057H49.9992V50.0844H89.916Z" stroke="#7D8FB3" stroke-width="0.5" stroke-miterlimit="10"/>
<path d="M59.9788 50.0844H50V90.0012H59.9788V50.0844Z" stroke="#7D8FB3" stroke-width="0.5" stroke-miterlimit="10"/>
<path d="M69.9583 50.0844H59.9795V90.0012H69.9583V50.0844Z" stroke="#7D8FB3" stroke-width="0.5" stroke-miterlimit="10"/>
<path d="M79.9368 50.0844H69.958V90.0012H79.9368V50.0844Z" stroke="#7D8FB3" stroke-width="0.5" stroke-miterlimit="10"/>
<path d="M89.9153 50.0844H79.9365V90.0012H89.9153V50.0844Z" stroke="#7D8FB3" stroke-width="0.5" stroke-miterlimit="10"/>
<path d="M89.916 99.9807V90.0019H49.9992V99.9807H89.916Z" stroke="#7D8FB3" stroke-width="0.5" stroke-miterlimit="10"/>
<path d="M89.916 109.96V99.9808H49.9992V109.96H89.916Z" stroke="#7D8FB3" stroke-width="0.5" stroke-miterlimit="10"/>
<path d="M129.832 0.190331V-9.78845L89.9152 -9.78845V0.190331L129.832 0.190331Z" stroke="#7D8FB3" stroke-width="0.5" stroke-miterlimit="10"/>
<path d="M129.832 10.1691V0.190308L89.9152 0.190308V10.1691L129.832 10.1691Z" stroke="#7D8FB3" stroke-width="0.5" stroke-miterlimit="10"/>
<path d="M99.8948 10.1691H89.916V50.0859H99.8948V10.1691Z" stroke="#7D8FB3" stroke-width="0.5" stroke-miterlimit="10"/>
<path d="M109.874 10.1691H99.8955V50.0859H109.874V10.1691Z" stroke="#7D8FB3" stroke-width="0.5" stroke-miterlimit="10"/>
<path d="M129.832 60.0655V50.0867H89.9152V60.0655H129.832Z" stroke="#7D8FB3" stroke-width="0.5" stroke-miterlimit="10"/>
<path d="M129.832 70.0443V60.0655H89.9152V70.0443H129.832Z" stroke="#7D8FB3" stroke-width="0.5" stroke-miterlimit="10"/>
<path d="M129.832 80.023V70.0443H89.9152V80.023H129.832Z" stroke="#7D8FB3" stroke-width="0.5" stroke-miterlimit="10"/>
<path d="M129.832 90.0019V80.0231H89.9152V90.0019H129.832Z" stroke="#7D8FB3" stroke-width="0.5" stroke-miterlimit="10"/>
<path d="M99.8948 90.0019H89.916V129.919H99.8948V90.0019Z" stroke="#7D8FB3" stroke-width="0.5" stroke-miterlimit="10"/>
<path d="M109.874 90.0019H99.8955V129.919H109.874V90.0019Z" stroke="#7D8FB3" stroke-width="0.5" stroke-miterlimit="10"/>
</g>
</g>
<rect x="1" y="1" width="98" height="98" stroke="#DFE3EB" stroke-width="2"/>
<defs>
<clipPath id="clip0_4206_8638">
<rect width="100" height="100" fill="white"/>
</clipPath>
<clipPath id="clip1_4206_8638">
<rect width="240" height="160.17" fill="white" transform="translate(-70 -30)"/>
</clipPath>
</defs>
</svg>
