<svg width="100" height="100" viewBox="0 0 100 100" fill="none" xmlns="http://www.w3.org/2000/svg">
<g clip-path="url(#clip0_4206_8540)">
<rect width="100" height="100" fill="white"/>
<g clip-path="url(#clip1_4206_8540)">
<path d="M-1.29408 9.0971L5.54492 2.24927L-21.8121 -25.1431L-28.6511 -18.2952L-1.29408 9.0971Z" stroke="#7D8FB3" stroke-width="0.5" stroke-miterlimit="10"/>
<path d="M-1.29408 50.1838L5.54492 43.336L-21.8121 15.9437L-28.6511 22.7915L-1.29408 50.1838Z" stroke="#7D8FB3" stroke-width="0.5" stroke-miterlimit="10"/>
<path d="M-1.29505 91.2704L5.54395 84.4225L-21.8131 57.0302L-28.6521 63.878L-1.29505 91.2704Z" stroke="#7D8FB3" stroke-width="0.5" stroke-miterlimit="10"/>
<path d="M-1.29505 132.357L5.54395 125.509L-21.813 98.1169L-28.652 104.965L-1.29505 132.357Z" stroke="#7D8FB3" stroke-width="0.5" stroke-miterlimit="10"/>
<path d="M32.9025 -25.1427L26.0635 -31.9906L-1.29353 -4.59822L5.54547 2.24961L32.9025 -25.1427Z" stroke="#7D8FB3" stroke-width="0.5" stroke-miterlimit="10"/>
<path d="M53.4198 9.0971L60.2588 2.24927L32.9018 -25.1431L26.0628 -18.2952L53.4198 9.0971Z" stroke="#7D8FB3" stroke-width="0.5" stroke-miterlimit="10"/>
<path d="M46.5809 15.9449L53.4199 9.09711L26.0629 -18.2952L19.2239 -11.4474L46.5809 15.9449Z" stroke="#7D8FB3" stroke-width="0.5" stroke-miterlimit="10"/>
<path d="M39.7421 22.7927L46.5811 15.9449L19.2241 -11.4474L12.3851 -4.59961L39.7421 22.7927Z" stroke="#7D8FB3" stroke-width="0.5" stroke-miterlimit="10"/>
<path d="M19.2238 2.24835L12.3848 -4.59949L-14.9722 22.7928L-8.13322 29.6407L19.2238 2.24835Z" stroke="#7D8FB3" stroke-width="0.5" stroke-miterlimit="10"/>
<path d="M26.0626 9.09612L19.2236 2.24829L-8.13337 29.6406L-1.29437 36.4885L26.0626 9.09612Z" stroke="#7D8FB3" stroke-width="0.5" stroke-miterlimit="10"/>
<path d="M32.9015 15.9439L26.0625 9.09607L-1.29449 36.4884L5.54451 43.3362L32.9015 15.9439Z" stroke="#7D8FB3" stroke-width="0.5" stroke-miterlimit="10"/>
<path d="M53.4198 50.1837L60.2588 43.3359L32.9018 15.9435L26.0628 22.7914L53.4198 50.1837Z" stroke="#7D8FB3" stroke-width="0.5" stroke-miterlimit="10"/>
<path d="M46.5809 57.0315L53.4199 50.1837L26.0629 22.7914L19.2239 29.6392L46.5809 57.0315Z" stroke="#7D8FB3" stroke-width="0.5" stroke-miterlimit="10"/>
<path d="M39.7411 63.8795L46.5801 57.0316L19.2231 29.6393L12.3841 36.4871L39.7411 63.8795Z" stroke="#7D8FB3" stroke-width="0.5" stroke-miterlimit="10"/>
<path d="M19.2238 43.3349L12.3848 36.4871L-14.9722 63.8794L-8.13322 70.7272L19.2238 43.3349Z" stroke="#7D8FB3" stroke-width="0.5" stroke-miterlimit="10"/>
<path d="M26.0626 50.1827L19.2236 43.3349L-8.13335 70.7272L-1.29436 77.5751L26.0626 50.1827Z" stroke="#7D8FB3" stroke-width="0.5" stroke-miterlimit="10"/>
<path d="M32.9015 57.0305L26.0625 50.1827L-1.2945 77.575L5.54451 84.4229L32.9015 57.0305Z" stroke="#7D8FB3" stroke-width="0.5" stroke-miterlimit="10"/>
<path d="M53.4188 91.2704L60.2578 84.4225L32.9008 57.0302L26.0618 63.878L53.4188 91.2704Z" stroke="#7D8FB3" stroke-width="0.5" stroke-miterlimit="10"/>
<path d="M46.5799 98.1182L53.4189 91.2704L26.062 63.8781L19.223 70.7259L46.5799 98.1182Z" stroke="#7D8FB3" stroke-width="0.5" stroke-miterlimit="10"/>
<path d="M39.7411 104.966L46.5801 98.1182L19.2231 70.7259L12.3841 77.5737L39.7411 104.966Z" stroke="#7D8FB3" stroke-width="0.5" stroke-miterlimit="10"/>
<path d="M19.2238 84.4216L12.3848 77.5737L-14.9722 104.966L-8.13324 111.814L19.2238 84.4216Z" stroke="#7D8FB3" stroke-width="0.5" stroke-miterlimit="10"/>
<path d="M26.0626 91.2694L19.2236 84.4216L-8.13337 111.814L-1.29437 118.662L26.0626 91.2694Z" stroke="#7D8FB3" stroke-width="0.5" stroke-miterlimit="10"/>
<path d="M32.9015 98.1171L26.0625 91.2693L-1.29449 118.662L5.54451 125.509L32.9015 98.1171Z" stroke="#7D8FB3" stroke-width="0.5" stroke-miterlimit="10"/>
<path d="M53.4188 132.357L60.2578 125.509L32.9008 98.1169L26.0618 104.965L53.4188 132.357Z" stroke="#7D8FB3" stroke-width="0.5" stroke-miterlimit="10"/>
<path d="M87.6163 -25.1428L80.7773 -31.9906L53.4203 -4.59825L60.2593 2.24958L87.6163 -25.1428Z" stroke="#7D8FB3" stroke-width="0.5" stroke-miterlimit="10"/>
<path d="M108.134 9.09716L114.973 2.24933L87.6157 -25.143L80.7767 -18.2952L108.134 9.09716Z" stroke="#7D8FB3" stroke-width="0.5" stroke-miterlimit="10"/>
<path d="M101.295 15.9449L108.134 9.09711L80.7768 -18.2952L73.9378 -11.4474L101.295 15.9449Z" stroke="#7D8FB3" stroke-width="0.5" stroke-miterlimit="10"/>
<path d="M94.4559 22.7928L101.295 15.9449L73.9379 -11.4474L67.0989 -4.59955L94.4559 22.7928Z" stroke="#7D8FB3" stroke-width="0.5" stroke-miterlimit="10"/>
<path d="M73.9376 2.24835L67.0986 -4.59949L39.7416 22.7928L46.5806 29.6407L73.9376 2.24835Z" stroke="#7D8FB3" stroke-width="0.5" stroke-miterlimit="10"/>
<path d="M80.7765 9.09606L73.9375 2.24823L46.5805 29.6406L53.4195 36.4884L80.7765 9.09606Z" stroke="#7D8FB3" stroke-width="0.5" stroke-miterlimit="10"/>
<path d="M87.6154 15.9439L80.7764 9.09607L53.4194 36.4884L60.2584 43.3362L87.6154 15.9439Z" stroke="#7D8FB3" stroke-width="0.5" stroke-miterlimit="10"/>
<path d="M108.134 50.1838L114.973 43.336L87.6157 15.9437L80.7767 22.7915L108.134 50.1838Z" stroke="#7D8FB3" stroke-width="0.5" stroke-miterlimit="10"/>
<path d="M101.295 57.0316L108.134 50.1837L80.7768 22.7914L73.9378 29.6392L101.295 57.0316Z" stroke="#7D8FB3" stroke-width="0.5" stroke-miterlimit="10"/>
<path d="M94.4559 63.8793L101.295 57.0315L73.9379 29.6391L67.0989 36.487L94.4559 63.8793Z" stroke="#7D8FB3" stroke-width="0.5" stroke-miterlimit="10"/>
<path d="M73.9376 43.335L67.0986 36.4871L39.7416 63.8795L46.5806 70.7273L73.9376 43.335Z" stroke="#7D8FB3" stroke-width="0.5" stroke-miterlimit="10"/>
<path d="M80.7765 50.1827L73.9375 43.3349L46.5805 70.7272L53.4195 77.5751L80.7765 50.1827Z" stroke="#7D8FB3" stroke-width="0.5" stroke-miterlimit="10"/>
<path d="M87.6154 57.0306L80.7764 50.1827L53.4194 77.5751L60.2584 84.4229L87.6154 57.0306Z" stroke="#7D8FB3" stroke-width="0.5" stroke-miterlimit="10"/>
<path d="M108.134 91.2703L114.973 84.4225L87.6157 57.0301L80.7767 63.878L108.134 91.2703Z" stroke="#7D8FB3" stroke-width="0.5" stroke-miterlimit="10"/>
<path d="M101.294 98.1182L108.133 91.2704L80.7758 63.8781L73.9368 70.7259L101.294 98.1182Z" stroke="#7D8FB3" stroke-width="0.5" stroke-miterlimit="10"/>
<path d="M94.4549 104.966L101.294 98.1182L73.937 70.7258L67.098 77.5737L94.4549 104.966Z" stroke="#7D8FB3" stroke-width="0.5" stroke-miterlimit="10"/>
<path d="M73.9376 84.4216L67.0986 77.5737L39.7416 104.966L46.5806 111.814L73.9376 84.4216Z" stroke="#7D8FB3" stroke-width="0.5" stroke-miterlimit="10"/>
<path d="M80.7765 91.2694L73.9375 84.4215L46.5805 111.814L53.4195 118.662L80.7765 91.2694Z" stroke="#7D8FB3" stroke-width="0.5" stroke-miterlimit="10"/>
<path d="M87.6154 98.1171L80.7764 91.2693L53.4194 118.662L60.2584 125.509L87.6154 98.1171Z" stroke="#7D8FB3" stroke-width="0.5" stroke-miterlimit="10"/>
<path d="M108.133 132.357L114.972 125.509L87.6147 98.1169L80.7757 104.965L108.133 132.357Z" stroke="#7D8FB3" stroke-width="0.5" stroke-miterlimit="10"/>
<path d="M128.651 2.24822L121.812 -4.59961L94.4555 22.7927L101.295 29.6406L128.651 2.24822Z" stroke="#7D8FB3" stroke-width="0.5" stroke-miterlimit="10"/>
<path d="M128.651 43.3349L121.812 36.4871L94.4555 63.8794L101.295 70.7272L128.651 43.3349Z" stroke="#7D8FB3" stroke-width="0.5" stroke-miterlimit="10"/>
<path d="M128.651 84.4216L121.812 77.5737L94.4555 104.966L101.294 111.814L128.651 84.4216Z" stroke="#7D8FB3" stroke-width="0.5" stroke-miterlimit="10"/>
</g>
</g>
<rect x="1" y="1" width="98" height="98" stroke="#DFE3EB" stroke-width="2"/>
<defs>
<clipPath id="clip0_4206_8540">
<rect width="100" height="100" fill="white"/>
</clipPath>
<clipPath id="clip1_4206_8540">
<rect width="240" height="192.366" fill="white" transform="translate(-70 -46)"/>
</clipPath>
</defs>
</svg>
