<svg width="100" height="100" viewBox="0 0 100 100" fill="none" xmlns="http://www.w3.org/2000/svg">
<g clip-path="url(#clip0_4206_8186)">
<rect width="100" height="100" fill="white"/>
<g clip-path="url(#clip1_4206_8186)">
<path d="M-19.3027 -9.13707V0.719116L20.2986 0.719116V-9.13707L-19.3027 -9.13707Z" stroke="#7D8FB3" stroke-width="0.5" stroke-miterlimit="10"/>
<path d="M-19.3027 0.719069V10.5753L20.2986 10.5753V0.719069L-19.3027 0.719069Z" stroke="#7D8FB3" stroke-width="0.5" stroke-miterlimit="10"/>
<path d="M-19.3027 10.5753V20.4315L20.2986 20.4315V10.5753L-19.3027 10.5753Z" stroke="#7D8FB3" stroke-width="0.5" stroke-miterlimit="10"/>
<path d="M20.2988 -9.13707V0.719116L59.9002 0.719116V-9.13707L20.2988 -9.13707Z" stroke="#7D8FB3" stroke-width="0.5" stroke-miterlimit="10"/>
<path d="M20.2988 0.719069V10.5753L59.9001 10.5753V0.719069L20.2988 0.719069Z" stroke="#7D8FB3" stroke-width="0.5" stroke-miterlimit="10"/>
<path d="M20.2988 10.5753V20.4315L59.9002 20.4315V10.5753L20.2988 10.5753Z" stroke="#7D8FB3" stroke-width="0.5" stroke-miterlimit="10"/>
<path d="M59.9004 -9.13713V0.719055L99.5018 0.719055V-9.13713L59.9004 -9.13713Z" stroke="#7D8FB3" stroke-width="0.5" stroke-miterlimit="10"/>
<path d="M59.9004 0.719069V10.5753L99.5017 10.5753V0.719069L59.9004 0.719069Z" stroke="#7D8FB3" stroke-width="0.5" stroke-miterlimit="10"/>
<path d="M59.9004 10.5753V20.4315L99.5018 20.4315V10.5753L59.9004 10.5753Z" stroke="#7D8FB3" stroke-width="0.5" stroke-miterlimit="10"/>
<path d="M99.502 -9.1371V0.719055L139.103 0.719055V-9.1371L99.502 -9.1371Z" stroke="#7D8FB3" stroke-width="0.5" stroke-miterlimit="10"/>
<path d="M99.502 0.719106V10.5753L139.103 10.5753V0.719106L99.502 0.719106Z" stroke="#7D8FB3" stroke-width="0.5" stroke-miterlimit="10"/>
<path d="M99.502 10.5753V20.4315L139.103 20.4315V10.5753L99.502 10.5753Z" stroke="#7D8FB3" stroke-width="0.5" stroke-miterlimit="10"/>
<path d="M-39.1025 20.4314V30.2877L0.498821 30.2877V20.4314H-39.1025Z" stroke="#7D8FB3" stroke-width="0.5" stroke-miterlimit="10"/>
<path d="M-39.1025 30.2875V40.1437H0.498821V30.2875H-39.1025Z" stroke="#7D8FB3" stroke-width="0.5" stroke-miterlimit="10"/>
<path d="M-39.1025 40.1437V49.9999H0.498821V40.1437H-39.1025Z" stroke="#7D8FB3" stroke-width="0.5" stroke-miterlimit="10"/>
<path d="M0.498047 20.4314L0.498047 30.2876L40.0994 30.2876V20.4314H0.498047Z" stroke="#7D8FB3" stroke-width="0.5" stroke-miterlimit="10"/>
<path d="M0.498047 30.2876L0.498047 40.1438H40.0994V30.2876H0.498047Z" stroke="#7D8FB3" stroke-width="0.5" stroke-miterlimit="10"/>
<path d="M0.498047 40.1438L0.498047 50H40.0994V40.1438H0.498047Z" stroke="#7D8FB3" stroke-width="0.5" stroke-miterlimit="10"/>
<path d="M40.0996 20.4315V30.2877L79.701 30.2877V20.4315H40.0996Z" stroke="#7D8FB3" stroke-width="0.5" stroke-miterlimit="10"/>
<path d="M40.0996 30.2876V40.1438H79.701V30.2876H40.0996Z" stroke="#7D8FB3" stroke-width="0.5" stroke-miterlimit="10"/>
<path d="M40.0996 40.1438V50H79.701V40.1438H40.0996Z" stroke="#7D8FB3" stroke-width="0.5" stroke-miterlimit="10"/>
<path d="M79.7012 20.4315V30.2877L119.303 30.2877V20.4315H79.7012Z" stroke="#7D8FB3" stroke-width="0.5" stroke-miterlimit="10"/>
<path d="M79.7012 30.2876V40.1438H119.303V30.2876H79.7012Z" stroke="#7D8FB3" stroke-width="0.5" stroke-miterlimit="10"/>
<path d="M79.7012 40.1438V50H119.303V40.1438H79.7012Z" stroke="#7D8FB3" stroke-width="0.5" stroke-miterlimit="10"/>
<path d="M-19.3027 50V59.8562H20.2986V50H-19.3027Z" stroke="#7D8FB3" stroke-width="0.5" stroke-miterlimit="10"/>
<path d="M-19.3027 59.8562V69.7123H20.2986V59.8562H-19.3027Z" stroke="#7D8FB3" stroke-width="0.5" stroke-miterlimit="10"/>
<path d="M-19.3027 69.7124V79.5685H20.2986V69.7124H-19.3027Z" stroke="#7D8FB3" stroke-width="0.5" stroke-miterlimit="10"/>
<path d="M20.2988 50V59.8562H59.9002V50H20.2988Z" stroke="#7D8FB3" stroke-width="0.5" stroke-miterlimit="10"/>
<path d="M20.2988 59.856V69.7122H59.9002V59.856H20.2988Z" stroke="#7D8FB3" stroke-width="0.5" stroke-miterlimit="10"/>
<path d="M20.2988 69.7122V79.5684H59.9002V69.7122H20.2988Z" stroke="#7D8FB3" stroke-width="0.5" stroke-miterlimit="10"/>
<path d="M59.9004 50V59.8562H99.5018V50H59.9004Z" stroke="#7D8FB3" stroke-width="0.5" stroke-miterlimit="10"/>
<path d="M59.9004 59.8562V69.7123H99.5018V59.8562H59.9004Z" stroke="#7D8FB3" stroke-width="0.5" stroke-miterlimit="10"/>
<path d="M59.9004 69.7124V79.5685H99.5018V69.7124H59.9004Z" stroke="#7D8FB3" stroke-width="0.5" stroke-miterlimit="10"/>
<path d="M99.502 50V59.8561H139.103V50H99.502Z" stroke="#7D8FB3" stroke-width="0.5" stroke-miterlimit="10"/>
<path d="M99.502 59.8562V69.7123H139.103V59.8562H99.502Z" stroke="#7D8FB3" stroke-width="0.5" stroke-miterlimit="10"/>
<path d="M99.502 69.7124V79.5685H139.103V69.7124H99.502Z" stroke="#7D8FB3" stroke-width="0.5" stroke-miterlimit="10"/>
<path d="M-39.1035 79.5684V89.4246H0.497845V79.5684H-39.1035Z" stroke="#7D8FB3" stroke-width="0.5" stroke-miterlimit="10"/>
<path d="M-39.1035 89.4246V99.2808H0.497845V89.4246H-39.1035Z" stroke="#7D8FB3" stroke-width="0.5" stroke-miterlimit="10"/>
<path d="M-39.1035 99.2808V109.137H0.497845V99.2808H-39.1035Z" stroke="#7D8FB3" stroke-width="0.5" stroke-miterlimit="10"/>
<path d="M0.498047 79.5685L0.498047 89.4247H40.0994V79.5685H0.498047Z" stroke="#7D8FB3" stroke-width="0.5" stroke-miterlimit="10"/>
<path d="M0.498047 89.4247L0.498047 99.2809H40.0994V89.4247H0.498047Z" stroke="#7D8FB3" stroke-width="0.5" stroke-miterlimit="10"/>
<path d="M0.498047 99.2809L0.498047 109.137H40.0994V99.2809H0.498047Z" stroke="#7D8FB3" stroke-width="0.5" stroke-miterlimit="10"/>
<path d="M40.0996 79.5686V89.4247H79.701V79.5686H40.0996Z" stroke="#7D8FB3" stroke-width="0.5" stroke-miterlimit="10"/>
<path d="M40.0996 89.4247V99.2809H79.701V89.4247H40.0996Z" stroke="#7D8FB3" stroke-width="0.5" stroke-miterlimit="10"/>
<path d="M40.0996 99.2809V109.137H79.701V99.2809H40.0996Z" stroke="#7D8FB3" stroke-width="0.5" stroke-miterlimit="10"/>
<path d="M79.7012 79.5686V89.4247H119.303V79.5686H79.7012Z" stroke="#7D8FB3" stroke-width="0.5" stroke-miterlimit="10"/>
<path d="M79.7012 89.4246V99.2808H119.303V89.4246H79.7012Z" stroke="#7D8FB3" stroke-width="0.5" stroke-miterlimit="10"/>
<path d="M79.7012 99.2808V109.137H119.303V99.2808H79.7012Z" stroke="#7D8FB3" stroke-width="0.5" stroke-miterlimit="10"/>
</g>
</g>
<rect x="1" y="1" width="98" height="98" stroke="#DFE3EB" stroke-width="2"/>
<defs>
<clipPath id="clip0_4206_8186">
<rect width="100" height="100" fill="white"/>
</clipPath>
<clipPath id="clip1_4206_8186">
<rect width="258" height="178" fill="white" transform="translate(-79 -39)"/>
</clipPath>
</defs>
</svg>
