<svg width="100" height="100" viewBox="0 0 100 100" fill="none" xmlns="http://www.w3.org/2000/svg">
<g clip-path="url(#clip0_4206_8356)">
<rect width="100" height="100" fill="white"/>
<g clip-path="url(#clip1_4206_8356)">
<path d="M-28.4318 -32.6891L-36.6875 -24.4334L-3.66353 8.59059L4.59218 0.334878L-28.4318 -32.6891Z" stroke="#7D8FB3" stroke-width="0.5" stroke-miterlimit="10"/>
<path d="M-28.4318 -16.1777L-36.6875 -7.922L-3.66353 25.102L4.59218 16.8463L-28.4318 -16.1777Z" stroke="#7D8FB3" stroke-width="0.5" stroke-miterlimit="10"/>
<path d="M-28.4318 0.333644L-36.6875 8.58936L-3.66353 41.6133L4.59218 33.3576L-28.4318 0.333644Z" stroke="#7D8FB3" stroke-width="0.5" stroke-miterlimit="10"/>
<path d="M-28.4318 16.8451L-36.6875 25.1008L-3.66353 58.1247L4.59218 49.869L-28.4318 16.8451Z" stroke="#7D8FB3" stroke-width="0.5" stroke-miterlimit="10"/>
<path d="M-28.4318 33.3563L-36.6875 41.6121L-3.66353 74.636L4.59218 66.3803L-28.4318 33.3563Z" stroke="#7D8FB3" stroke-width="0.5" stroke-miterlimit="10"/>
<path d="M-28.4318 49.8677L-36.6875 58.1234L-3.66353 91.1474L4.59218 82.8917L-28.4318 49.8677Z" stroke="#7D8FB3" stroke-width="0.5" stroke-miterlimit="10"/>
<path d="M-28.4318 66.3791L-36.6875 74.6348L-3.66353 107.659L4.59218 99.4031L-28.4318 66.3791Z" stroke="#7D8FB3" stroke-width="0.5" stroke-miterlimit="10"/>
<path d="M-28.4318 82.8904L-36.6875 91.1461L-3.66355 124.17L4.59216 115.914L-28.4318 82.8904Z" stroke="#7D8FB3" stroke-width="0.5" stroke-miterlimit="10"/>
<path d="M-28.4318 99.4018L-36.6875 107.657L-3.66353 140.681L4.59218 132.426L-28.4318 99.4018Z" stroke="#7D8FB3" stroke-width="0.5" stroke-miterlimit="10"/>
<path d="M37.6161 -32.689L29.3604 -40.9447L-3.66362 -7.9207L4.59209 0.335008L37.6161 -32.689Z" stroke="#7D8FB3" stroke-width="0.5" stroke-miterlimit="10"/>
<path d="M37.6161 -32.6891L29.3604 -24.4334L62.3843 8.59056L70.64 0.334847L37.6161 -32.6891Z" stroke="#7D8FB3" stroke-width="0.5" stroke-miterlimit="10"/>
<path d="M37.6161 -16.1776L29.3604 -24.4333L-3.66361 8.59061L4.5921 16.8463L37.6161 -16.1776Z" stroke="#7D8FB3" stroke-width="0.5" stroke-miterlimit="10"/>
<path d="M37.6161 -16.1777L29.3604 -7.922L62.3843 25.102L70.64 16.8463L37.6161 -16.1777Z" stroke="#7D8FB3" stroke-width="0.5" stroke-miterlimit="10"/>
<path d="M37.6161 0.333714L29.3604 -7.922L-3.66362 25.102L4.59209 33.3577L37.6161 0.333714Z" stroke="#7D8FB3" stroke-width="0.5" stroke-miterlimit="10"/>
<path d="M37.6161 0.333644L29.3604 8.58936L62.3843 41.6133L70.64 33.3576L37.6161 0.333644Z" stroke="#7D8FB3" stroke-width="0.5" stroke-miterlimit="10"/>
<path d="M37.6161 16.8451L29.3604 8.58936L-3.6636 41.6133L4.59211 49.869L37.6161 16.8451Z" stroke="#7D8FB3" stroke-width="0.5" stroke-miterlimit="10"/>
<path d="M37.6161 16.845L29.3604 25.1007L62.3843 58.1247L70.64 49.869L37.6161 16.845Z" stroke="#7D8FB3" stroke-width="0.5" stroke-miterlimit="10"/>
<path d="M37.6161 33.3564L29.3604 25.1006L-3.66362 58.1246L4.59209 66.3803L37.6161 33.3564Z" stroke="#7D8FB3" stroke-width="0.5" stroke-miterlimit="10"/>
<path d="M37.6161 33.3563L29.3604 41.6121L62.3843 74.636L70.64 66.3803L37.6161 33.3563Z" stroke="#7D8FB3" stroke-width="0.5" stroke-miterlimit="10"/>
<path d="M37.6161 49.8678L29.3604 41.6121L-3.6636 74.636L4.59211 82.8917L37.6161 49.8678Z" stroke="#7D8FB3" stroke-width="0.5" stroke-miterlimit="10"/>
<path d="M37.6161 49.8677L29.3604 58.1234L62.3843 91.1474L70.64 82.8917L37.6161 49.8677Z" stroke="#7D8FB3" stroke-width="0.5" stroke-miterlimit="10"/>
<path d="M37.6161 66.3791L29.3604 58.1234L-3.66362 91.1474L4.59209 99.4031L37.6161 66.3791Z" stroke="#7D8FB3" stroke-width="0.5" stroke-miterlimit="10"/>
<path d="M37.6161 66.3791L29.3604 74.6348L62.3843 107.659L70.64 99.403L37.6161 66.3791Z" stroke="#7D8FB3" stroke-width="0.5" stroke-miterlimit="10"/>
<path d="M37.6161 82.8905L29.3604 74.6348L-3.66362 107.659L4.59209 115.914L37.6161 82.8905Z" stroke="#7D8FB3" stroke-width="0.5" stroke-miterlimit="10"/>
<path d="M37.6161 82.8904L29.3604 91.1461L62.3843 124.17L70.64 115.914L37.6161 82.8904Z" stroke="#7D8FB3" stroke-width="0.5" stroke-miterlimit="10"/>
<path d="M37.6161 99.4018L29.3604 91.1461L-3.66362 124.17L4.59209 132.426L37.6161 99.4018Z" stroke="#7D8FB3" stroke-width="0.5" stroke-miterlimit="10"/>
<path d="M37.6161 99.4018L29.3604 107.657L62.3843 140.681L70.64 132.426L37.6161 99.4018Z" stroke="#7D8FB3" stroke-width="0.5" stroke-miterlimit="10"/>
<path d="M103.664 -32.6889L95.4082 -40.9446L62.3842 -7.92067L70.6399 0.33503L103.664 -32.6889Z" stroke="#7D8FB3" stroke-width="0.5" stroke-miterlimit="10"/>
<path d="M103.664 -32.689L95.4082 -24.4333L128.432 8.59068L136.688 0.334978L103.664 -32.689Z" stroke="#7D8FB3" stroke-width="0.5" stroke-miterlimit="10"/>
<path d="M103.664 -16.1776L95.4082 -24.4333L62.3842 8.59064L70.6399 16.8463L103.664 -16.1776Z" stroke="#7D8FB3" stroke-width="0.5" stroke-miterlimit="10"/>
<path d="M103.664 -16.1777L95.4082 -7.922L128.432 25.102L136.688 16.8463L103.664 -16.1777Z" stroke="#7D8FB3" stroke-width="0.5" stroke-miterlimit="10"/>
<path d="M103.664 0.333644L95.4082 -7.92206L62.3842 25.1019L70.6399 33.3576L103.664 0.333644Z" stroke="#7D8FB3" stroke-width="0.5" stroke-miterlimit="10"/>
<path d="M103.664 0.333653L95.4082 8.58936L128.432 41.6133L136.688 33.3576L103.664 0.333653Z" stroke="#7D8FB3" stroke-width="0.5" stroke-miterlimit="10"/>
<path d="M103.664 16.8451L95.4082 8.58936L62.3843 41.6133L70.64 49.869L103.664 16.8451Z" stroke="#7D8FB3" stroke-width="0.5" stroke-miterlimit="10"/>
<path d="M103.664 16.8451L95.4082 25.1008L128.432 58.1247L136.688 49.869L103.664 16.8451Z" stroke="#7D8FB3" stroke-width="0.5" stroke-miterlimit="10"/>
<path d="M103.664 33.3564L95.4082 25.1007L62.3842 58.1247L70.6399 66.3804L103.664 33.3564Z" stroke="#7D8FB3" stroke-width="0.5" stroke-miterlimit="10"/>
<path d="M103.664 33.3564L95.4082 41.6121L128.432 74.636L136.688 66.3803L103.664 33.3564Z" stroke="#7D8FB3" stroke-width="0.5" stroke-miterlimit="10"/>
<path d="M103.664 49.8678L95.4082 41.6121L62.3843 74.636L70.64 82.8917L103.664 49.8678Z" stroke="#7D8FB3" stroke-width="0.5" stroke-miterlimit="10"/>
<path d="M103.664 49.8677L95.4082 58.1234L128.432 91.1474L136.688 82.8917L103.664 49.8677Z" stroke="#7D8FB3" stroke-width="0.5" stroke-miterlimit="10"/>
<path d="M103.664 66.3791L95.4082 58.1234L62.3842 91.1474L70.6399 99.4031L103.664 66.3791Z" stroke="#7D8FB3" stroke-width="0.5" stroke-miterlimit="10"/>
<path d="M103.664 66.3791L95.4082 74.6348L128.432 107.659L136.688 99.4031L103.664 66.3791Z" stroke="#7D8FB3" stroke-width="0.5" stroke-miterlimit="10"/>
<path d="M103.664 82.8905L95.4082 74.6348L62.3842 107.659L70.6399 115.914L103.664 82.8905Z" stroke="#7D8FB3" stroke-width="0.5" stroke-miterlimit="10"/>
<path d="M103.664 82.8905L95.4082 91.1462L128.432 124.17L136.688 115.914L103.664 82.8905Z" stroke="#7D8FB3" stroke-width="0.5" stroke-miterlimit="10"/>
<path d="M103.664 99.4018L95.4082 91.1461L62.3842 124.17L70.6399 132.426L103.664 99.4018Z" stroke="#7D8FB3" stroke-width="0.5" stroke-miterlimit="10"/>
<path d="M103.664 99.4019L95.4082 107.658L128.432 140.682L136.688 132.426L103.664 99.4019Z" stroke="#7D8FB3" stroke-width="0.5" stroke-miterlimit="10"/>
</g>
</g>
<rect x="1" y="1" width="98" height="98" stroke="#DFE3EB" stroke-width="2"/>
<defs>
<clipPath id="clip0_4206_8356">
<rect width="100" height="100" fill="white"/>
</clipPath>
<clipPath id="clip1_4206_8356">
<rect width="240" height="231.737" fill="white" transform="translate(-70 -66)"/>
</clipPath>
</defs>
</svg>
