<svg width="100" height="100" viewBox="0 0 100 100" fill="none" xmlns="http://www.w3.org/2000/svg">
<g clip-path="url(#clip0_4206_8442)">
<rect width="100" height="100" fill="white"/>
<g clip-path="url(#clip1_4206_8442)">
<path d="M-6.35801 0.551312L0.686523 -6.49323L-27.4928 -34.6725L-34.5373 -27.628L-6.35801 0.551312Z" stroke="#7D8FB3" stroke-width="0.5" stroke-miterlimit="10"/>
<path d="M-6.35899 28.7295L0.685547 21.685L-27.4937 -6.49429L-34.5383 0.550252L-6.35899 28.7295Z" stroke="#7D8FB3" stroke-width="0.5" stroke-miterlimit="10"/>
<path d="M-6.35801 56.9077L0.686523 49.8632L-27.4928 21.6839L-34.5373 28.7284L-6.35801 56.9077Z" stroke="#7D8FB3" stroke-width="0.5" stroke-miterlimit="10"/>
<path d="M-6.35899 85.0859L0.685547 78.0413L-27.4937 49.862L-34.5383 56.9066L-6.35899 85.0859Z" stroke="#7D8FB3" stroke-width="0.5" stroke-miterlimit="10"/>
<path d="M-6.35801 113.264L0.686523 106.219L-27.4928 78.0402L-34.5373 85.0847L-6.35801 113.264Z" stroke="#7D8FB3" stroke-width="0.5" stroke-miterlimit="10"/>
<path d="M50.0004 0.551312L57.0449 -6.49323L28.8656 -34.6725L21.8211 -27.628L50.0004 0.551312Z" stroke="#7D8FB3" stroke-width="0.5" stroke-miterlimit="10"/>
<path d="M42.9555 7.59581L50 0.55127L21.8207 -27.628L14.7762 -20.5835L42.9555 7.59581Z" stroke="#7D8FB3" stroke-width="0.5" stroke-miterlimit="10"/>
<path d="M21.8209 -13.5388L14.7764 -20.5833L-13.4029 7.59594L-6.35838 14.6405L21.8209 -13.5388Z" stroke="#7D8FB3" stroke-width="0.5" stroke-miterlimit="10"/>
<path d="M28.8648 -6.49434L21.8203 -13.5389L-6.35897 14.6404L0.685567 21.6849L28.8648 -6.49434Z" stroke="#7D8FB3" stroke-width="0.5" stroke-miterlimit="10"/>
<path d="M50.0004 28.7295L57.0449 21.6849L28.8656 -6.49435L21.8211 0.550191L50.0004 28.7295Z" stroke="#7D8FB3" stroke-width="0.5" stroke-miterlimit="10"/>
<path d="M42.9555 35.774L50 28.7295L21.8207 0.55021L14.7762 7.59475L42.9555 35.774Z" stroke="#7D8FB3" stroke-width="0.5" stroke-miterlimit="10"/>
<path d="M21.8209 14.6393L14.7764 7.59479L-13.4029 35.7741L-6.35838 42.8186L21.8209 14.6393Z" stroke="#7D8FB3" stroke-width="0.5" stroke-miterlimit="10"/>
<path d="M28.8648 21.6839L21.8203 14.6394L-6.35896 42.8187L0.68558 49.8632L28.8648 21.6839Z" stroke="#7D8FB3" stroke-width="0.5" stroke-miterlimit="10"/>
<path d="M50.0004 56.9076L57.0449 49.8631L28.8656 21.6838L21.8211 28.7284L50.0004 56.9076Z" stroke="#7D8FB3" stroke-width="0.5" stroke-miterlimit="10"/>
<path d="M42.9555 63.9522L50 56.9077L21.8207 28.7284L14.7762 35.7729L42.9555 63.9522Z" stroke="#7D8FB3" stroke-width="0.5" stroke-miterlimit="10"/>
<path d="M21.8209 42.8175L14.7764 35.773L-13.4029 63.9523L-6.35837 70.9968L21.8209 42.8175Z" stroke="#7D8FB3" stroke-width="0.5" stroke-miterlimit="10"/>
<path d="M28.8648 49.8621L21.8203 42.8176L-6.35897 70.9968L0.685567 78.0414L28.8648 49.8621Z" stroke="#7D8FB3" stroke-width="0.5" stroke-miterlimit="10"/>
<path d="M50.0004 85.0858L57.0449 78.0413L28.8656 49.862L21.8211 56.9065L50.0004 85.0858Z" stroke="#7D8FB3" stroke-width="0.5" stroke-miterlimit="10"/>
<path d="M42.9555 92.1304L50 85.0858L21.8207 56.9065L14.7762 63.9511L42.9555 92.1304Z" stroke="#7D8FB3" stroke-width="0.5" stroke-miterlimit="10"/>
<path d="M21.8209 70.9957L14.7764 63.9512L-13.4029 92.1305L-6.35838 99.175L21.8209 70.9957Z" stroke="#7D8FB3" stroke-width="0.5" stroke-miterlimit="10"/>
<path d="M28.8648 78.0403L21.8203 70.9957L-6.35896 99.175L0.68558 106.22L28.8648 78.0403Z" stroke="#7D8FB3" stroke-width="0.5" stroke-miterlimit="10"/>
<path d="M50.0004 113.264L57.0449 106.219L28.8656 78.0402L21.8211 85.0847L50.0004 113.264Z" stroke="#7D8FB3" stroke-width="0.5" stroke-miterlimit="10"/>
<path d="M42.9555 120.309L50 113.264L21.8207 85.0847L14.7762 92.1292L42.9555 120.309Z" stroke="#7D8FB3" stroke-width="0.5" stroke-miterlimit="10"/>
<path d="M21.8209 99.1739L14.7764 92.1293L-13.4029 120.309L-6.35838 127.353L21.8209 99.1739Z" stroke="#7D8FB3" stroke-width="0.5" stroke-miterlimit="10"/>
<path d="M28.8648 106.218L21.8203 99.174L-6.35897 127.353L0.685567 134.398L28.8648 106.218Z" stroke="#7D8FB3" stroke-width="0.5" stroke-miterlimit="10"/>
<path d="M106.359 0.551244L113.403 -6.49329L85.224 -34.6726L78.1795 -27.628L106.359 0.551244Z" stroke="#7D8FB3" stroke-width="0.5" stroke-miterlimit="10"/>
<path d="M99.3139 7.59581L106.358 0.55127L78.1791 -27.628L71.1346 -20.5835L99.3139 7.59581Z" stroke="#7D8FB3" stroke-width="0.5" stroke-miterlimit="10"/>
<path d="M78.1793 -13.5388L71.1348 -20.5834L42.9555 7.59591L50 14.6404L78.1793 -13.5388Z" stroke="#7D8FB3" stroke-width="0.5" stroke-miterlimit="10"/>
<path d="M85.2242 -6.49431L78.1797 -13.5388L50.0004 14.6404L57.0449 21.685L85.2242 -6.49431Z" stroke="#7D8FB3" stroke-width="0.5" stroke-miterlimit="10"/>
<path d="M106.359 28.7295L113.403 21.6849L85.224 -6.49435L78.1795 0.550184L106.359 28.7295Z" stroke="#7D8FB3" stroke-width="0.5" stroke-miterlimit="10"/>
<path d="M99.3139 35.7741L106.358 28.7296L78.1791 0.550271L71.1346 7.59481L99.3139 35.7741Z" stroke="#7D8FB3" stroke-width="0.5" stroke-miterlimit="10"/>
<path d="M78.1793 14.6393L71.1348 7.59479L42.9555 35.7741L50 42.8186L78.1793 14.6393Z" stroke="#7D8FB3" stroke-width="0.5" stroke-miterlimit="10"/>
<path d="M85.2242 21.6839L78.1797 14.6393L50.0004 42.8186L57.045 49.8631L85.2242 21.6839Z" stroke="#7D8FB3" stroke-width="0.5" stroke-miterlimit="10"/>
<path d="M106.359 56.9077L113.403 49.8632L85.224 21.6839L78.1795 28.7284L106.359 56.9077Z" stroke="#7D8FB3" stroke-width="0.5" stroke-miterlimit="10"/>
<path d="M99.3139 63.9522L106.358 56.9077L78.1791 28.7284L71.1346 35.7729L99.3139 63.9522Z" stroke="#7D8FB3" stroke-width="0.5" stroke-miterlimit="10"/>
<path d="M78.1793 42.8175L71.1348 35.7729L42.9555 63.9522L50 70.9967L78.1793 42.8175Z" stroke="#7D8FB3" stroke-width="0.5" stroke-miterlimit="10"/>
<path d="M85.2242 49.8621L78.1797 42.8176L50.0004 70.9968L57.0449 78.0414L85.2242 49.8621Z" stroke="#7D8FB3" stroke-width="0.5" stroke-miterlimit="10"/>
<path d="M106.359 85.0859L113.403 78.0413L85.224 49.862L78.1795 56.9066L106.359 85.0859Z" stroke="#7D8FB3" stroke-width="0.5" stroke-miterlimit="10"/>
<path d="M99.3139 92.1304L106.358 85.0859L78.1791 56.9066L71.1346 63.9511L99.3139 92.1304Z" stroke="#7D8FB3" stroke-width="0.5" stroke-miterlimit="10"/>
<path d="M78.1793 70.9956L71.1348 63.9511L42.9555 92.1304L50 99.1749L78.1793 70.9956Z" stroke="#7D8FB3" stroke-width="0.5" stroke-miterlimit="10"/>
<path d="M85.2242 78.0403L78.1797 70.9957L50.0004 99.175L57.045 106.22L85.2242 78.0403Z" stroke="#7D8FB3" stroke-width="0.5" stroke-miterlimit="10"/>
<path d="M106.359 113.264L113.403 106.219L85.224 78.0402L78.1795 85.0847L106.359 113.264Z" stroke="#7D8FB3" stroke-width="0.5" stroke-miterlimit="10"/>
<path d="M99.3139 120.309L106.358 113.264L78.1791 85.0848L71.1346 92.1293L99.3139 120.309Z" stroke="#7D8FB3" stroke-width="0.5" stroke-miterlimit="10"/>
<path d="M78.1793 99.1739L71.1348 92.1293L42.9555 120.309L50 127.353L78.1793 99.1739Z" stroke="#7D8FB3" stroke-width="0.5" stroke-miterlimit="10"/>
<path d="M85.2242 106.218L78.1797 99.1739L50.0004 127.353L57.0449 134.398L85.2242 106.218Z" stroke="#7D8FB3" stroke-width="0.5" stroke-miterlimit="10"/>
<path d="M134.538 -13.5388L127.493 -20.5833L99.3139 7.59594L106.358 14.6405L134.538 -13.5388Z" stroke="#7D8FB3" stroke-width="0.5" stroke-miterlimit="10"/>
<path d="M134.538 14.6393L127.493 7.59479L99.3139 35.7741L106.358 42.8186L134.538 14.6393Z" stroke="#7D8FB3" stroke-width="0.5" stroke-miterlimit="10"/>
<path d="M134.538 42.8175L127.493 35.773L99.3139 63.9523L106.358 70.9968L134.538 42.8175Z" stroke="#7D8FB3" stroke-width="0.5" stroke-miterlimit="10"/>
<path d="M134.538 70.9957L127.493 63.9512L99.3139 92.1305L106.358 99.175L134.538 70.9957Z" stroke="#7D8FB3" stroke-width="0.5" stroke-miterlimit="10"/>
<path d="M134.538 99.1739L127.493 92.1293L99.3139 120.309L106.358 127.353L134.538 99.1739Z" stroke="#7D8FB3" stroke-width="0.5" stroke-miterlimit="10"/>
</g>
</g>
<rect x="1" y="1" width="98" height="98" stroke="#DFE3EB" stroke-width="2"/>
<defs>
<clipPath id="clip0_4206_8442">
<rect width="100" height="100" fill="white"/>
</clipPath>
<clipPath id="clip1_4206_8442">
<rect width="240" height="197.725" fill="white" transform="translate(-70 -49)"/>
</clipPath>
</defs>
</svg>
