<svg width="100" height="100" viewBox="0 0 100 100" fill="none" xmlns="http://www.w3.org/2000/svg">
<g clip-path="url(#clip0_4206_8296)">
<rect width="100" height="100" fill="white"/>
<g clip-path="url(#clip1_4206_8296)">
<path d="M24.6779 -29.381L-0.744141 -3.96001V12.714L24.6779 -12.707V-29.381Z" stroke="#7D8FB3" stroke-width="0.5125" stroke-miterlimit="10"/>
<path d="M24.6779 -12.707L-0.744141 12.714V29.388L24.6779 3.967V-12.707Z" stroke="#7D8FB3" stroke-width="0.5125" stroke-miterlimit="10"/>
<path d="M24.6779 3.966L-0.744141 29.388V46.062L24.6779 20.64V3.966Z" stroke="#7D8FB3" stroke-width="0.5125" stroke-miterlimit="10"/>
<path d="M24.6779 20.64L-0.744141 46.062V62.736L24.6779 37.314V20.64Z" stroke="#7D8FB3" stroke-width="0.5125" stroke-miterlimit="10"/>
<path d="M24.6779 37.314L-0.744141 62.736V79.41L24.6779 53.988V37.314Z" stroke="#7D8FB3" stroke-width="0.5125" stroke-miterlimit="10"/>
<path d="M24.6779 53.988L-0.744141 79.41V96.084L24.6779 70.662V53.988Z" stroke="#7D8FB3" stroke-width="0.5125" stroke-miterlimit="10"/>
<path d="M24.6779 70.662L-0.744141 96.084V112.758L24.6779 87.336V70.662Z" stroke="#7D8FB3" stroke-width="0.5125" stroke-miterlimit="10"/>
<path d="M24.6777 -29.381L50.0997 -3.96001V12.714L24.6777 -12.707V-29.381Z" stroke="#7D8FB3" stroke-width="0.5125" stroke-miterlimit="10"/>
<path d="M24.6777 -12.707L50.0997 12.714V29.388L24.6777 3.967V-12.707Z" stroke="#7D8FB3" stroke-width="0.5125" stroke-miterlimit="10"/>
<path d="M24.6777 3.966L50.0997 29.388V46.062L24.6777 20.64V3.966Z" stroke="#7D8FB3" stroke-width="0.5125" stroke-miterlimit="10"/>
<path d="M24.6777 20.64L50.0997 46.062V62.736L24.6777 37.314V20.64Z" stroke="#7D8FB3" stroke-width="0.5125" stroke-miterlimit="10"/>
<path d="M24.6777 37.314L50.0997 62.736V79.41L24.6777 53.988V37.314Z" stroke="#7D8FB3" stroke-width="0.5125" stroke-miterlimit="10"/>
<path d="M24.6777 53.988L50.0997 79.41V96.084L24.6777 70.662V53.988Z" stroke="#7D8FB3" stroke-width="0.5125" stroke-miterlimit="10"/>
<path d="M24.6777 70.662L50.0997 96.084V112.758L24.6777 87.336V70.662Z" stroke="#7D8FB3" stroke-width="0.5125" stroke-miterlimit="10"/>
<path d="M75.5206 -29.381L50.0996 -3.96001V12.714L75.5206 -12.707V-29.381Z" stroke="#7D8FB3" stroke-width="0.5125" stroke-miterlimit="10"/>
<path d="M75.5206 -12.707L50.0996 12.714V29.388L75.5206 3.967V-12.707Z" stroke="#7D8FB3" stroke-width="0.5125" stroke-miterlimit="10"/>
<path d="M75.5206 3.966L50.0996 29.388V46.062L75.5206 20.64V3.966Z" stroke="#7D8FB3" stroke-width="0.5125" stroke-miterlimit="10"/>
<path d="M75.5206 20.64L50.0996 46.062V62.736L75.5206 37.314V20.64Z" stroke="#7D8FB3" stroke-width="0.5125" stroke-miterlimit="10"/>
<path d="M75.5206 37.314L50.0996 62.736V79.41L75.5206 53.988V37.314Z" stroke="#7D8FB3" stroke-width="0.5125" stroke-miterlimit="10"/>
<path d="M75.5206 53.988L50.0996 79.41V96.084L75.5206 70.662V53.988Z" stroke="#7D8FB3" stroke-width="0.5125" stroke-miterlimit="10"/>
<path d="M75.5206 70.662L50.0996 96.084V112.758L75.5206 87.336V70.662Z" stroke="#7D8FB3" stroke-width="0.5125" stroke-miterlimit="10"/>
<path d="M75.5215 -29.381L100.943 -3.96001V12.714L75.5215 -12.707V-29.381Z" stroke="#7D8FB3" stroke-width="0.5125" stroke-miterlimit="10"/>
<path d="M75.5215 -12.707L100.943 12.714V29.388L75.5215 3.967V-12.707Z" stroke="#7D8FB3" stroke-width="0.5125" stroke-miterlimit="10"/>
<path d="M75.5215 3.966L100.943 29.388V46.062L75.5215 20.64V3.966Z" stroke="#7D8FB3" stroke-width="0.5125" stroke-miterlimit="10"/>
<path d="M75.5215 20.64L100.943 46.062V62.736L75.5215 37.314V20.64Z" stroke="#7D8FB3" stroke-width="0.5125" stroke-miterlimit="10"/>
<path d="M75.5215 37.314L100.943 62.736V79.41L75.5215 53.988V37.314Z" stroke="#7D8FB3" stroke-width="0.5125" stroke-miterlimit="10"/>
<path d="M75.5215 53.988L100.943 79.41V96.084L75.5215 70.662V53.988Z" stroke="#7D8FB3" stroke-width="0.5125" stroke-miterlimit="10"/>
<path d="M75.5215 70.662L100.943 96.084V112.758L75.5215 87.336V70.662Z" stroke="#7D8FB3" stroke-width="0.5125" stroke-miterlimit="10"/>
<path d="M24.6779 87.336L-0.744141 112.758V129.432L24.6779 104.01V87.336Z" stroke="#7D8FB3" stroke-width="0.5125" stroke-miterlimit="10"/>
<path d="M24.6777 87.336L50.0997 112.758V129.432L24.6777 104.01V87.336Z" stroke="#7D8FB3" stroke-width="0.5125" stroke-miterlimit="10"/>
<path d="M75.5206 87.336L50.0996 112.758V129.432L75.5206 104.01V87.336Z" stroke="#7D8FB3" stroke-width="0.5125" stroke-miterlimit="10"/>
<path d="M75.5215 87.336L100.943 112.758V129.432L75.5215 104.01V87.336Z" stroke="#7D8FB3" stroke-width="0.5125" stroke-miterlimit="10"/>
</g>
</g>
<rect x="1" y="1" width="98" height="98" stroke="#DFE3EB" stroke-width="2"/>
<defs>
<clipPath id="clip0_4206_8296">
<rect width="100" height="100" fill="white"/>
</clipPath>
<clipPath id="clip1_4206_8296">
<rect width="102.2" height="160.051" fill="white" transform="translate(-1 -30)"/>
</clipPath>
</defs>
</svg>
