<svg width="100" height="100" viewBox="0 0 100 100" fill="none" xmlns="http://www.w3.org/2000/svg">
<g clip-path="url(#clip0_4575_7776)">
<rect width="100" height="100" fill="white"/>
<g clip-path="url(#clip1_4575_7776)">
<path fill-rule="evenodd" clip-rule="evenodd" d="M10.9648 36.8665H-0.759598L-0.759598 -8.53275H10.9648L10.9648 36.8665ZM10.4648 36.3665L10.4648 -8.03275H-0.259598L-0.259598 36.3665H10.4648Z" fill="#7D8FB3"/>
<path fill-rule="evenodd" clip-rule="evenodd" d="M10.9648 81.7659H-0.759598L-0.759598 36.3667H10.9648L10.9648 81.7659ZM10.4648 81.2659L10.4648 36.8667H-0.259598L-0.259598 81.2659H10.4648Z" fill="#7D8FB3"/>
<path fill-rule="evenodd" clip-rule="evenodd" d="M10.9648 126.665H-0.759598L-0.759598 81.2658H10.9648L10.9648 126.665ZM10.4648 126.165L10.4648 81.7658H-0.259598L-0.259598 126.165H10.4648Z" fill="#7D8FB3"/>
<path fill-rule="evenodd" clip-rule="evenodd" d="M22.1895 14.4167L10.465 14.4167L10.465 -30.9825H22.1895L22.1895 14.4167ZM21.6895 13.9167L21.6895 -30.4825H10.965L10.965 13.9167L21.6895 13.9167Z" fill="#7D8FB3"/>
<path fill-rule="evenodd" clip-rule="evenodd" d="M22.1895 59.3162H10.465L10.465 13.917H22.1895L22.1895 59.3162ZM21.6895 58.8162L21.6895 14.417H10.965L10.965 58.8162H21.6895Z" fill="#7D8FB3"/>
<path fill-rule="evenodd" clip-rule="evenodd" d="M22.1895 104.215H10.465L10.465 58.8162H22.1895L22.1895 104.215ZM21.6895 103.715L21.6895 59.3162H10.965L10.965 103.715H21.6895Z" fill="#7D8FB3"/>
<path fill-rule="evenodd" clip-rule="evenodd" d="M33.4131 36.8665H21.6887L21.6887 -8.53275H33.4131L33.4131 36.8665ZM32.9131 36.3665L32.9131 -8.03275H22.1887L22.1887 36.3665H32.9131Z" fill="#7D8FB3"/>
<path fill-rule="evenodd" clip-rule="evenodd" d="M33.4131 81.7659H21.6887L21.6887 36.3667H33.4131L33.4131 81.7659ZM32.9131 81.2659L32.9131 36.8667H22.1887L22.1887 81.2659H32.9131Z" fill="#7D8FB3"/>
<path fill-rule="evenodd" clip-rule="evenodd" d="M33.4131 126.665H21.6887L21.6887 81.2658H33.4131L33.4131 126.665ZM32.9131 126.165L32.9131 81.7658H22.1887L22.1887 126.165H32.9131Z" fill="#7D8FB3"/>
<path fill-rule="evenodd" clip-rule="evenodd" d="M44.6377 14.4167L32.9133 14.4167L32.9133 -30.9825H44.6377L44.6377 14.4167ZM44.1377 13.9167L44.1377 -30.4825H33.4133L33.4133 13.9167L44.1377 13.9167Z" fill="#7D8FB3"/>
<path fill-rule="evenodd" clip-rule="evenodd" d="M44.6377 59.3162H32.9133L32.9133 13.917H44.6377L44.6377 59.3162ZM44.1377 58.8162L44.1377 14.417H33.4133L33.4133 58.8162H44.1377Z" fill="#7D8FB3"/>
<path fill-rule="evenodd" clip-rule="evenodd" d="M44.6377 104.215H32.9133L32.9133 58.8162H44.6377L44.6377 104.215ZM44.1377 103.715L44.1377 59.3162H33.4133L33.4133 103.715H44.1377Z" fill="#7D8FB3"/>
<path fill-rule="evenodd" clip-rule="evenodd" d="M55.8623 36.8665H44.1379L44.1379 -8.53275H55.8623L55.8623 36.8665ZM55.3623 36.3665L55.3623 -8.03275H44.6379L44.6379 36.3665H55.3623Z" fill="#7D8FB3"/>
<path fill-rule="evenodd" clip-rule="evenodd" d="M55.8623 81.7659H44.1379L44.1379 36.3667H55.8623L55.8623 81.7659ZM55.3623 81.2659L55.3623 36.8667H44.6379L44.6379 81.2659H55.3623Z" fill="#7D8FB3"/>
<path fill-rule="evenodd" clip-rule="evenodd" d="M55.8623 126.665H44.1379L44.1379 81.2658H55.8623L55.8623 126.665ZM55.3623 126.165L55.3623 81.7658H44.6379L44.6379 126.165H55.3623Z" fill="#7D8FB3"/>
<path fill-rule="evenodd" clip-rule="evenodd" d="M67.0869 14.4167L55.3625 14.4167L55.3625 -30.9825H67.0869V14.4167ZM66.5869 13.9167V-30.4825H55.8625L55.8625 13.9167L66.5869 13.9167Z" fill="#7D8FB3"/>
<path fill-rule="evenodd" clip-rule="evenodd" d="M67.0869 59.3162H55.3625L55.3625 13.917H67.0869V59.3162ZM66.5869 58.8162V14.417H55.8625L55.8625 58.8162H66.5869Z" fill="#7D8FB3"/>
<path fill-rule="evenodd" clip-rule="evenodd" d="M67.0869 104.215H55.3625L55.3625 58.8162H67.0869V104.215ZM66.5869 103.715V59.3162H55.8625L55.8625 103.715H66.5869Z" fill="#7D8FB3"/>
<path fill-rule="evenodd" clip-rule="evenodd" d="M78.3115 36.8665H66.5871V-8.53275H78.3115V36.8665ZM77.8115 36.3665V-8.03275H67.0871V36.3665H77.8115Z" fill="#7D8FB3"/>
<path fill-rule="evenodd" clip-rule="evenodd" d="M78.3115 81.7659H66.5871V36.3667H78.3115V81.7659ZM77.8115 81.2659V36.8667H67.0871V81.2659H77.8115Z" fill="#7D8FB3"/>
<path fill-rule="evenodd" clip-rule="evenodd" d="M78.3115 126.665H66.5871V81.2658H78.3115V126.665ZM77.8115 126.165V81.7658H67.0871V126.165H77.8115Z" fill="#7D8FB3"/>
<path fill-rule="evenodd" clip-rule="evenodd" d="M89.5352 14.4167L77.8107 14.4167V-30.9825H89.5352V14.4167ZM89.0352 13.9167V-30.4825H78.3107V13.9167L89.0352 13.9167Z" fill="#7D8FB3"/>
<path fill-rule="evenodd" clip-rule="evenodd" d="M89.5352 59.3162H77.8107V13.917H89.5352V59.3162ZM89.0352 58.8162V14.417H78.3107V58.8162H89.0352Z" fill="#7D8FB3"/>
<path fill-rule="evenodd" clip-rule="evenodd" d="M89.5352 104.215H77.8107V58.8162H89.5352V104.215ZM89.0352 103.715V59.3162H78.3107V103.715H89.0352Z" fill="#7D8FB3"/>
<path fill-rule="evenodd" clip-rule="evenodd" d="M100.76 36.8665H89.0353V-8.53275H100.76V36.8665ZM100.26 36.3665V-8.03275H89.5353V36.3665H100.26Z" fill="#7D8FB3"/>
<path fill-rule="evenodd" clip-rule="evenodd" d="M100.76 81.7659H89.0353V36.3667H100.76V81.7659ZM100.26 81.2659V36.8667H89.5353V81.2659H100.26Z" fill="#7D8FB3"/>
<path fill-rule="evenodd" clip-rule="evenodd" d="M100.76 126.665H89.0353V81.2658H100.76V126.665ZM100.26 126.165V81.7658H89.5353V126.165H100.26Z" fill="#7D8FB3"/>
</g>
</g>
<rect x="1" y="1" width="98" height="98" stroke="#DFE3EB" stroke-width="2"/>
<defs>
<clipPath id="clip0_4575_7776">
<rect width="100" height="100" fill="white"/>
</clipPath>
<clipPath id="clip1_4575_7776">
<rect width="214" height="225.233" fill="white" transform="translate(-57 -76)"/>
</clipPath>
</defs>
</svg>
