<svg width="39" height="40" viewBox="0 0 39 40" fill="none" xmlns="http://www.w3.org/2000/svg">
<g clip-path="url(#clip0_4555_7854)">
<path fill-rule="evenodd" clip-rule="evenodd" d="M27.0171 1.17647H11.1593C10.1862 1.17647 9.39731 1.96656 9.39731 2.94118V15.3621L8.22266 16.1284V2.94118C8.22266 1.31681 9.53743 0 11.1593 0H27.0171C28.639 0 29.9538 1.31681 29.9538 2.94118V15.7458L31.1666 16.5369L30.5739 17.4757L25.9783 14.478L26.571 13.5392L28.7791 14.9796V2.94118C28.7791 1.96656 27.9903 1.17647 27.0171 1.17647ZM9.39731 27.9089L12.1818 29.8099L12.7937 28.8839L8.19846 25.7466L7.58657 26.6726L8.22266 27.1069V37.0588C8.22266 38.6832 9.53743 40 11.1593 40H27.0171C28.639 40 29.9538 38.6832 29.9538 37.0588V27.5069L28.7791 28.3088V37.0588C28.7791 38.0334 27.9903 38.8235 27.0171 38.8235H11.1593C10.1862 38.8235 9.39731 38.0334 9.39731 37.0588V27.9089ZM3.00098 19.5354L0 21.4931L2.99132 23.5354L3.6032 22.6093L1.99926 21.5143L3.59367 20.4741L3.00098 19.5354ZM12.1918 13.5395L7.59636 16.5374L8.18906 17.4762L12.7845 14.4783L12.1918 13.5395ZM19.3812 8.84927L16.7871 10.5416L17.3798 11.4803L19.3812 10.1747L21.3826 11.4803L21.9753 10.5414L19.3812 8.84927ZM17.389 32.0211L16.7771 32.9472L19.3806 34.7246L21.9844 32.947L21.3726 32.021L19.3807 33.3809L17.389 32.0211ZM26.5802 29.8096L31.1759 26.6721L30.5641 25.7461L25.9684 28.8836L26.5802 29.8096ZM38.7634 21.4923L35.7622 19.5346L35.1695 20.4734L36.764 21.5135L35.1599 22.6086L35.7717 23.5346L38.7634 21.4923ZM16.6462 24.4776C17.1135 24.4776 17.507 24.4353 17.8349 24.3421C18.1547 24.2574 18.417 24.1219 18.6138 23.9526C18.8105 23.7832 18.9499 23.5715 19.0401 23.3259C19.1221 23.0803 19.1713 22.8009 19.1713 22.4875C19.1713 21.9456 19.0155 21.5222 18.7204 21.2342C18.417 20.9463 17.9907 20.7939 17.4496 20.777L17.1381 20.7685L18.7368 19.295V18.5074H14.3916V19.4982H17.3184L15.9575 20.7854V21.5052H16.6462C16.9495 21.5052 17.1955 21.5306 17.3758 21.573C17.5562 21.6238 17.6874 21.6831 17.7857 21.7677C17.8841 21.8524 17.9415 21.9456 17.9743 22.0641C18.0071 22.1827 18.0235 22.3097 18.0235 22.4537C18.0235 22.6146 17.9989 22.7585 17.9579 22.8771C17.9169 23.0041 17.8431 23.1142 17.7366 23.1989C17.63 23.2836 17.4906 23.3513 17.3102 23.3937C17.1299 23.4445 16.9085 23.4614 16.6298 23.4614C16.4166 23.4614 16.2199 23.4445 16.0559 23.4106C15.8837 23.3767 15.7362 23.3174 15.6214 23.2328C15.4984 23.1481 15.4082 23.0295 15.3426 22.8771C15.277 22.7247 15.2361 22.5384 15.2361 22.3012H14.0965C14.0883 22.7162 14.1457 23.0634 14.2604 23.3344C14.3752 23.6138 14.5474 23.834 14.7687 24.0034C14.9901 24.1727 15.2606 24.2998 15.5804 24.3675C15.8919 24.4437 16.2527 24.4776 16.6462 24.4776ZM19.9668 24.3506V18.5074H22.3771C22.8362 18.5074 23.2461 18.5498 23.6069 18.626C23.9676 18.7022 24.2627 18.8462 24.5087 19.0579C24.7546 19.2696 24.935 19.566 25.0662 19.9471C25.1891 20.3281 25.2547 20.8278 25.2547 21.4375C25.2547 22.0133 25.1891 22.4875 25.0744 22.8602C24.9596 23.2328 24.7792 23.5291 24.5415 23.7493C24.3037 23.9695 24.0086 24.1304 23.6478 24.2151C23.2871 24.3082 22.8608 24.3506 22.3771 24.3506H19.9668ZM21.0818 23.3598H22.2787C22.5903 23.3598 22.8608 23.3428 23.0904 23.3005C23.3199 23.2582 23.5085 23.165 23.6642 23.0295C23.8118 22.894 23.9266 22.6993 24.0086 22.4452C24.0824 22.1912 24.1234 21.8609 24.1234 21.4375C24.1234 20.9887 24.0824 20.633 24.0086 20.3705C23.9266 20.1164 23.8118 19.9217 23.656 19.7862C23.5003 19.6591 23.3117 19.5829 23.0822 19.549C22.8526 19.5152 22.5821 19.4982 22.2787 19.4982H21.0818V23.3598ZM21.232 2.26416H17.5325C16.9072 2.26416 16.4004 2.77101 16.4004 3.39624C16.4004 4.02146 16.9072 4.52831 17.5325 4.52831H21.232C21.8572 4.52831 22.364 4.02146 22.364 3.39624C22.364 2.77101 21.8572 2.26416 21.232 2.26416ZM15.2865 36.9817H22.7318C22.9402 36.9817 23.1092 37.1506 23.1092 37.3591C23.1092 37.5675 22.9402 37.7364 22.7318 37.7364H15.2865C15.0781 37.7364 14.9092 37.5675 14.9092 37.3591C14.9092 37.1506 15.0781 36.9817 15.2865 36.9817Z" fill="#0D111A"/>
</g>
<defs>
<clipPath id="clip0_4555_7854">
<rect width="39" height="40" fill="white"/>
</clipPath>
</defs>
</svg>
