<svg width="32" height="32" viewBox="0 0 32 32" fill="none" xmlns="http://www.w3.org/2000/svg">
<g clip-path="url(#clip0_4573_7794)">
<path fill-rule="evenodd" clip-rule="evenodd" d="M9.69272 3H22.243C23.0781 4.8576 24.4758 6.08414 25.9114 6.85057C26.9583 7.40951 28.0442 7.73645 29 7.90312V29H26.1845C28.3485 23.1013 29.0291 19.6839 28.4997 15.1479C28.483 15.0046 28.4651 14.8232 28.4456 14.6258L28.4456 14.6255L28.4456 14.6254C28.4115 14.2799 28.3726 13.8853 28.3266 13.5595C28.066 11.713 26.8561 7.16802 21.4545 5.8176C17.3354 4.78782 13.2198 5.69115 9.6254 7.30544C7.18977 8.39932 4.93765 9.84369 3 11.3219V7.49785C3.82237 7.48101 4.7319 7.32529 5.64283 6.95137C7.19862 6.31275 8.67001 5.073 9.69272 3ZM27.3243 4.20413C26.756 3.90073 26.2219 3.50819 25.7729 3H29V4.83923C28.4636 4.70686 27.8835 4.50269 27.3243 4.20413ZM6.12972 3H3V4.4968C3.46042 4.48068 3.98114 4.39055 4.50363 4.17608C5.03533 3.95783 5.60367 3.59712 6.12972 3ZM25.52 15.4957C25.9973 19.586 25.4001 22.5886 22.9834 29H19.9931C21.3984 26.0687 22.0272 23.3143 21.8605 20.8969C21.6457 17.7823 20.0999 15.2819 17.3985 13.9312C14.1811 12.3225 10.2053 13.4009 7.13146 14.9849C5.60222 15.7729 4.17748 16.7438 3 17.7504V15.1842C5.15507 13.3258 7.88285 11.3767 10.8545 10.0421C14.0869 8.59036 17.4865 7.91793 20.7269 8.72803C24.3273 9.62815 25.1553 12.5568 25.3561 13.9788C25.3977 14.2735 25.4208 14.5164 25.4467 14.7887V14.7887C25.4664 14.9956 25.4877 15.2194 25.52 15.4957ZM3 28.1973V29H11.1415C12.5743 27.7735 13.3736 26.9159 13.8407 26.1374C14.3127 25.3507 14.4997 24.5525 14.4997 23.2727C14.4997 22.4328 14.143 22.0181 13.5851 21.7763C12.9132 21.4852 11.8419 21.4316 10.6125 21.8004C9.14497 22.2406 7.71982 23.3084 6.31609 24.6683C5.62517 25.3376 4.97038 26.0462 4.33604 26.7429L4.07821 27.0264L4.0781 27.0266C3.71392 27.4274 3.35136 27.8264 3 28.1973ZM3 23.7667C3.39055 23.3512 3.80104 22.9279 4.2287 22.5135C5.73406 21.0552 7.58164 19.5775 9.75047 18.9269C11.4302 18.423 13.2679 18.3694 14.7779 19.0237C16.4018 19.7274 17.4997 21.2035 17.4997 23.2727C17.4997 24.902 17.2503 26.2856 16.4132 27.6808C16.1454 28.1272 15.8242 28.5626 15.4486 29H16.6161C18.3651 25.8553 19.0097 23.1636 18.8676 21.1033C18.7187 18.9452 17.7191 17.4456 16.0568 16.6145C14.1833 15.6777 11.3712 16.175 8.50566 17.6516C7.12845 18.3613 5.85005 19.2439 4.82741 20.1361C3.97359 20.881 3.35963 21.5789 3 22.1363V23.7667ZM0 32V0H32V32H0Z" fill="#7D8FB3"/>
</g>
<defs>
<clipPath id="clip0_4573_7794">
<rect width="32" height="32" fill="white"/>
</clipPath>
</defs>
</svg>
