<svg width="32" height="32" viewBox="0 0 32 32" fill="none" xmlns="http://www.w3.org/2000/svg">
<path fill-rule="evenodd" clip-rule="evenodd" d="M1.33398 1.33334H15.1061L20.0283 3.79442L16.134 6.71516V11.4716L13.1777 13.4424H8.43903L11.1299 24.2061H17.9934L19.3388 21.5152H22.8613V30.9333H1.33398V1.33334ZM4.02489 4.02425V28.2424H20.1703V25.8691L19.6564 26.897H9.02894L4.99258 10.7515H12.363L13.4431 10.0315V5.36971L14.9306 4.25408L14.4709 4.02425H4.02489Z" fill="#7D8FB3"/>
<path fill-rule="evenodd" clip-rule="evenodd" d="M25.0798 1.33334H30.9336V30.9333H24.2063V20.1697H18.3106L16.9652 22.8606H12.3922L10.374 14.7879H14.3808L17.4791 12.7224V7.41396L25.0798 1.33334ZM26.0238 4.02425L20.17 8.70727V14.1625L15.1955 17.4788H13.8205L14.4932 20.1697H15.3021L16.6475 17.4788H26.8972V28.2424H28.2427V4.02425H26.0238Z" fill="#7D8FB3"/>
</svg>
