<svg width="182" height="33" viewBox="0 0 182 33" fill="none" xmlns="http://www.w3.org/2000/svg">
<path d="M173.967 8.13824H177.281V8.76798H175.975V11.1416H175.222V8.76798H173.917V8.13824H173.967ZM181.95 11.19H181.197V9.01019L180.142 11.19H179.49L178.435 9.05863V11.19H177.682V8.18669H178.687L179.841 10.415L180.996 8.18669H182V11.19H181.95Z" fill="#0D111A"/>
<path d="M70.3398 11.19H66.8253L61.8548 22.2831L56.8843 11.19H54.8761H53.42H50.6085L42.726 17.8265V11.19H39.3119V25.4802H42.726V21.7502L45.3869 19.4735L50.6085 25.4802H54.5748V24.9473L48.0479 17.4874L53.8217 12.5464L59.8967 25.4802H63.8631L70.3398 11.6744V11.19Z" fill="#0D111A"/>
<path d="M75.9631 11.19L69.3859 24.9474V25.4318H72.7498L74.1054 22.4769H81.4858L82.8414 25.4318H86.2053V24.9474L79.6282 11.1416H75.9631V11.19ZM75.4108 19.6673L77.8207 14.3387L80.2306 19.6673H75.4108Z" fill="#0D111A"/>
<path d="M95.7443 11.19H88.3639V25.4802H95.7443C98.5057 25.4802 100.614 24.8989 102.02 23.7363C103.426 22.5737 104.129 20.8298 104.129 18.5046V18.2624C104.129 15.9373 103.426 14.1934 101.97 12.9823C100.514 11.7713 98.5057 11.19 95.7443 11.19ZM100.715 18.5046C100.715 19.861 100.313 20.8783 99.5099 21.5564C98.7065 22.1862 97.4514 22.5253 95.7443 22.5253H91.7278V14.0965H95.6941C97.3509 14.0965 98.6061 14.4356 99.4596 15.1137C100.263 15.7919 100.715 16.8092 100.715 18.1656V18.5046Z" fill="#0D111A"/>
<path d="M116.53 11.19H107.141V25.4802H110.505V20.3454H113.618L118.237 25.4802H122.103V24.9958L117.785 20.297C119.191 20.1032 120.245 19.6672 121.048 18.8922C121.802 18.1656 122.203 17.1967 122.203 16.0341V15.7919C122.203 14.3387 121.701 13.2245 120.697 12.401C119.643 11.5775 118.287 11.19 116.53 11.19ZM118.689 15.9857C118.689 16.5185 118.488 16.9545 118.086 17.2452C117.685 17.5358 117.132 17.6811 116.379 17.6811H110.455V14.0965H116.379C117.132 14.0965 117.685 14.2418 118.086 14.5325C118.488 14.8231 118.639 15.2106 118.639 15.7435V15.9857H118.689Z" fill="#0D111A"/>
<path d="M130.588 11.19L124.011 24.9958V25.4802H127.375L128.73 22.5253H136.161L137.517 25.4802H140.88V24.9958L134.303 11.19H130.588ZM130.036 19.6672L132.446 14.3387L134.856 19.6672H130.036Z" fill="#0D111A"/>
<path d="M139.726 14.0965H145.5V25.4802H148.914V14.0965H154.688V11.19H139.726V14.0965Z" fill="#0D111A"/>
<path d="M170 14.048V11.19H156.796V25.4802H170V22.5737H160.21V19.7157H169.548V16.9061H160.21V14.048H170Z" fill="#0D111A"/>
<path d="M25.2541 11.1899V11.6743L18.7774 25.4801H14.8613L8.38457 11.6743V11.1899H11.8488L16.8193 22.2829L21.7898 11.1899H25.2541Z" fill="#0D111A"/>
<path d="M33.5886 6.58802V8.13814H25.204V6.6849L29.2206 4.50504C29.7729 4.21439 30.1745 3.97219 30.4256 3.77842C30.6766 3.58466 30.8774 3.43933 30.9778 3.29401C31.0782 3.14869 31.1284 2.95492 31.1284 2.76116V2.66427C31.1284 2.32518 30.9778 2.03454 30.6264 1.84077C30.2749 1.647 29.8231 1.55012 29.1704 1.55012C28.5177 1.55012 28.0156 1.64701 27.6642 1.88921C27.3127 2.08298 27.1621 2.42207 27.1621 2.85804V3.10025H25.2542V2.85804C25.2542 1.93765 25.6057 1.21103 26.2584 0.72662C26.9111 0.242207 27.865 0 29.1202 0C30.3753 0 31.3293 0.242207 31.982 0.678179C32.6849 1.16259 33.0363 1.79233 33.0363 2.61583V2.76116C33.0363 3.14869 32.9359 3.53622 32.7853 3.82686C32.6347 4.16595 32.3334 4.4566 31.9318 4.79569C31.5301 5.13478 30.9778 5.47387 30.2247 5.8614L28.7185 6.6849H33.5886V6.58802Z" fill="#0D111A"/>
<path d="M30.9275 11.1898L30.9777 30.3726H2.66097V3.10013H22.0911V0.581177H0V32.8915H33.5885V11.1898H30.9275Z" fill="#E62E2E"/>
</svg>
