<?xml version="1.0" encoding="utf-8"?><svg viewBox="0 0 114 100" xmlns="http://www.w3.org/2000/svg" xmlns:xlink="http://www.w3.org/1999/xlink"><style>:root>svg{display:none}:root>svg:target{display:block}</style><svg viewBox="0 0 15 15" id="add-to-basket" xmlns="http://www.w3.org/2000/svg"><path d="M5 14.5a1 1 0 100-2 1 1 0 000 2zm7 0a1 1 0 100-2 1 1 0 000 2zM2.49.902A.5.5 0 002 .5H0v1h1.59l1.92 9.598A.5.5 0 004 11.5h9v-1H4.41l-.4-2H13a.5.5 0 00.488-.392L14.622 3h-1.024L12.6 7.5H3.81L2.49.902z"/><path d="M9 2.5v-2H8v2H6v1h2v2h1v-2h2v-1H9z"/></svg><svg viewBox="0 0 16 17" id="bookmark" xmlns="http://www.w3.org/2000/svg"><path d="M12 8.5v5.376l-4-2.024-4 2.022V2.5h5v-1H4a1 1 0 00-1 1v13l5-2.527 5 2.527v-7h-1z"/><path d="M13 3.5v-2h-1v2h-2v1h2v2h1v-2h2v-1h-2z"/></svg><svg viewBox="0 0 114 40" id="brand-logo" xmlns="http://www.w3.org/2000/svg"><g clip-path="url(#aca)"><path d="M0 27.338l1.928-6.694 1.251-4.538.363-1.246a3.166 3.166 0 011.202-1.77 3.076 3.076 0 011.965-.586h9.877l-.964 3.353H8.637a1.017 1.017 0 00-.688.2 1.246 1.246 0 00-.438.723l-.576 1.956h6.033l-.901 3.117H6.033L4.47 27.338H0zm43.323 0l1.928-6.694 1.314-4.538.363-1.246a3.2 3.2 0 011.127-1.745 3.126 3.126 0 012.015-.611h9.714l-.952 3.353H51.96a1.017 1.017 0 00-.688.2c-.221.184-.372.44-.426.723l-.588 1.956h6.07l-.9 3.117h-6.071l-1.565 5.485h-4.469zM16.686 15.857l.664-2.306h3.93l-.65 2.306h-3.944zm-.3 1.047h3.868L17.262 27.35h-3.88l3.004-10.446z"/><path d="M17.65 12.504l-.664 2.306h3.868l.664-2.306H17.65zm3.254 6.232a2.18 2.18 0 01.814-1.246 3.981 3.981 0 012.504-.586h3.642a4.35 4.35 0 013.267.923 3.06 3.06 0 01.413 3.091l-1.852 6.432h-3.88l1.476-5.31a2.484 2.484 0 00.088-1.795c-.213-.424-.638-.623-1.427-.623h-.689a1.005 1.005 0 00-.588.15.897.897 0 00-.338.598l-2.015 6.98h-3.88l2.465-8.614zm13.945 8.614c-1.565 0-2.892 0-3.33-1.371-.238-.748 0-1.845.538-3.74.538-1.895.901-3.465 2.128-4.437 1.227-.973 3.267-1.023 5.245-1.023 1.978 0 3.492 0 4.13.711.64.71.451 2.368.113 3.503a3.102 3.102 0 01-1.114 1.92 1.82 1.82 0 01-1.114.299h-5.783a1.44 1.44 0 000 .847c.188.524.901.486 1.602.486h5.082l-.8 2.805h-6.697zm4.38-6.594a.753.753 0 00.827-.549c.075-.274 0-.585-.513-.71a8.066 8.066 0 00-1.002-.075 4.031 4.031 0 00-1.402.175 1.474 1.474 0 00-.75 1.159h2.84zm21.318-7.206h3.88L60.46 27.338h-3.88l3.968-13.786z"/><path d="M60.848 12.504L56.88 26.303h3.88l3.968-13.8h-3.88zm14.019 5.335c.964 1.172.451 3.241.15 4.288a7.911 7.911 0 01-2.616 4.276 8.592 8.592 0 01-5.007 1.06c-1.664 0-3.505-.063-4.368-1.06-.864-.997-.45-3.241-.15-4.276a7.823 7.823 0 012.616-4.288 8.591 8.591 0 015.007-1.06c1.665 0 3.505 0 4.368 1.06zm-8.149 6.12c0 .113.326.711 1.515.711a2.622 2.622 0 001.865-.71 4.032 4.032 0 00.927-1.833c.25-.595.307-1.253.162-1.882-.125-.25-.463-.66-1.527-.66a2.68 2.68 0 00-1.915.66 4.18 4.18 0 00-.914 1.882 2.83 2.83 0 00-.15 1.832m21.004-6.12c.977 1.172.463 3.241.163 4.288a7.91 7.91 0 01-2.616 4.276 8.654 8.654 0 01-5.007 1.06c-1.652 0-3.505-.063-4.356-1.06-.851-.998-.463-3.241-.163-4.276a7.898 7.898 0 012.616-4.288 8.654 8.654 0 015.007-1.06c1.653 0 3.505 0 4.356 1.06zm-8.149 6.12c0 .113.338.711 1.528.711a2.65 2.65 0 001.902-.71 4.3 4.3 0 00.902-1.833c.257-.594.31-1.255.15-1.882-.113-.25-.451-.66-1.528-.66a2.71 2.71 0 00-1.915.66 4.317 4.317 0 00-.913 1.882 2.93 2.93 0 00-.15 1.832m9.525-2.667a5.694 5.694 0 012.228-3.403 7.384 7.384 0 014.156-.985H98l-.789 2.718h-1.34a2.892 2.892 0 00-2.177.747 4.468 4.468 0 00-1.064 1.995l-1.427 4.986h-3.88l1.714-6.058z"/></g><defs><clipPath id="aca"><path transform="translate(0 12.5)" d="M0 0h98v15H0z"/></clipPath></defs></svg><svg viewBox="0 0 16 16" id="catalog-all" xmlns="http://www.w3.org/2000/svg"><path d="M3.38 3l.225.445L3.88 4H6v2.5H2V3h1.38zm.31-1H1.5a.5.5 0 00-.5.5V7a.5.5 0 00.5.5h5A.5.5 0 007 7V3.5a.5.5 0 00-.5-.5h-2l-.36-.725A.5.5 0 003.69 2zm7.69 1l.225.445.275.555H14v2.5h-4V3h1.38zm.31-1H9.5a.5.5 0 00-.5.5V7a.5.5 0 00.5.5h5A.5.5 0 0015 7V3.5a.5.5 0 00-.5-.5h-2l-.36-.725A.5.5 0 0011.69 2zM3.38 9.5l.225.445.275.555H6V13H2V9.5h1.38zm.31-1H1.5A.5.5 0 001 9v4.5a.5.5 0 00.5.5h5a.5.5 0 00.5-.5V10a.5.5 0 00-.5-.5h-2l-.36-.725a.5.5 0 00-.45-.275zm7.69 1l.225.445.275.555H14V13h-4V9.5h1.38zm.31-1H9.5A.5.5 0 009 9v4.5a.5.5 0 00.5.5h5a.5.5 0 00.5-.5V10a.5.5 0 00-.5-.5h-2l-.36-.725a.5.5 0 00-.45-.275z"/></svg><svg viewBox="0 0 24 24" id="certificate" xmlns="http://www.w3.org/2000/svg"><path d="M18 12.75l1.434 2.777 3.066.446L20.25 18l.578 3L18 19.312 15.172 21l.578-3-2.25-2.027 3.15-.446L18 12.75zM9 12H4.5v1.5H9V12zm3-3H4.5v1.5H12V9zm0-3H4.5v1.5H12V6z"/><path d="M12 19.5H3v-15h18V12h1.5V4.5A1.5 1.5 0 0021 3H3a1.5 1.5 0 00-1.5 1.5v15A1.5 1.5 0 003 21h9v-1.5z"/></svg><svg viewBox="0 0 24 24" id="chart-multitype" xmlns="http://www.w3.org/2000/svg"><path d="M22.5 16.5H21v6h1.5v-6zm-3-3H18v9h1.5v-9zm-3 6H15v3h1.5v-3zM6.75 12a5.25 5.25 0 100 10.5 5.25 5.25 0 000-10.5zm3.674 4.5H7.5v-2.924a3.761 3.761 0 012.924 2.924zM6.75 21A3.75 3.75 0 016 13.576V16.5A1.5 1.5 0 007.5 18h2.924a3.757 3.757 0 01-3.674 3zM16.901 9l3-4.5H22.5V3h-3.401l-3 4.5H13.5v-6H12v9a1.5 1.5 0 001.5 1.5h9v-1.5h-9V9h3.401zM8.25 6a.75.75 0 100-1.5.75.75 0 000 1.5zm-1.5 3a.75.75 0 100-1.5.75.75 0 000 1.5zm-1.5-4.5a.75.75 0 100-1.5.75.75 0 000 1.5zm-1.5 3a.75.75 0 100-1.5.75.75 0 000 1.5zm-1.5 3a.75.75 0 100-1.5.75.75 0 000 1.5z"/></svg><svg viewBox="0 0 24 24" id="chat" xmlns="http://www.w3.org/2000/svg"><path d="M13.305 22.5L12 21.75l3-5.25h4.5A1.5 1.5 0 0021 15V6a1.5 1.5 0 00-1.5-1.5h-15A1.5 1.5 0 003 6v9a1.5 1.5 0 001.5 1.5h6.75V18H4.5a3 3 0 01-3-3V6a3 3 0 013-3h15a3 3 0 013 3v9a3 3 0 01-3 3h-3.63l-2.565 4.5z"/><path d="M18 7.5H6V9h12V7.5zM13.5 12H6v1.5h7.5V12z"/></svg><svg viewBox="0 0 14 14" id="copy-link" xmlns="http://www.w3.org/2000/svg"><path d="M4.974 8.5a2.474 2.474 0 01-1.75-4.223l2.553-2.552a2.474 2.474 0 013.499 3.498L9 5.5l-.708-.707.279-.279a1.475 1.475 0 00-.002-2.082 1.51 1.51 0 00-2.085 0L3.93 4.984a1.474 1.474 0 000 2.084 1.51 1.51 0 002.085 0l.707.707a2.459 2.459 0 01-1.75.725z"/><path d="M8.974 7.5a2.474 2.474 0 01-1.75-4.223L7.5 3l.708.708-.277.276a1.474 1.474 0 000 2.084 1.51 1.51 0 002.085 0l2.553-2.552a1.476 1.476 0 000-2.084 1.51 1.51 0 00-2.085 0L9.777.724a2.474 2.474 0 013.499 3.5l-2.552 2.551a2.46 2.46 0 01-1.75.725z"/><path d="M11 14H1a1.001 1.001 0 01-1-1V3a1.001 1.001 0 011-1h2v1H1v10h10V8h1v5a1.001 1.001 0 01-1 1z"/></svg><svg viewBox="0 0 32 32" id="craft" xmlns="http://www.w3.org/2000/svg"><path d="M4.9 1.5v13H1.5v-13h3.4zm4.8 13H7.9v-13h1.8v13zm3 0v-13h1.8v13h-1.8zm4.8-9.6V1.5h13v3.4h-13zm0 3h13v1.8h-13V7.9zm0 4.8h13v1.8h-13v-1.8zm9.6 4.8h3.4v13h-3.4v-13zm-3 0v13h-1.8v-13h1.8zm-4.8 0v13h-1.8v-13h1.8zm-4.8 9.6v3.4h-13v-3.4h13zm0-3h-13v-1.8h13v1.8zm0-4.8h-13v-1.8h13v1.8z"/></svg><svg viewBox="0 0 24 24" id="dashboard" xmlns="http://www.w3.org/2000/svg"><path d="M19.5 15.75H18v3.75h1.5v-3.75zm-3-3.75H15v7.5h1.5V12zm-8.25 7.5a3.755 3.755 0 01-3.75-3.75H6a2.25 2.25 0 102.25-2.25V12a3.75 3.75 0 010 7.5z"/><path d="M21 1.5H3A1.502 1.502 0 001.5 3v18A1.502 1.502 0 003 22.5h18a1.502 1.502 0 001.5-1.5V3A1.502 1.502 0 0021 1.5zm0 6.75H10.5V3H21v5.25zM9 3v5.25H3V3h6zM3 21V9.75h18L21.002 21H3z"/></svg><svg viewBox="0 0 30 30" id="decor-lk-type" xmlns="http://www.w3.org/2000/svg"><path fill-rule="evenodd" clip-rule="evenodd" d="M.334.333h13.772l4.922 2.461-3.894 2.921v4.757l-2.956 1.97H7.439l2.69 10.764h6.864l1.346-2.69h3.522v9.417H.334V.333zm2.69 2.691v24.218H19.17V24.87l-.514 1.028H8.03L3.993 9.752h7.37l1.08-.72V4.37l1.488-1.116-.46-.23H3.025z"/><path fill-rule="evenodd" clip-rule="evenodd" d="M24.08.333h5.854v29.6h-6.728V19.17h-5.895l-1.346 2.69h-4.573l-2.018-8.072h4.007l3.098-2.066V6.414l7.6-6.08zm.944 2.691L19.17 7.707v5.455l-4.975 3.317H12.82l.673 2.69h.81l1.345-2.69h10.25v10.763h1.345V3.024h-2.22z"/></svg><svg viewBox="0 0 24 24" id="doc-pdf" xmlns="http://www.w3.org/2000/svg"><path d="M22.5 13.5V12H18v7.5h1.5v-3h2.25V15H19.5v-1.5h3zm-8.25 6h-3V12h3a2.253 2.253 0 012.25 2.25v3a2.253 2.253 0 01-2.25 2.25zm-1.5-1.5h1.5a.75.75 0 00.75-.75v-3a.75.75 0 00-.75-.75h-1.5V18zm-4.5-6H4.5v7.5H6v-2.25h2.25a1.502 1.502 0 001.5-1.5V13.5a1.502 1.502 0 00-1.5-1.5zM6 15.75V13.5h2.25v2.25H6z"/><path d="M16.5 10.5v-3a.68.68 0 00-.225-.525l-5.25-5.25A.682.682 0 0010.5 1.5H3A1.504 1.504 0 001.5 3v18A1.5 1.5 0 003 22.5h12V21H3V3h6v4.5A1.504 1.504 0 0010.5 9H15v1.5h1.5zm-6-3V3.3l4.2 4.2h-4.2z"/></svg><svg viewBox="0 0 24 24" id="doc-view" xmlns="http://www.w3.org/2000/svg"><path d="M16.5 19.5a1.5 1.5 0 100-3 1.5 1.5 0 000 3z"/><path d="M22.333 17.609A6.48 6.48 0 0016.5 13.5a6.48 6.48 0 00-5.833 4.109L10.5 18l.167.391A6.48 6.48 0 0016.5 22.5a6.48 6.48 0 005.833-4.109L22.5 18l-.167-.391zM16.5 21a3 3 0 110-5.999 3 3 0 010 5.999z"/><path d="M9 21H6V3h6v4.5A1.504 1.504 0 0013.5 9H18v3h1.5V7.5a.68.68 0 00-.225-.525l-5.25-5.25A.682.682 0 0013.5 1.5H6A1.504 1.504 0 004.5 3v18A1.504 1.504 0 006 22.5h3V21zm4.5-17.7l4.2 4.2h-4.2V3.3z"/></svg><svg viewBox="0 0 22 22" id="dots" xmlns="http://www.w3.org/2000/svg"><path d="M5 11a2 2 0 10-4 0 2 2 0 004 0zm8 0a2 2 0 10-4 0 2 2 0 004 0zm8 0a2 2 0 10-4 0 2 2 0 004 0z"/></svg><svg viewBox="0 0 8 54" id="fine-app" xmlns="http://www.w3.org/2000/svg"><path d="M7.867 54h-5.48c-.42 0-.8-.106-1.138-.319a2.407 2.407 0 01-.807-.874 2.458 2.458 0 01-.31-1.217V48.6h1.393v2.8c0 .253.085.47.254.65a.82.82 0 00.608.26h1.248v-3.308h1.393v3.308h2.84V54zm0-6.425H6.475v-1.489h-4.95v1.49H.133v-4.668h1.392v1.489h4.95v-1.489h1.392v4.667zM8 35.89c0 .489-.103.918-.31 1.288a2.33 2.33 0 01-.84.863 2.28 2.28 0 01-1.16.307H2.123a.662.662 0 00-.365.106.79.79 0 00-.365.673c0 .142.033.272.1.39a.82.82 0 00.265.272c.11.07.232.106.365.106h5.745v1.69H2.31c-.427 0-.814-.102-1.16-.307a2.253 2.253 0 01-.829-.863c-.213-.37-.32-.8-.32-1.288 0-.496.107-.929.32-1.3.207-.37.483-.657.83-.862a2.236 2.236 0 011.16-.307h3.568a.662.662 0 00.365-.106.824.824 0 00.265-.272.783.783 0 00.1-.39.79.79 0 00-.365-.673.662.662 0 00-.365-.107H.133v-1.69H5.69c.42 0 .806.103 1.16.308.346.205.626.492.84.863.206.37.309.803.309 1.3zm-.133-6.114c0 .456-.103.874-.309 1.252-.206.37-.482.666-.829.886-.353.22-.744.33-1.171.33-.31 0-.6-.07-.873-.212a2.36 2.36 0 01-.718-.579 2.36 2.36 0 01-.718.58c-.273.14-.56.212-.862.212-.42 0-.8-.106-1.138-.32a2.406 2.406 0 01-.807-.873 2.458 2.458 0 01-.31-1.217v-3.403h1.393v3.214c0 .165.04.319.121.46a.922.922 0 00.31.331.793.793 0 00.43.118.83.83 0 00.432-.118 1.1 1.1 0 00.31-.33.985.985 0 00.11-.461v-2.812H4.63v2.74c0 .182.044.347.132.497a.92.92 0 00.332.354c.14.087.295.13.464.13a.86.86 0 00.464-.13.928.928 0 00.332-.354c.08-.15.121-.315.121-.496v-3.143h1.392v3.344zm0-6.589L.994 20.493a1.442 1.442 0 01-.74-.626 1.915 1.915 0 01-.254-.98c0-.363.081-.69.243-.98.155-.292.402-.501.74-.627l6.884-2.706v1.855l-1.558.556v3.851l1.558.579v1.772zm-2.95-2.859v-2.847l-3.392 1.193a.18.18 0 00-.11.083.2.2 0 00-.034.118c0 .047.015.087.044.118a.198.198 0 00.1.07l3.392 1.265zm2.95-6.402H.877c-.411 0-.744-.355-.744-.794v-2.668c0-.543.117-1.035.353-1.476a2.65 2.65 0 01.962-1.064c.412-.268.89-.401 1.436-.401.538 0 1.017.134 1.436.401.413.26.737.615.973 1.064.228.44.342.933.342 1.476v1.773h2.232v1.69zm-3.624-1.69v-1.57c0-.268-.051-.513-.155-.733a1.28 1.28 0 00-1.204-.72c-.287 0-.53.066-.73.2-.206.126-.36.3-.463.52-.11.22-.166.465-.166.732v1.572h2.718zm3.624-5.832H.877c-.411 0-.744-.356-.744-.795V2.942c0-.544.117-1.036.353-1.477A2.65 2.65 0 011.448.402C1.86.134 2.338 0 2.884 0c.538 0 1.017.134 1.436.402.413.26.737.614.973 1.063.228.441.342.933.342 1.477v1.772h2.232v1.69zm-3.624-1.69V3.143c0-.268-.051-.512-.155-.733a1.28 1.28 0 00-1.204-.72c-.287 0-.53.066-.73.2-.206.126-.36.3-.463.52-.11.22-.166.465-.166.733v1.571h2.718z"/></svg><svg viewBox="0 0 24 24" id="folder-open" xmlns="http://www.w3.org/2000/svg"><path d="M21 6h-5.379l-2.56-2.56A1.5 1.5 0 0012 3H3a1.5 1.5 0 00-1.5 1.5v15A1.5 1.5 0 003 21h18a1.5 1.5 0 001.5-1.5v-12A1.5 1.5 0 0021 6zM6 19.5v-9h6v4.627l-1.943-1.934L9 14.25 12.75 18l3.75-3.75-1.057-1.057-1.943 1.934V10.5A1.502 1.502 0 0012 9H6a1.502 1.502 0 00-1.5 1.5v9H3v-15h9l3 3h6V9h-4.5v1.5H21v9H6z"/></svg><svg viewBox="0 0 32 32" id="free" xmlns="http://www.w3.org/2000/svg"><path fill-rule="evenodd" clip-rule="evenodd" d="M7.053 1.333l12.43 7.458-5.598 5.598h16.781v16.667H1.333v-6.667h8.781l-7.25-7.25-1.531-3.826v-3.088l.783-3.131 4.937-5.76zM19.416 24.39H28v-7.333H11.219l-.682.682-.458 1.83 1.016 2.031 1.028 1.028 2.269 1.134 5.024.628zM7.677 18.181l-2.541-2.54L4 12.798v-2.245l.55-2.203 3.063-3.57 7.57 4.542-7.054 7.053-.452 1.807zM28 27.056H4v1.333h24v-1.333z"/></svg><svg viewBox="0 0 24 24" id="group-access" xmlns="http://www.w3.org/2000/svg"><path d="M6 14.25H4.5v-1.5a2.253 2.253 0 012.25-2.25h3.75V12H6.75a.75.75 0 00-.75.75v1.5zm3-4.5a3 3 0 110-6 3 3 0 010 6zm0-4.5a1.5 1.5 0 100 3 1.5 1.5 0 000-3zM15 15a3 3 0 110-5.999A3 3 0 0115 15zm0-4.5a1.5 1.5 0 100 3 1.5 1.5 0 000-3zm4.5 9H18V18a.75.75 0 00-.75-.75h-4.5A.75.75 0 0012 18v1.5h-1.5V18a2.253 2.253 0 012.25-2.25h4.5A2.253 2.253 0 0119.5 18v1.5z"/><path d="M6 22.5H3A1.502 1.502 0 011.5 21V3A1.502 1.502 0 013 1.5h3V3H3v18h3v1.5zm15 0h-3V21h3V3h-3V1.5h3A1.502 1.502 0 0122.5 3v18a1.502 1.502 0 01-1.5 1.5z"/></svg><svg viewBox="0 0 24 24" id="ibm-cloud-pak-watson-aiops" xmlns="http://www.w3.org/2000/svg"><path d="M10.5 18a.75.75 0 01-.721-.544L8.434 12.75H6v-1.5h3a.75.75 0 01.721.544l.779 2.726 2.279-7.976a.75.75 0 011.442 0l1.345 4.706H18v1.5h-3a.75.75 0 01-.721-.544L13.5 9.48l-2.279 7.976A.75.75 0 0110.5 18z"/><path d="M12 23.25a.749.749 0 01-.378-.102l-9-5.25a.75.75 0 01-.372-.648V6.75a.75.75 0 01.372-.648l9-5.25a.75.75 0 01.756 0l9 5.25-.756 1.296L12 2.368 3.75 7.181v9.638L12 21.632l8.25-4.813V11.25h1.5v6a.75.75 0 01-.372.648l-9 5.25a.749.749 0 01-.378.102z"/></svg><svg viewBox="0 0 32 32" id="kleevoy" xmlns="http://www.w3.org/2000/svg"><path fill-rule="evenodd" clip-rule="evenodd" d="M28 22.667H4V28h24v-5.333zM28 20H4v-2h9.333V4h5.333v14H28v2zm2.666 10.667H1.333V15.333h9.333v-14h10.667v14h9.333v15.334z"/><path d="M6.666 24h2.667v4H6.666v-4zM12 24h2.667v4H12v-4zm5.333 0H20v4h-2.667v-4zm5.333 0h2.667v4h-2.667v-4z"/></svg><svg viewBox="0 0 32 32" id="km2" xmlns="http://www.w3.org/2000/svg"><path fill-rule="evenodd" clip-rule="evenodd" d="M32 22v-2.623h-4.246L32 16.52v-4.534L27.701 10l-4.298 1.986v2.534h2.866v-.945l1.433-.657 1.432.657v1.411l-5.731 4.082V22H32zM21.955 10.603H19.03l-2.791 7.082-2.791-7.082h-2.926V22h2.851v-3.918L14.896 22h2.671l1.538-3.918V22h2.85V10.603zM4.94 16.055l4.553-5.452H5.866l-3 3.63v-3.63H0V22h2.866v-2.699l.59-.732L6.036 22h3.515L4.94 16.055z"/></svg><svg viewBox="0 0 64 40" id="laying-type" xmlns="http://www.w3.org/2000/svg"><g clip-path="url(#ava)"><rect width="64" height="40" rx="4"/><path d="M-33.996 9.194H7.428v9.972h-41.424V9.194zm0 21.48H7.428v9.973h-41.424v-9.973zM8.198 9.194H49.62v9.972H8.198V9.194zm0 21.48H49.62v9.973H8.198v-9.973zm-20.716-32.22h41.424v9.973h-41.424v-9.973zm0 21.479h41.424v9.972h-41.424v-9.972zM50.388 9.194H91.81v9.972H50.388V9.194zm0 21.478H91.81v9.972H50.388v-9.972zM29.676-1.546H71.1v9.973H29.676v-9.973zm0 21.479H71.1v9.972H29.676v-9.972z"/></g><defs><clipPath id="ava"><rect width="64" height="40" rx="4"/></clipPath></defs></svg><svg viewBox="0 0 64 40" id="laying-type-one" xmlns="http://www.w3.org/2000/svg"><g clip-path="url(#awa)"><rect width="64" height="40" rx="4"/><path d="M-33.996 9.194H7.428v9.972h-41.424V9.194zm0 21.48H7.428v9.973h-41.424v-9.973zM8.198 9.194H49.62v9.972H8.198V9.194zm0 21.48H49.62v9.973H8.198v-9.973zm-20.716-32.22h41.424v9.973h-41.424v-9.973zm0 21.479h41.424v9.972h-41.424v-9.972zM50.388 9.194H91.81v9.972H50.388V9.194zm0 21.478H91.81v9.972H50.388v-9.972zM29.676-1.546H71.1v9.973H29.676v-9.973zm0 21.479H71.1v9.972H29.676v-9.972z"/></g><defs><clipPath id="awa"><rect width="64" height="40" rx="4"/></clipPath></defs></svg><svg viewBox="0 0 64 40" id="laying-type-two" xmlns="http://www.w3.org/2000/svg"><g clip-path="url(#axa)"><rect width="64" height="40" rx="4"/><path d="M-30.99 40.569l27.873-27.873 6.257 6.257-27.873 27.873-6.257-6.257zm14.221 14.221l27.872-27.873 6.827 6.826-27.873 27.872-6.826-6.826zm43.231-13.652l27.872-27.873 6.826 6.826-27.872 27.873-6.826-6.826zm-43.8-43.8l27.873-27.873 6.826 6.826-27.873 27.873-6.826-6.826zm58.59 58.589l27.872-27.872 6.257 6.257L47.51 62.184l-6.258-6.257zm-43.8-43.8l27.872-27.872 6.257 6.257L3.71 18.385l-6.257-6.258zm14.22 14.221L39.545-1.524 46.37 5.3 18.498 33.174l-6.826-6.826zm8.533 35.836l27.872-27.872 6.826 6.826L27.031 69.01l-6.826-6.826zm-43.8-43.8L4.277-9.488l6.826 6.826-27.872 27.872-6.826-6.826zm14.22 14.221L18.498 4.733l6.826 6.826L-2.549 39.43l-6.826-6.826zm14.79 14.79l27.873-27.873 6.826 6.826L12.24 54.221l-6.826-6.826zm49.488-34.699l28.442-28.441L90.17-8.92 61.729 19.522l-6.826-6.826zM40.114-2.093l28.441-28.442 6.826 6.826L46.94 4.733l-6.826-6.826zm8.532 35.836L76.519 5.87l6.825 6.826L55.472 40.57l-6.826-6.826zm14.221 14.221L90.739 20.09l6.826 6.826-27.872 27.872-6.826-6.825zm-43.8-43.8L46.94-23.71l6.825 6.826L25.893 10.99l-6.826-6.826zm14.789 14.789L61.73-8.919l6.826 6.826-27.873 27.872-6.826-6.826z"/></g><defs><clipPath id="axa"><rect width="64" height="40" rx="4"/></clipPath></defs></svg><svg viewBox="0 0 18 18" id="main-search" xmlns="http://www.w3.org/2000/svg"><path fill-rule="evenodd" clip-rule="evenodd" d="M12.5 11h-.79l-.28-.27a6.5 6.5 0 001.48-5.34c-.47-2.78-2.79-5-5.59-5.34A6.505 6.505 0 00.05 7.32c.34 2.8 2.56 5.12 5.34 5.59a6.5 6.5 0 005.34-1.48l.27.28v.79l4.25 4.25c.41.41 1.08.41 1.49 0 .41-.41.41-1.08 0-1.49L12.5 11zm-6 0C4.01 11 2 8.99 2 6.5S4.01 2 6.5 2 11 4.01 11 6.5 8.99 11 6.5 11z"/></svg><svg viewBox="0 0 24 24" id="media-library" xmlns="http://www.w3.org/2000/svg"><path d="M9.75 11.25v6l5.25-3-5.25-3z"/><path d="M19.5 21h-15A1.502 1.502 0 013 19.5V9a1.502 1.502 0 011.5-1.5h15A1.502 1.502 0 0121 9v10.5a1.502 1.502 0 01-1.5 1.5zM4.5 9v10.5h15V9h-15zm15-4.5h-15V6h15V4.5zm-1.5-3H6V3h12V1.5z"/></svg><svg viewBox="0 0 24 24" id="notification" xmlns="http://www.w3.org/2000/svg"><path d="M21.53 14.47l-2.03-2.03V9.75a7.51 7.51 0 00-6.75-7.462V.75h-1.5v1.538A7.51 7.51 0 004.5 9.75v2.69l-2.03 2.03a.75.75 0 00-.22.53v2.25A.75.75 0 003 18h5.25v.583a3.864 3.864 0 003.375 3.899 3.754 3.754 0 004.125-3.732V18H21a.75.75 0 00.75-.75V15a.75.75 0 00-.22-.53zm-7.28 4.28a2.25 2.25 0 01-4.5 0V18h4.5v.75zm6-2.25H3.75v-1.19l2.03-2.03a.75.75 0 00.22-.53v-3a6 6 0 1112 0v3c0 .199.08.39.22.53l2.03 2.03v1.19z"/></svg><svg viewBox="0 0 24 24" id="open-panel-left" xmlns="http://www.w3.org/2000/svg"><path d="M21 3H3a1.5 1.5 0 00-1.5 1.5v15A1.5 1.5 0 003 21h18a1.5 1.5 0 001.5-1.5v-15A1.5 1.5 0 0021 3zM3 4.5h4.5v15H3v-15zm18 15H9v-15h12v15z"/></svg><svg viewBox="0 0 24 24" id="openside-bar" xmlns="http://www.w3.org/2000/svg"><path d="M21 3H3a1.5 1.5 0 00-1.5 1.5v15A1.5 1.5 0 003 21h18a1.5 1.5 0 001.5-1.5v-15A1.5 1.5 0 0021 3zm0 16.5H9V15H7.5v4.5H3v-6.75h12.129l-2.69 2.69L13.5 16.5 18 12l-4.5-4.5-1.06 1.06 2.689 2.69H3V4.5h4.5V9H9V4.5h12v15z"/></svg><svg viewBox="0 0 14 14" id="pdf" xmlns="http://www.w3.org/2000/svg"><path d="M14 8V7h-3v5h1v-2h1.5V9H12V8h2zm-5.5 4h-2V7h2A1.502 1.502 0 0110 8.5v2A1.502 1.502 0 018.5 12zm-1-1h1a.5.5 0 00.5-.5v-2a.5.5 0 00-.5-.5h-1v3zm-3-4H2v5h1v-1.5h1.5a1.001 1.001 0 001-1V8a1.001 1.001 0 00-1-1zM3 9.5V8h1.5v1.5H3z"/><path d="M10 6V4a.454.454 0 00-.15-.35L6.35.15A.454.454 0 006 0H1a1.003 1.003 0 00-1 1v12a1 1 0 001 1h8v-1H1V1h4v3a1.003 1.003 0 001 1h3v1h1zM6 4V1.2L8.8 4H6z"/></svg><svg viewBox="0 0 43 44" id="phone-3d" xmlns="http://www.w3.org/2000/svg"><path d="M9.121 3.235C9.121 1.448 10.58 0 12.38 0h17.59c1.8 0 3.258 1.448 3.258 3.235v37.53C33.227 42.55 31.77 44 29.97 44H12.379c-1.8 0-3.258-1.449-3.258-3.235V3.235z"/><path fill-rule="evenodd" clip-rule="evenodd" d="M29.97 1.294H12.379c-1.08 0-1.955.87-1.955 1.941v37.53c0 1.072.875 1.94 1.955 1.94h17.59c1.08 0 1.955-.868 1.955-1.94V3.235a1.948 1.948 0 00-1.954-1.94zM12.379 0c-1.8 0-3.258 1.448-3.258 3.235v37.53C9.121 42.55 10.58 44 12.38 44h17.59c1.8 0 3.258-1.449 3.258-3.235V3.235A3.247 3.247 0 0029.97 0H12.379z"/><path d="M0 23.642L21.499 9.734l21.5 13.908-21.5 14.555L0 23.642z"/><path fill-rule="evenodd" clip-rule="evenodd" d="M0 23.642l3.329-2.153.657 1.033-1.768 1.144 1.779 1.204-.679 1.019L0 23.642zm8.427-5.45l5.097-3.299.658 1.033-5.098 3.298-.657-1.033zm10.195-6.596l2.877-1.862 2.878 1.862-.657 1.032-2.22-1.436-2.22 1.436-.658-1.032zM13.513 32.79l-5.097-3.45.678-1.019 5.098 3.451-.679 1.019zm15.962-17.898l5.098 3.298-.658 1.032-5.098-3.297.658-1.033zM18.61 36.242l.678-1.019 2.21 1.496 2.21-1.496.678 1.019-2.888 1.955-2.888-1.955zm15.972-6.903l-5.098 3.452-.679-1.02 5.098-3.45.68 1.018zm5.088-7.85L43 23.64l-3.319 2.247-.679-1.019 1.78-1.204-1.769-1.144.658-1.033z"/><path d="M18.466 26.925c.518 0 .955-.046 1.319-.149a2.17 2.17 0 00.864-.428c.218-.186.372-.42.473-.69a2.9 2.9 0 00.145-.922c0-.596-.173-1.062-.5-1.378-.337-.317-.81-.485-1.41-.503l-.345-.01 1.773-1.62v-.867h-4.82v1.09h3.247l-1.51 1.416v.792h.764c.336 0 .61.028.81.074.2.056.345.121.454.215a.63.63 0 01.21.326c.036.13.054.27.054.428 0 .177-.027.335-.073.466a.733.733 0 01-.245.354 1.187 1.187 0 01-.473.214c-.2.056-.446.075-.755.075-.237 0-.455-.02-.637-.056a1.203 1.203 0 01-.482-.196.88.88 0 01-.31-.391 1.567 1.567 0 01-.117-.634h-1.264c-.01.457.054.839.181 1.137.128.307.319.55.564.736.246.186.546.326.9.4.346.084.746.121 1.183.121zm3.684-6.567v6.428h2.673c.537 0 1.01-.047 1.41-.15.4-.092.728-.27.991-.512.264-.242.464-.568.591-.978.128-.41.2-.931.2-1.565 0-.67-.072-1.22-.209-1.64-.145-.418-.345-.744-.618-.977a2.193 2.193 0 00-1-.475 6.67 6.67 0 00-1.365-.13H22.15zm2.564 5.338h-1.327v-4.248h1.327c.337 0 .637.019.892.056.254.037.463.121.636.26.173.15.3.364.391.643.082.29.128.68.128 1.174 0 .466-.046.83-.128 1.109-.09.28-.218.493-.382.642a1.315 1.315 0 01-.636.299 5.103 5.103 0 01-.9.065z"/><rect x="18.242" y="2.627" width="5.864" height="1.97" rx=".985"/><rect x="16.939" y="41.373" width="8.47" height=".657" rx=".328"/></svg><svg viewBox="0 0 34 34" id="plintus" xmlns="http://www.w3.org/2000/svg"><path fill-rule="evenodd" clip-rule="evenodd" d="M.5.5h21.333v11.667H33.5V33.5H.5V.5zm18.333 12.545V3.5H3.5v24.879l15.333-15.334zM5.621 30.5H30.5V15.167h-9.545L5.62 30.5z"/></svg><svg viewBox="0 0 16 17" id="points" xmlns="http://www.w3.org/2000/svg"><path d="M5 8.5a1 1 0 10-2 0 1 1 0 002 0zm4 0a1 1 0 10-2 0 1 1 0 002 0zm4 0a1 1 0 10-2 0 1 1 0 002 0z"/></svg><svg viewBox="0 0 24 24" id="policy" xmlns="http://www.w3.org/2000/svg"><path d="M22.5 13.5a4.5 4.5 0 10-7.5 3.345V22.5l3-1.42 3 1.42v-5.655a4.486 4.486 0 001.5-3.345zm-3 6.63l-1.5-.71-1.5.71v-2.392c.97.35 2.03.35 3 0v2.392zM18 16.5a3 3 0 110-5.999 3 3 0 010 5.999zm-6-6H6.75V12H12v-1.5zM14.25 6h-7.5v1.5h7.5V6z"/><path d="M4.5 22.5A1.502 1.502 0 013 21V3a1.502 1.502 0 011.5-1.5h12A1.502 1.502 0 0118 3v3h-1.5V3h-12v18H12v1.5H4.5z"/></svg><svg viewBox="0 0 16 16" id="question-tooltip" xmlns="http://www.w3.org/2000/svg"><path fill-rule="evenodd" clip-rule="evenodd" d="M5.196 6c0-1.544 1.256-2.8 2.8-2.8 1.544 0 2.8 1.256 2.8 2.8a2.796 2.796 0 01-2 2.67v.93a.8.8 0 11-1.6 0V8a.8.8 0 01.8-.8 1.201 1.201 0 10-1.2-1.2.8.8 0 11-1.6 0zm2 6a.8.8 0 111.599-.002.8.8 0 01-1.599.002zm.806 2.402a6.407 6.407 0 01-6.4-6.4c0-3.529 2.871-6.4 6.4-6.4 3.529 0 6.4 2.871 6.4 6.4 0 3.529-2.871 6.4-6.4 6.4zM8 0C3.589 0 0 3.589 0 8s3.589 8 8 8 8-3.589 8-8-3.589-8-8-8z"/></svg><svg viewBox="0 0 56 56" id="ramka" xmlns="http://www.w3.org/2000/svg"><g clip-path="url(#bja)" fill-rule="evenodd" clip-rule="evenodd"><path d="M47 0h9v9h-2V2h-7V0zM0 0h9v2H2v7H0V0zm0 47h2v7h7v2H0v-9zm54 7v-7h2v9h-9v-2h7z"/></g><defs><clipPath id="bja"><path d="M0 0h56v56H0z"/></clipPath></defs></svg><svg viewBox="0 0 100 100" id="raskladka-2" xmlns="http://www.w3.org/2000/svg"><g clip-path="url(#bka)"><path d="M0 0h100v100H0z"/><g clip-path="url(#bkb)" fill-rule="evenodd" clip-rule="evenodd"><path d="M10.974 32.146H-.748V-13.17h11.722v45.317zm-.5-.5V-12.67H-.248v44.317h10.722z"/><path d="M10.974 76.964H-.748V31.646h11.722v45.318zm-.5-.5V32.146H-.248v44.318h10.722z"/><path d="M10.974 121.782H-.748V76.464h11.722v45.318zm-.5-.5V76.964H-.248v44.318h10.722zm11.721-76.798H10.473V-.834h11.722v45.318zm-.5-.5V-.334H10.973v44.318h10.722z"/><path d="M22.195 89.301H10.473V43.984h11.722V89.3zm-.5-.5V44.484H10.973V88.8h10.722z"/><path d="M22.195 134.119H10.473V88.802h11.722v45.317zm-.5-.5V89.302H10.973v44.317h10.722zm11.722-76.798H21.695V11.504h11.722V56.82zm-.5-.5V12.004H22.195V56.32h10.722z"/><path d="M33.417 101.639H21.695V56.321h11.722v45.318zm-.5-.5V56.821H22.195v44.318h10.722z"/><path d="M44.639 69.159H32.917V23.84h11.722v45.32zm-.5-.5V24.34H33.417v44.32h10.722z"/><path d="M44.639 113.977H32.917V68.659h11.722v45.318zm-.5-.5V69.159H33.417v44.318h10.722z"/><path d="M55.861 81.496H44.14V36.18h11.722v45.317zm-.5-.5V36.68H44.64v44.317h10.722z"/><path d="M55.861 126.314H44.14V80.996h11.722v45.318zm-.5-.5V81.496H44.64v44.318h10.722z"/><path d="M67.083 93.834H55.361V48.516h11.722v45.318zm-.5-.5V49.016H55.861v44.318h10.722z"/><path d="M67.083 138.652H55.361V93.334h11.722v45.318zm-.5-.5V93.834H55.861v44.318h10.722z"/><path d="M78.305 106.172H66.583V60.854h11.722v45.318zm-.5-.5V61.354H67.083v44.318h10.722z"/><path d="M89.527 118.509H77.805V73.191h11.722v45.318zm-.5-.5V73.691H78.305v44.318h10.722z"/><path d="M100.749 130.847H89.027V85.529h11.722v45.318zm-.5-.5V86.029H89.527v44.318h10.722zM33.417 12.004H21.695v-45.318h11.722v45.318zm-.5-.5v-44.318H22.195v44.318h10.722z"/><path d="M44.639 24.341H32.917v-45.318h11.722v45.318zm-.5-.5v-44.318H33.417v44.318h10.722z"/><path d="M55.861 36.679H44.14V-8.64h11.722v45.318zm-.5-.5V-8.14H44.64v44.318h10.722z"/><path d="M67.083 4.198H55.361v-45.317h11.722V4.198zm-.5-.5v-44.317H55.861V3.698h10.722z"/><path d="M67.083 49.016H55.361V3.7h11.722v45.317zm-.5-.5V4.2H55.861v44.317h10.722z"/><path d="M78.305 16.536H66.583v-45.318h11.722v45.318zm-.5-.5v-44.318H67.083v44.318h10.722z"/><path d="M78.305 61.354H66.583V16.036h11.722v45.318zm-.5-.5V16.536H67.083v44.318h10.722z"/><path d="M89.527 28.874H77.805v-45.318h11.722v45.318zm-.5-.5v-44.318H78.305v44.318h10.722z"/><path d="M89.527 73.691H77.805V28.374h11.722V73.69zm-.5-.5V28.874H78.305V73.19h10.722z"/><path d="M100.749 41.211H89.027V-4.106h11.722V41.21zm-.5-.5V-3.606H89.527V40.71h10.722z"/><path d="M100.749 86.03H89.027V40.71h11.722v45.32zm-.5-.5V41.21H89.527v44.32h10.722z"/></g></g><path d="M1 1h98v98H1z"/><defs><clipPath id="bka"><path d="M0 0h100v100H0z"/></clipPath><clipPath id="bkb"><path transform="translate(-57 -75)" d="M0 0h214v243H0z"/></clipPath></defs></svg><svg viewBox="0 0 100 100" id="raskladka-3" xmlns="http://www.w3.org/2000/svg"><g clip-path="url(#bla)"><path d="M0 0h100v100H0z"/><g clip-path="url(#blb)" fill-rule="evenodd" clip-rule="evenodd"><path d="M-19.553.97V-9.388H20.55V.969h-40.102zm.5-.5H20.05v-9.357h-39.102V.469z"/><path d="M-19.553 10.825V.47H20.55v10.356h-40.102zm.5-.5H20.05V.97h-39.102v9.356z"/><path d="M-19.553 20.681V10.325H20.55v10.357h-40.102zm.5-.5H20.05v-9.356h-39.102v9.357zM20.049.97V-9.388H60.15V.969h-40.1zm.5-.5H59.65v-9.357h-39.1V.469z"/><path d="M20.049 10.825V.47H60.15v10.356h-40.1zm.5-.5H59.65V.97h-39.1v9.356z"/><path d="M20.049 20.681V10.325H60.15v10.357h-40.1zm.5-.5H59.65v-9.356h-39.1v9.357zM59.65.97V-9.388h40.102V.969H59.65zm.5-.5h39.102v-9.357H60.15V.469z"/><path d="M59.65 10.825V.47h40.102v10.356H59.65zm.5-.5h39.102V.97H60.15v9.356z"/><path d="M59.65 20.681V10.325h40.102v10.356H59.65zm.5-.5h39.102v-9.356H60.15v9.356zM99.252.97V-9.388h40.101V.969H99.252zm.5-.5h39.101v-9.357H99.752V.469z"/><path d="M99.252 10.825V.47h40.101v10.356H99.252zm.5-.5h39.101V.97H99.752v9.356z"/><path d="M99.252 20.681V10.325h40.101v10.356H99.252zm.5-.5h39.101v-9.356H99.752v9.356zM-39.352 30.538V20.18h40.1v10.357h-40.1zm.5-.5h39.1V20.68h-39.1v9.357z"/><path d="M-39.352 40.394V30.038h40.1v10.356h-40.1zm.5-.5h39.1v-9.356h-39.1v9.356z"/><path d="M-39.352 50.25V39.894h40.1V50.25h-40.1zm.5-.5h39.1v-9.356h-39.1v9.356zm39.1-19.212V20.18h40.101v10.357H.248zm.5-.5h39.101V20.68H.748v9.357z"/><path d="M.248 40.394V30.038h40.101v10.356H.248zm.5-.5h39.101v-9.356H.748v9.356z"/><path d="M.248 50.25V39.894h40.101V50.25H.248zm.5-.5h39.101v-9.356H.748v9.356zM39.85 30.538V20.18h40.1v10.357h-40.1zm.5-.5h39.1V20.68h-39.1v9.357z"/><path d="M39.85 40.394V30.038h40.1v10.356h-40.1zm.5-.5h39.1v-9.356h-39.1v9.356z"/><path d="M39.85 50.25V39.894h40.1V50.25h-40.1zm.5-.5h39.1v-9.356h-39.1v9.356zm39.101-19.212V20.18h40.102v10.357H79.451zm.5-.5h39.102V20.68H79.951v9.357z"/><path d="M79.451 40.394V30.038h40.102v10.356H79.451zm.5-.5h39.102v-9.356H79.951v9.356z"/><path d="M79.451 50.25V39.894h40.102V50.25H79.451zm.5-.5h39.102v-9.356H79.951v9.356zm-99.504 10.356V49.75H20.55v10.356h-40.102zm.5-.5H20.05V50.25h-39.102v9.356z"/><path d="M-19.553 69.962V59.606H20.55v10.356h-40.102zm.5-.5H20.05v-9.356h-39.102v9.356z"/><path d="M-19.553 79.819V69.462H20.55V79.82h-40.102zm.5-.5H20.05v-9.357h-39.102v9.357zm39.102-19.213V49.75H60.15v10.356h-40.1zm.5-.5H59.65V50.25h-39.1v9.356z"/><path d="M20.049 69.962V59.606H60.15v10.356h-40.1zm.5-.5H59.65v-9.356h-39.1v9.356z"/><path d="M20.049 79.818V69.462H60.15v10.356h-40.1zm.5-.5H59.65v-9.356h-39.1v9.356zM59.65 60.106V49.75h40.102v10.356H59.65zm.5-.5h39.102V50.25H60.15v9.356z"/><path d="M59.65 69.962V59.606h40.102v10.356H59.65zm.5-.5h39.102v-9.356H60.15v9.356z"/><path d="M59.65 79.819V69.462h40.102v10.356H59.65zm.5-.5h39.102v-9.357H60.15v9.356zm39.102-19.213V49.75h40.101v10.356H99.252zm.5-.5h39.101V50.25H99.752v9.356z"/><path d="M99.252 69.962V59.606h40.101v10.356H99.252zm.5-.5h39.101v-9.356H99.752v9.356z"/><path d="M99.252 79.819V69.462h40.101v10.356H99.252zm.5-.5h39.101v-9.357H99.752v9.356zM-39.353 89.675V79.318h40.1v10.357h-40.1zm.5-.5h39.1v-9.357h-39.1v9.357z"/><path d="M-39.353 99.53V89.175h40.1v10.357h-40.1zm.5-.5h39.1v-9.356h-39.1v9.357z"/><path d="M-39.353 109.387V99.031h40.1v10.356h-40.1zm.5-.5h39.1v-9.356h-39.1v9.356zM.248 89.675V79.319h40.101v10.356H.248zm.5-.5h39.101v-9.356H.748v9.356z"/><path d="M.248 99.53V89.176h40.101V99.53H.248zm.5-.5h39.101v-9.355H.748v9.356z"/><path d="M.248 109.387V99.031h40.101v10.356H.248zm.5-.5h39.101v-9.356H.748v9.356zM39.85 89.675V79.319h40.1v10.356h-40.1zm.5-.5h39.1v-9.356h-39.1v9.356z"/><path d="M39.85 99.53V89.176h40.1V99.53h-40.1zm.5-.5h39.1v-9.355h-39.1v9.356z"/><path d="M39.85 109.387V99.031h40.1v10.356h-40.1zm.5-.5h39.1v-9.356h-39.1v9.356zm39.101-19.212V79.319h40.102v10.356H79.451zm.5-.5h39.102v-9.356H79.951v9.356z"/><path d="M79.451 99.53V89.176h40.102V99.53H79.451zm.5-.5h39.102v-9.355H79.951v9.356z"/><path d="M79.451 109.387V99.031h40.102v10.356H79.451zm.5-.5h39.102v-9.356H79.951v9.356z"/></g></g><path d="M1 1h98v98H1z"/><defs><clipPath id="bla"><path d="M0 0h100v100H0z"/></clipPath><clipPath id="blb"><path transform="translate(-79 -39)" d="M0 0h258v178H0z"/></clipPath></defs></svg><svg viewBox="0 0 16 16" id="reflect" xmlns="http://www.w3.org/2000/svg"><g clip-path="url(#bma)"><path d="M5.705 13.295L3.915 11.5H14v-1H3.915l1.79-1.795L5 8l-3 3 3 3 .705-.705zM14 5l-3-3-.705.705 1.79 1.795H2v1h10.085l-1.79 1.795L11 8l3-3z"/></g><defs><clipPath id="bma"><path d="M0 0h16v16H0z"/></clipPath></defs></svg><svg viewBox="0 0 24 24" id="roadmap" xmlns="http://www.w3.org/2000/svg"><path d="M9 22.5H3A1.502 1.502 0 011.5 21v-3A1.502 1.502 0 013 16.5h6a1.502 1.502 0 011.5 1.5v3A1.502 1.502 0 019 22.5zM3 18v3h6v-3H3zm18-3H9a1.502 1.502 0 01-1.5-1.5v-3A1.502 1.502 0 019 9h12a1.502 1.502 0 011.5 1.5v3A1.502 1.502 0 0121 15zM9 10.5v3h12v-3H9zm3-3H3A1.502 1.502 0 011.5 6V3A1.502 1.502 0 013 1.5h9A1.502 1.502 0 0113.5 3v3A1.502 1.502 0 0112 7.5zM3 3v3h9V3H3z"/></svg><svg viewBox="0 0 24 24" id="search" xmlns="http://www.w3.org/2000/svg"><path d="M16.086 15A8.142 8.142 0 0018 9.75 8.25 8.25 0 109.75 18 8.142 8.142 0 0015 16.086l5.69 5.664 1.06-1.06L16.086 15zM9.75 16.5a6.75 6.75 0 116.75-6.75 6.758 6.758 0 01-6.75 6.75z"/></svg><svg viewBox="0 0 24 24" id="share-knowledge" xmlns="http://www.w3.org/2000/svg"><path d="M20.25 18.75h-4.5A2.25 2.25 0 0013.5 21v1.5H15V21a.75.75 0 01.75-.75h4.5A.75.75 0 0121 21v1.5h1.5V21a2.25 2.25 0 00-2.25-2.25zM15 15a3 3 0 105.999 0A3 3 0 0015 15zm4.5 0a1.5 1.5 0 11-3 0 1.5 1.5 0 013 0zm-15 .75V15H3v.75A5.25 5.25 0 008.25 21h2.25v-1.5H8.25a3.75 3.75 0 01-3.75-3.75zm15-8.25h-5.25V9h5.25V7.5zm2.25-3h-7.5V6h7.5V4.5zm0-3h-7.5V3h7.5V1.5zM8.25 8.25h-4.5A2.25 2.25 0 001.5 10.5V12H3v-1.5a.75.75 0 01.75-.75h4.5a.75.75 0 01.75.75V12h1.5v-1.5a2.25 2.25 0 00-2.25-2.25zM6 7.5a3 3 0 100-6 3 3 0 000 6zM6 3a1.5 1.5 0 110 3 1.5 1.5 0 010-3z"/></svg><svg viewBox="0 0 24 24" id="shopping-cart" xmlns="http://www.w3.org/2000/svg"><path d="M7.5 22.5a1.5 1.5 0 100-3 1.5 1.5 0 000 3zm10.5 0a1.5 1.5 0 100-3 1.5 1.5 0 000 3zm3-17.25H4.365L3.75 2.1A.75.75 0 003 1.5H0V3h2.385L5.25 17.4A.75.75 0 006 18h13.5v-1.5H6.615L6 13.5h13.5a.75.75 0 00.75-.585l1.5-6.75A.751.751 0 0021 5.25zM18.9 12H5.715l-1.05-5.25h15.398L18.9 12z"/></svg><svg viewBox="0 0 16 17" id="shopping-cart-add" xmlns="http://www.w3.org/2000/svg"><path d="M5 15.5a1 1 0 100-2 1 1 0 000 2zm7 0a1 1 0 100-2 1 1 0 000 2zM2.49 1.902A.5.5 0 002 1.5H0v1h1.59l1.92 9.598A.5.5 0 004 12.5h9v-1H4.41l-.4-2H13a.5.5 0 00.488-.392L14.622 4h-1.024L12.6 8.5H3.81L2.49 1.902z"/><path d="M9 3.5v-2H8v2H6v1h2v2h1v-2h2v-1H9z"/></svg><svg viewBox="0 0 16 17" id="sort-descending" xmlns="http://www.w3.org/2000/svg"><path d="M9 11.5l.707-.707 1.793 1.793V2.5h1v10.086l1.793-1.793.707.707-3 3-3-3zm-1-8H1v1h7v-1zm0 3H3v1h5v-1zm0 3H5v1h3v-1z"/></svg><svg viewBox="0 0 14 12" id="sort-remove" xmlns="http://www.w3.org/2000/svg"><path d="M14 7.207l-.707-.707L11.5 8.293 9.707 6.5 9 7.207 10.793 9 9 10.793l.707.707L11.5 9.707l1.793 1.793.707-.707L12.207 9 14 7.207zM7 6.5H4v1h3v-1zm0-6H0v1h7v-1zm0 3H2v1h5v-1z"/></svg><svg viewBox="0 0 24 24" id="star-review" xmlns="http://www.w3.org/2000/svg"><path d="M19.5 19.5h-6V21h6v-1.5zm3-3h-9V18h9v-1.5zm0-3h-9V15h9v-1.5z"/><path d="M15.412 8.413L12 1.5 8.588 8.413.96 9.52l5.52 5.381L5.176 22.5l5.324-2.798v-1.695l-3.33 1.751.922-5.38-3.909-3.81 5.401-.784L12 4.889l2.416 4.895 6.37.927L21 9.225l-5.588-.812z"/></svg><svg viewBox="0 0 32 32" id="texture" xmlns="http://www.w3.org/2000/svg"><path d="M1.5 1.5h29v29h-29z"/><path d="M1.455 21.818c1.697-3.394 10.182-9.09 15.273-6.545 4.363 2.182 5.09 8 .727 15.273"/><path d="M1.455 14.546c4.606-4.122 12.277-9.113 19.636-7.273 4.502 1.125 5.52 4.862 5.751 6.496.073.516.108 1.036.169 1.553.545 4.672-.252 8.05-3.01 15.224M1.455 5.818c1.697.485 5.527.291 7.273-4.363m14.545 0c1.163 4.072 5.333 5.09 7.272 5.09"/><path d="M1.455 27.636c2.182-2.181 5.091-6.181 8.727-7.272 2.91-.873 5.818 0 5.818 2.909s-.872 4.363-4.363 7.273"/></svg><svg viewBox="0 0 6 11" id="tooltip" xmlns="http://www.w3.org/2000/svg"><path d="M3.78 7.852H2.184a4.09 4.09 0 01.14-1.31c.121-.38.28-.691.476-.933.205-.25.41-.478.616-.682.205-.204.401-.427.588-.669.196-.25.327-.51.392-.78.075-.547-.037-.974-.336-1.28-.299-.317-.69-.474-1.176-.474-.364 0-.695.12-.994.362a1.447 1.447 0 00-.532.96H0C.037 2.147.313 1.465.826 1 1.349.535 2.03.303 2.87.303 3.645.284 4.321.475 4.9.874c.588.4.938.924 1.05 1.574.056.353.065.66.028.92a2.336 2.336 0 01-.322.946c-.168.288-.36.543-.574.766-.205.223-.41.46-.616.71a2.934 2.934 0 00-.504.892c-.13.343-.191.733-.182 1.17zm-.154 2.2a.903.903 0 01-.644.237c-.261 0-.485-.079-.672-.237a.782.782 0 01-.266-.613c0-.25.089-.454.266-.612.187-.158.41-.237.672-.237.261 0 .476.079.644.237a.782.782 0 01.266.612.784.784 0 01-.266.613z"/></svg><svg viewBox="0 0 16 16" id="tree-arrow-right" xmlns="http://www.w3.org/2000/svg"><path d="M6 4l5 4-5 4V4z"/></svg><svg viewBox="0 0 16 16" id="tree-file" xmlns="http://www.w3.org/2000/svg"><path d="M8.923 5.23H4.308v.924h4.615V5.23zM7.077 7.538h-2.77v.924h2.77v-.924z"/><path d="M14 14H2V2h12v12zm-11.077-.923h10.154V2.923H2.923v10.154z"/></svg><svg viewBox="0 0 16 16" id="tree-root-folder" xmlns="http://www.w3.org/2000/svg"><path d="M13 14H3a1.001 1.001 0 01-1-1V5.5a1.001 1.001 0 011-1h2.833c.217 0 .427.07.6.2L8.168 6H13a1.001 1.001 0 011 1v6a1.001 1.001 0 01-1 1zM5.833 5.5H3V13h10V7H7.833l-2-1.5zM14 4.5H8.833l-2-1.5H3V2h3.833c.217 0 .427.07.6.2l1.734 1.3H14v1z"/></svg><svg viewBox="0 0 16 16" id="tree-subfolder" xmlns="http://www.w3.org/2000/svg"><path d="M5.585 3l1.71 1.705.29.295H14v8H2V3h3.585zm0-1H2a1 1 0 00-1 1v10a1 1 0 001 1h12a1 1 0 001-1V5a1 1 0 00-1-1H8L6.295 2.295A1 1 0 005.585 2z"/></svg><svg viewBox="0 0 24 24" id="tree-view-alt" xmlns="http://www.w3.org/2000/svg"><g clip-path="url(#cba)"><path d="M17.25 6.754h4.5a1.5 1.5 0 001.5-1.5v-3a1.5 1.5 0 00-1.5-1.5h-4.5a1.5 1.5 0 00-1.5 1.5v.75h-7.5v-.75a1.5 1.5 0 00-1.5-1.5h-4.5a1.5 1.5 0 00-1.5 1.5v3a1.5 1.5 0 001.5 1.5h4.5a1.5 1.5 0 001.5-1.5v-.75h3v15a1.502 1.502 0 001.5 1.5h3v.75a1.5 1.5 0 001.5 1.5h4.5a1.5 1.5 0 001.5-1.5v-3a1.5 1.5 0 00-1.5-1.5h-4.5a1.5 1.5 0 00-1.5 1.5v.75h-3v-6.75h3v.75a1.5 1.5 0 001.5 1.5h4.5a1.5 1.5 0 001.5-1.5v-3a1.5 1.5 0 00-1.5-1.5h-4.5a1.5 1.5 0 00-1.5 1.5v.75h-3v-6.75h3v.75a1.5 1.5 0 001.5 1.5zm0-4.5h4.5v3h-4.5v-3zm-10.5 3h-4.5v-3h4.5v3zm10.5 13.5h4.5v3h-4.5v-3zm0-8.25h4.5v3h-4.5v-3z"/></g><defs><clipPath id="cba"><path d="M0 0h24v24H0z"/></clipPath></defs></svg><svg viewBox="0 0 13 8" id="triangle-down" xmlns="http://www.w3.org/2000/svg"><path d="M8 7.2c-.667 1.067-2.333 1.067-3 0L.5 0h12L8 7.2z"/></svg><svg viewBox="0 0 100 100" id="type-1" xmlns="http://www.w3.org/2000/svg"><g clip-path="url(#cda)"><g fill-rule="evenodd" clip-path="url(#cdb)" clip-rule="evenodd"><path d="M10.965 36.867H-.76v-45.4h11.725v45.4zm-.5-.5v-44.4H-.26v44.4h10.725z"/><path d="M10.965 81.766H-.76v-45.4h11.725v45.4zm-.5-.5v-44.4H-.26v44.4h10.725z"/><path d="M10.965 126.665H-.76v-45.4h11.725v45.4zm-.5-.5v-44.4H-.26v44.4h10.725zM22.19 14.417H10.464v-45.4h11.724v45.4zm-.5-.5v-44.4H10.964v44.4h10.724z"/><path d="M22.19 59.316H10.464V13.917h11.724v45.4zm-.5-.5V14.417H10.964v44.4h10.724z"/><path d="M22.19 104.215H10.464V58.816h11.724v45.399zm-.5-.5V59.316H10.964v44.399h10.724zm11.723-66.848H21.69v-45.4h11.724v45.4zm-.5-.5v-44.4H22.19v44.4h10.724z"/><path d="M33.413 81.766H21.69v-45.4h11.724v45.4zm-.5-.5v-44.4H22.19v44.4h10.724z"/><path d="M33.413 126.665H21.69v-45.4h11.724v45.4zm-.5-.5v-44.4H22.19v44.4h10.724zM44.638 14.417H32.913v-45.4h11.725v45.4zm-.5-.5v-44.4H33.413v44.4h10.725z"/><path d="M44.638 59.316H32.913V13.917h11.725v45.4zm-.5-.5V14.417H33.413v44.4h10.725z"/><path d="M44.638 104.215H32.913V58.816h11.725v45.399zm-.5-.5V59.316H33.413v44.399h10.725zm11.724-66.848H44.138v-45.4h11.724v45.4zm-.5-.5v-44.4H44.638v44.4h10.724z"/><path d="M55.862 81.766H44.138v-45.4h11.724v45.4zm-.5-.5v-44.4H44.638v44.4h10.724z"/><path d="M55.862 126.665H44.138v-45.4h11.724v45.4zm-.5-.5v-44.4H44.638v44.4h10.724zM67.087 14.417H55.362v-45.4h11.725v45.4zm-.5-.5v-44.4H55.862v44.4h10.725z"/><path d="M67.087 59.316H55.362V13.917h11.725v45.4zm-.5-.5V14.417H55.862v44.4h10.725z"/><path d="M67.087 104.215H55.362V58.816h11.725v45.399zm-.5-.5V59.316H55.862v44.399h10.725zm11.724-66.848H66.587v-45.4h11.724v45.4zm-.5-.5v-44.4H67.087v44.4h10.724z"/><path d="M78.311 81.766H66.587v-45.4h11.724v45.4zm-.5-.5v-44.4H67.087v44.4h10.724z"/><path d="M78.311 126.665H66.587v-45.4h11.724v45.4zm-.5-.5v-44.4H67.087v44.4h10.724zM89.535 14.417H77.811v-45.4h11.724v45.4zm-.5-.5v-44.4H78.311v44.4h10.724z"/><path d="M89.535 59.316H77.811V13.917h11.724v45.4zm-.5-.5V14.417H78.311v44.4h10.724z"/><path d="M89.535 104.215H77.811V58.816h11.724v45.399zm-.5-.5V59.316H78.311v44.399h10.724zm11.725-66.848H89.035v-45.4h11.725v45.4zm-.5-.5v-44.4H89.535v44.4h10.725z"/><path d="M100.76 81.766H89.035v-45.4h11.725v45.4zm-.5-.5v-44.4H89.535v44.4h10.725z"/><path d="M100.76 126.665H89.035v-45.4h11.725v45.4zm-.5-.5v-44.4H89.535v44.4h10.725z"/></g></g><defs><clipPath id="cda"><path d="M0 0h100v100H0z"/></clipPath><clipPath id="cdb"><path d="M-57-76h214v225.233H-57z"/></clipPath></defs></svg><svg viewBox="0 0 64 40" id="type-diagonal" xmlns="http://www.w3.org/2000/svg"><g clip-path="url(#cea)"><path d="M-30.99 40.569l27.873-27.873 6.257 6.257-27.873 27.873-6.257-6.257zm14.221 14.221l27.872-27.873 6.827 6.826-27.873 27.872-6.826-6.825zm43.231-13.652l27.872-27.873 6.826 6.826-27.872 27.873-6.826-6.826zm-43.8-43.8l27.873-27.873 6.826 6.826-27.873 27.873-6.826-6.826zm58.59 58.589l27.872-27.872 6.257 6.257L47.51 62.184l-6.258-6.257zm-43.8-43.8l27.872-27.872 6.257 6.257L3.71 18.385l-6.257-6.258zm14.22 14.221L39.545-1.524 46.37 5.3 18.498 33.175l-6.826-6.826zm8.533 35.836l27.872-27.872 6.826 6.826L27.031 69.01l-6.826-6.826zm-43.8-43.8L4.277-9.488l6.826 6.826-27.872 27.872-6.826-6.826zm14.22 14.221L18.498 4.733l6.826 6.826L-2.549 39.43l-6.826-6.826zm14.79 14.79l27.873-27.873 6.826 6.826L12.24 54.221l-6.826-6.826zm49.488-34.699l28.442-28.441L90.17-8.92 61.729 19.522l-6.826-6.826zM40.114-2.093l28.441-28.442 6.826 6.826L46.94 4.733l-6.826-6.826zm8.532 35.836L76.519 5.87l6.825 6.826L55.472 40.57l-6.826-6.826zm14.221 14.221L90.739 20.09l6.826 6.826L69.693 54.79l-6.826-6.826zm-43.8-43.8L46.94-23.71l6.825 6.826L25.893 10.99l-6.826-6.826zm14.789 14.789L61.73-8.919l6.826 6.826-27.873 27.872-6.826-6.826z"/></g><defs><clipPath id="cea"><rect width="64" height="40" rx="4"/></clipPath></defs></svg><svg viewBox="0 0 64 40" id="type-horizontal" xmlns="http://www.w3.org/2000/svg"><g clip-path="url(#cfa)"><path d="M-33.996 9.194H7.428v9.972h-41.424V9.194zm0 21.48H7.428v9.973h-41.424v-9.973zM8.198 9.194H49.62v9.972H8.198V9.194zm0 21.48H49.62v9.973H8.198v-9.973zm-20.716-32.22h41.424v9.973h-41.424v-9.973zm0 21.479h41.424v9.972h-41.424v-9.972zM50.388 9.194H91.81v9.972H50.388V9.194zm0 21.478H91.81v9.972H50.388v-9.972zM29.676-1.546H71.1v9.973H29.676v-9.973zm0 21.479H71.1v9.972H29.676v-9.972z"/></g><defs><clipPath id="cfa"><rect width="64" height="40" rx="4"/></clipPath></defs></svg><svg viewBox="0 0 16 22" id="user" xmlns="http://www.w3.org/2000/svg"><path d="M8 2a3.75 3.75 0 110 7.5A3.75 3.75 0 018 2zM8 .5A5.25 5.25 0 108 11 5.25 5.25 0 008 .5zm7.5 21H14v-3.75A3.75 3.75 0 0010.25 14h-4.5A3.75 3.75 0 002 17.75v3.75H.5v-3.75a5.25 5.25 0 015.25-5.25h4.5a5.25 5.25 0 015.25 5.25v3.75z"/></svg><svg viewBox="0 0 100 100" id="var-10" xmlns="http://www.w3.org/2000/svg"><g clip-path="url(#cha)"><path d="M0 0h100v100H0z"/><g clip-path="url(#chb)" stroke-width=".5" stroke-miterlimit="10"><path d="M.406 22.451h11.02v-44.098H.407v44.098zm-11.02 0H.406v-44.098h-11.02v44.098zm22.041 11.024V22.451h-44.084v11.024h44.084z"/><path d="M11.427 44.5V33.474h-44.084V44.5h44.084zm0 11.023V44.5h-44.084v11.024h44.084zM.406 99.62h11.02V55.524H.407v44.098zm-11.02 0H.406V55.524h-11.02v44.098z"/><path d="M11.427 110.645V99.621h-44.084v11.024h44.084zm66.126-88.194h11.02v-44.098h-11.02v44.098zm-11.021 0h11.02v-44.098h-11.02v44.098zm-11.022 0h11.021v-44.098h-11.02v44.098zM11.427 11.427v11.024H55.51V11.427H11.427zm0-11.024v11.024H55.51V.403H11.427zm0-11.023V.402H55.51V-10.62H11.427z"/><path d="M22.447 22.451h-11.02V66.55h11.02v-44.1zm11.021 0h-11.02V66.55h11.02v-44.1zm11.02 0h-11.02V66.55h11.02v-44.1zm44.085 11.024V22.451H44.49v11.024h44.084z"/><path d="M88.573 44.5V33.474H44.49V44.5h44.084zm0 11.023V44.5H44.49v11.024h44.084zM77.553 99.62h11.02V55.524h-11.02v44.098zm-11.021 0h11.02V55.524h-11.02v44.098zm-11.022 0h11.021V55.524h-11.02v44.098zM11.427 88.597V99.62H55.51V88.597H11.427zm0-11.024v11.024H55.51V77.573H11.427z"/><path d="M11.427 66.549v11.024H55.51V66.549H11.427zm11.02 33.071h-11.02v44.099h11.02V99.621zm11.021 0h-11.02v44.099h11.02V99.621zm11.02 0h-11.02v44.099h11.02V99.621zm44.085 11.025V99.621H44.49v11.024h44.084zm0-99.218v11.024h44.084V11.427H88.573zm0-11.024v11.024h44.084V.403H88.573zm0-11.023V.402h44.084V-10.62H88.573z"/><path d="M99.594 22.451h-11.02V66.55h11.02v-44.1zm11.02 0h-11.02V66.55h11.02v-44.1zM88.573 88.597V99.62h44.084V88.597H88.573zm0-11.024v11.024h44.084V77.573H88.573z"/><path d="M88.573 66.549v11.024h44.084V66.549H88.573zM99.594 99.62h-11.02v44.099h11.02V99.621zm11.02 0h-11.02v44.099h11.02V99.621z"/></g></g><path d="M1 1h98v98H1z"/><defs><clipPath id="cha"><path d="M0 0h100v100H0z"/></clipPath><clipPath id="chb"><path transform="translate(-66 -55)" d="M0 0h232v199H0z"/></clipPath></defs></svg><svg viewBox="0 0 100 100" id="var-11" xmlns="http://www.w3.org/2000/svg"><g clip-path="url(#cia)"><path d="M0 0h100v100H0z"/><g clip-path="url(#cib)" stroke-width=".5" stroke-miterlimit="10"><path d="M9.306-1.729H-.866v40.656H9.306V-1.73zm10.174 0H9.306v40.656h10.172V-1.73z"/><path d="M29.651-1.729H19.479v40.656H29.65V-1.73z"/><path d="M39.824-1.729H29.65v40.656h10.173V-1.73z"/><path d="M49.996-1.729H39.823v40.656h10.173V-1.73zm10.173 0H49.996v40.656H60.17V-1.73zm10.172 0H60.17v40.656h10.17V-1.73zm10.172 0H70.341v40.656h10.172V-1.73zm10.173 0H80.514v40.656h10.172V-1.73zm10.172 0H90.686v40.656h10.172V-1.73zM-11.037 38.927V49.09h40.691V38.927h-40.691z"/><path d="M29.654 38.927V49.09h40.692V38.927H29.654zm40.692 0V49.09h40.691V38.927H70.346zM9.306 49.09H-.866v40.656H9.306V49.09zm10.174 0H9.306v40.656h10.172V49.09z"/><path d="M29.651 49.09H19.479v40.656H29.65V49.09z"/><path d="M39.824 49.09H29.65v40.656h10.173V49.09z"/><path d="M49.996 49.09H39.823v40.656h10.173V49.09zm10.173 0H49.996v40.656H60.17V49.09zm10.172 0H60.17v40.656h10.17V49.09zm10.172 0H70.341v40.656h10.172V49.09zm10.173 0H80.514v40.656h10.172V49.09zm10.172 0H90.686v40.656h10.172V49.09zM-11.037 89.746V99.91h40.691V89.746h-40.691z"/><path d="M29.654 89.746v10.163h40.692V89.746H29.654zm40.692 0V99.91h40.691V89.746H70.346zM9.306 99.91H-.866v40.655H9.306V99.909zm10.174 0H9.306v40.655h10.172V99.909z"/><path d="M29.651 99.91H19.479v40.655H29.65V99.909z"/><path d="M39.824 99.91H29.65v40.655h10.173V99.909z"/><path d="M49.996 99.91H39.823v40.655h10.173V99.909zm10.173 0H49.996v40.655H60.17V99.909zm10.172 0H60.17v40.655h10.17V99.909zm10.172 0H70.341v40.655h10.172V99.909zm10.173 0H80.514v40.655h10.172V99.909zm10.172 0H90.686v40.655h10.172V99.909z"/></g></g><path d="M1 1h98v98H1z"/><defs><clipPath id="cia"><path d="M0 0h100v100H0z"/></clipPath><clipPath id="cib"><path transform="translate(-52 -2)" d="M0 0h204v153H0z"/></clipPath></defs></svg><svg viewBox="0 0 100 100" id="var-12" xmlns="http://www.w3.org/2000/svg"><g clip-path="url(#cja)"><path d="M0 0h100v100H0z"/><g clip-path="url(#cjb)" stroke-width=".5" stroke-miterlimit="10"><path d="M17.214 8.525l5.896-5.897L-.475-20.957l-5.897 5.896L17.214 8.525z"/><path d="M11.318 14.42l5.896-5.895-23.586-23.586-5.896 5.896 23.586 23.586z"/><path d="M-24.061 26.214l5.896 5.896L5.421 8.524-.476 2.628-24.06 26.214zM5.42 43.902l-5.896-5.896-23.585 23.586 5.896 5.896L5.42 43.902zm11.794 35.379l5.896-5.896L-.475 49.799l-5.897 5.896 23.586 23.586zm-5.896 5.896l5.896-5.896-23.586-23.586-5.896 5.897 23.586 23.585z"/><path d="M-24.061 96.97l5.896 5.896L5.421 79.281l-5.896-5.897-23.586 23.586zm17.689-76.653l-5.897 5.896L11.317 49.8l5.896-5.896-23.585-23.586zm5.896-5.897l-5.896 5.897 23.586 23.586 5.896-5.896L-.476 14.42z"/><path d="M34.903 2.628l-5.896-5.896L5.42 20.317l5.896 5.897L34.903 2.628z"/><path d="M40.798 8.524l-5.896-5.896-23.585 23.586 5.896 5.896L40.798 8.524z"/><path d="M52.592 43.903l5.896-5.896L34.903 14.42l-5.897 5.896 23.586 23.586zm-5.896 5.896l5.896-5.896-23.586-23.586-5.896 5.896L46.696 49.8z"/><path d="M11.317 61.592l5.896 5.896 23.586-23.586-5.897-5.896-23.585 23.586z"/><path d="M5.421 55.696l5.896 5.896 23.586-23.586-5.896-5.896L5.42 55.696zm23.586-70.757L23.11-9.165l23.586 23.586 5.896-5.896-23.585-23.586z"/><path d="M34.902-20.957l-5.896 5.896L52.592 8.525l5.896-5.897-23.586-23.585zM87.97 8.525l5.896-5.897-23.585-23.585-5.897 5.896L87.97 8.525z"/><path d="M82.073 14.42l5.897-5.895-23.586-23.586-5.896 5.896 23.585 23.586z"/><path d="M46.696 26.214l5.896 5.896L76.177 8.524l-5.896-5.896-23.585 23.586z"/><path d="M40.8 20.317l5.895 5.897L70.281 2.628l-5.896-5.896-23.586 23.585zM-6.372 91.073l-5.897 5.897 23.586 23.585 5.896-5.896-23.585-23.586z"/><path d="M-.476 85.177l-5.896 5.896 23.586 23.586 5.896-5.896L-.476 85.177z"/><path d="M34.903 73.384l-5.896-5.896L5.42 91.074l5.896 5.896 23.586-23.586zM40.8 79.28l-5.897-5.896L11.318 96.97l5.896 5.896L40.8 79.281z"/><path d="M52.592 114.659l5.896-5.896-23.585-23.586-5.897 5.896 23.586 23.586z"/><path d="M46.696 120.555l5.896-5.896-23.586-23.586-5.896 5.897 23.586 23.585zm-17.689-64.86l-5.897 5.897 23.586 23.585 5.896-5.896-23.585-23.586z"/><path d="M34.902 49.8l-5.896 5.895 23.586 23.586 5.896-5.896-23.586-23.586z"/><path d="M70.281 38.006l-5.896-5.896-23.586 23.586 5.896 5.896 23.586-23.586z"/><path d="M76.177 43.902l-5.896-5.896-23.586 23.586 5.897 5.896 23.585-23.586z"/><path d="M87.97 79.281l5.896-5.896-23.585-23.586-5.897 5.896L87.97 79.281z"/><path d="M82.073 85.177l5.897-5.896-23.586-23.586-5.896 5.897 23.585 23.585z"/><path d="M46.696 96.97l5.896 5.896 23.586-23.585-5.897-5.897L46.696 96.97zM40.8 91.074l5.895 5.896 23.586-23.586-5.896-5.896-23.586 23.586zm23.585-70.757l-5.897 5.896L82.074 49.8l5.896-5.896-23.585-23.586zm5.896-5.897l-5.896 5.897L87.97 43.903l5.896-5.896L70.28 14.42z"/><path d="M105.659 2.628l-5.896-5.896-23.586 23.586 5.896 5.896L105.66 2.628z"/><path d="M111.555 8.524l-5.896-5.896-23.586 23.586 5.897 5.896 23.585-23.586z"/><path d="M123.348 43.903l5.896-5.896-23.586-23.586-5.896 5.896 23.586 23.586z"/><path d="M117.452 49.8l5.897-5.897-23.586-23.586-5.896 5.896L117.452 49.8z"/><path d="M82.073 61.592l5.897 5.896 23.585-23.586-5.896-5.896-23.586 23.586z"/><path d="M76.177 55.696l5.896 5.896 23.586-23.586-5.896-5.896-23.586 23.586zm23.585-70.757l-5.896 5.896 23.586 23.586 5.896-5.896-23.586-23.586zm5.897-5.896l-5.896 5.896 23.585 23.586 5.897-5.897-23.586-23.585zM64.385 91.073l-5.897 5.897 23.586 23.585 5.896-5.896-23.585-23.586z"/><path d="M70.281 85.177l-5.896 5.896L87.97 114.66l5.897-5.896L70.28 85.177z"/><path d="M105.659 73.384l-5.896-5.896-23.586 23.586 5.896 5.896 23.586-23.586z"/><path d="M111.555 79.28l-5.896-5.896L82.073 96.97l5.897 5.896 23.585-23.585z"/><path d="M123.348 114.659l5.896-5.896-23.586-23.586-5.896 5.896 23.586 23.586z"/><path d="M117.452 120.555l5.897-5.896-23.586-23.586-5.896 5.897 23.585 23.585zm-17.69-64.86l-5.896 5.897 23.586 23.585 5.896-5.896-23.586-23.586zm5.897-5.895l-5.896 5.895 23.585 23.586 5.897-5.896-23.586-23.586z"/></g></g><path d="M1 1h98v98H1z"/><defs><clipPath id="cja"><path d="M0 0h100v100H0z"/></clipPath><clipPath id="cjb"><path transform="translate(-48 -39)" d="M0 0h195.287v177.598H0z"/></clipPath></defs></svg><svg viewBox="0 0 100 100" id="var-13" xmlns="http://www.w3.org/2000/svg"><g clip-path="url(#cka)"><path d="M0 0h100v100H0z"/><g clip-path="url(#ckb)" stroke-width=".5" stroke-miterlimit="10"><path d="M-1.978 14.078l5.471-5.47-21.886-21.887-5.47 5.472 21.885 21.885zm5.471 27.356l5.47-5.47-21.885-21.886-5.471 5.47L3.493 41.436z"/><path d="M-1.978 46.906l5.471-5.472-21.886-21.885-5.47 5.47 21.885 21.887z"/><path d="M8.964 68.79l5.471-5.47L-7.45 41.433l-5.471 5.47L8.964 68.792zm-5.471 5.472l5.47-5.471-21.885-21.886-5.471 5.471L3.493 74.262zm10.942 21.885l5.471-5.471L-1.98 68.79l-5.47 5.471 21.885 21.886z"/><path d="M8.964 101.618l5.471-5.471L-7.45 74.26l-5.471 5.471 21.885 21.886zm-5.472-5.472l-5.471-5.471-21.886 21.885 5.471 5.472L3.492 96.146z"/><path d="M19.907 123.503l5.47-5.471L3.493 96.146l-5.471 5.471 21.886 21.886zm.001-142.253l-5.472-5.471L-7.449-2.335l5.471 5.47L19.908-18.75z"/><path d="M25.378-13.279l-5.47-5.471L-1.98 3.136l5.472 5.471 21.886-21.886zm16.415 27.357l5.472-5.471-21.886-21.886-5.471 5.471 21.885 21.886z"/><path d="M36.322 19.55l5.471-5.472L19.907-7.808l-5.471 5.472 21.886 21.885z"/><path d="M19.908 3.135l-5.472-5.471-21.885 21.885 5.471 5.472L19.908 3.135z"/><path d="M25.378 8.606l-5.47-5.471L-1.98 25.02l5.472 5.471L25.379 8.606zm5.472 5.471l-5.471-5.47L3.493 30.491l5.471 5.471L30.85 14.077z"/><path d="M47.264 41.434l5.471-5.47L30.85 14.076l-5.472 5.472 21.886 21.885z"/><path d="M41.793 46.906l5.472-5.472L25.379 19.55l-5.471 5.47 21.885 21.887zM25.378 30.491l-5.47-5.471L-1.98 46.906l5.472 5.471 21.886-21.886z"/><path d="M30.85 35.962l-5.471-5.47L3.493 52.376l5.471 5.471L30.85 35.962z"/><path d="M36.32 41.434l-5.47-5.472L8.964 57.848l5.471 5.471 21.886-21.885z"/><path d="M52.736 68.79l5.471-5.47-21.886-21.886-5.471 5.47 21.886 21.887zm-5.472 5.472l5.471-5.471L30.85 46.905l-5.472 5.471 21.886 21.886z"/><path d="M30.85 57.847l-5.471-5.47L3.493 74.261l5.471 5.471L30.85 57.847zm5.47 5.472l-5.47-5.472L8.964 79.733l5.471 5.471L36.321 63.32z"/><path d="M41.792 68.79l-5.47-5.471-21.887 21.885 5.472 5.472L41.792 68.79z"/><path d="M58.206 96.147l5.472-5.471L41.792 68.79l-5.471 5.471 21.886 21.886z"/><path d="M52.736 101.618l5.471-5.471L36.321 74.26l-5.47 5.471 21.885 21.886zM36.32 85.204l-5.47-5.472-21.886 21.886 5.471 5.471 21.886-21.885z"/><path d="M41.792 90.675l-5.47-5.472-21.887 21.886 5.472 5.471 21.885-21.885z"/><path d="M47.263 96.146l-5.471-5.471-21.886 21.885 5.472 5.472 21.885-21.886z"/><path d="M63.678 123.503l5.471-5.471-21.885-21.886-5.472 5.471 21.886 21.886zM63.68-18.75l-5.472-5.471L36.322-2.335l5.471 5.47L63.68-18.75z"/><path d="M69.15-13.279l-5.471-5.471L41.793 3.136l5.471 5.471L69.15-13.279zm16.415 27.357l5.471-5.471L69.15-13.279l-5.47 5.471 21.885 21.886zm-5.472 5.472l5.471-5.472L63.68-7.808l-5.472 5.472 21.886 21.885z"/><path d="M63.68 3.135l-5.472-5.471-21.886 21.885 5.471 5.472L63.68 3.135z"/><path d="M69.15 8.606l-5.471-5.471L41.793 25.02l5.471 5.471L69.15 8.606zm5.472 5.471l-5.472-5.47-21.885 21.885 5.47 5.471 21.887-21.886z"/><path d="M91.036 41.434l5.47-5.47-21.885-21.886-5.471 5.47 21.886 21.886z"/><path d="M85.565 46.906l5.471-5.472L69.15 19.55l-5.47 5.47 21.885 21.887zM69.15 30.491l-5.471-5.471-21.886 21.886 5.471 5.471L69.15 30.491z"/><path d="M74.622 35.962l-5.472-5.47-21.885 21.885 5.47 5.471 21.887-21.886z"/><path d="M80.092 41.434l-5.47-5.472-21.887 21.886 5.472 5.471 21.885-21.885z"/><path d="M96.507 68.79l5.472-5.47-21.886-21.886-5.472 5.47 21.886 21.887zm-5.471 5.472l5.47-5.471-21.885-21.886-5.471 5.471 21.886 21.886z"/><path d="M74.622 57.847l-5.472-5.47-21.885 21.885 5.47 5.471 21.887-21.886z"/><path d="M80.092 63.319l-5.47-5.472-21.887 21.886 5.472 5.471L80.092 63.32z"/><path d="M85.564 68.79l-5.471-5.471-21.886 21.885 5.471 5.472L85.564 68.79z"/><path d="M101.978 96.147l5.471-5.472L85.563 68.79l-5.47 5.471 21.885 21.886z"/><path d="M96.507 101.618l5.472-5.471L80.093 74.26l-5.472 5.471 21.886 21.886z"/><path d="M80.092 85.204l-5.47-5.472-21.887 21.886 5.472 5.471 21.885-21.885z"/><path d="M85.564 90.675l-5.471-5.472-21.886 21.886 5.471 5.471 21.886-21.885z"/><path d="M91.035 96.146l-5.471-5.471-21.886 21.885 5.471 5.472 21.886-21.886zm16.415 27.357l5.471-5.471-21.886-21.886-5.471 5.471 21.886 21.886zm.001-142.253l-5.472-5.471L80.094-2.335l5.471 5.47 21.886-21.885z"/><path d="M112.921-13.279l-5.471-5.471L85.564 3.136l5.472 5.471 21.885-21.886zm-5.47 16.414l-5.472-5.471-21.885 21.885 5.471 5.472 21.886-21.886z"/><path d="M112.921 8.606l-5.471-5.471L85.564 25.02l5.472 5.471L112.92 8.606zm5.472 5.471l-5.471-5.47-21.886 21.885 5.471 5.471 21.886-21.886z"/><path d="M112.921 30.491l-5.471-5.471-21.886 21.886 5.472 5.471 21.885-21.886zm5.472 5.471l-5.471-5.47-21.886 21.885 5.471 5.471 21.886-21.886z"/><path d="M123.864 41.434l-5.471-5.472-21.886 21.886 5.471 5.471 21.886-21.885zm-5.471 16.413l-5.471-5.471-21.886 21.886 5.471 5.471 21.886-21.886zM123.864 63.319l-5.471-5.472-21.886 21.886 5.471 5.471 21.886-21.885zm0 21.885l-5.471-5.472-21.886 21.886 5.471 5.471 21.886-21.885z"/></g></g><path d="M1 1h98v98H1z"/><defs><clipPath id="cka"><path d="M0 0h100v100H0z"/></clipPath><clipPath id="ckb"><path transform="translate(-57 -30)" d="M0 0h214v159.282H0z"/></clipPath></defs></svg><svg viewBox="0 0 100 100" id="var-14" xmlns="http://www.w3.org/2000/svg"><g clip-path="url(#cla)"><path d="M0 0h100v100H0z"/><g clip-path="url(#clb)" stroke-width=".5" stroke-miterlimit="10"><path d="M7.226 3.273L-20.76 31.282l4.168 4.171L11.394 7.445 7.225 3.273z"/><path d="M35.21-24.735L7.226 3.273l4.167 4.172 27.985-28.008-4.168-4.172zM-6.767 25.62l-11.908 11.92 11.908 11.918L5.142 37.54-6.767 25.62z"/><path d="M5.142 13.702L-6.767 25.62 5.142 37.54 17.05 25.62 5.142 13.702z"/><path d="M17.05 1.784L5.142 13.702 17.05 25.62l11.908-11.918L17.05 1.784z"/><path d="M28.958-10.135L17.05 1.784l11.908 11.918L40.866 1.784 28.958-10.135zm11.908-11.918L28.958-10.135 40.866 1.783l11.909-11.918-11.909-11.918zM23.302 19.363L-4.683 47.371l4.168 4.172L27.47 23.535l-4.168-4.172z"/><path d="M51.286-8.645L23.302 19.363l4.168 4.172L55.454-4.474l-4.168-4.171zM-2.599 53.629l-11.908 11.918 11.908 11.918L9.31 65.547-2.6 53.629z"/><path d="M9.31 41.71L-2.6 53.63 9.31 65.547l11.908-11.918L9.31 41.71z"/><path d="M21.218 29.792L9.31 41.71l11.908 11.92 11.908-11.92-11.908-11.918zM33.126 17.873L21.218 29.792 33.126 41.71l11.908-11.918-11.908-11.919z"/><path d="M45.034 5.955L33.126 17.873l11.908 11.919 11.909-11.919L45.034 5.955zM56.942-5.963L45.034 5.955l11.909 11.918L68.85 5.955 56.942-5.963zM68.85-17.882L56.943-5.963 68.851 5.955 80.759-5.963 68.85-17.882zM11.394 63.461L-16.591 91.47l4.168 4.172 27.985-28.008-4.168-4.172z"/><path d="M39.378 35.453L11.394 63.461l4.167 4.172 27.985-28.009-4.168-4.171zm55.969-56.016L67.362 7.445l4.168 4.171 27.985-28.008-4.168-4.171z"/><path d="M67.362 7.445L39.378 35.453l4.168 4.171L71.53 11.616l-4.168-4.171zM1.57 81.637l-11.91 11.918 11.91 11.918 11.909-11.918-11.91-11.918z"/><path d="M13.478 69.718L1.569 81.637l11.909 11.918 11.908-11.918-11.908-11.919z"/><path d="M25.386 57.8L13.477 69.718l11.909 11.919 11.908-11.919L25.386 57.8zm11.908-11.918L25.386 57.8l11.908 11.918L49.202 57.8 37.294 45.882z"/><path d="M49.202 33.963L37.294 45.882 49.202 57.8l11.909-11.918-11.909-11.919z"/><path d="M61.11 22.045L49.202 33.963 61.11 45.882l11.91-11.919-11.91-11.918z"/><path d="M73.019 10.126L61.11 22.045l11.91 11.918 11.908-11.918L73.02 10.126z"/><path d="M84.927-1.792L73.019 10.126l11.908 11.919 11.908-11.919L84.927-1.791zM27.47 79.551L-.515 107.56l4.168 4.172 27.985-28.008-4.168-4.172zm27.984-28.008L27.47 79.55l4.168 4.171 27.984-28.008-4.168-4.171zm55.969-56.017L83.439 23.535l4.167 4.171L115.591-.302l-4.168-4.172z"/><path d="M83.439 23.535L55.454 51.543l4.168 4.171 27.984-28.008-4.167-4.171zM17.646 97.727L5.737 109.645l11.909 11.918 11.908-11.918-11.908-11.918z"/><path d="M29.554 85.808L17.645 97.727l11.909 11.918 11.908-11.918-11.908-11.919z"/><path d="M41.462 73.89L29.554 85.808l11.908 11.919L53.37 85.808 41.462 73.89z"/><path d="M53.37 61.971L41.462 73.89 53.37 85.808 65.278 73.89 53.37 61.97z"/><path d="M65.278 50.053L53.37 61.971 65.278 73.89l11.909-11.92-11.909-11.917z"/><path d="M77.187 38.135L65.278 50.053l11.909 11.918 11.908-11.918-11.908-11.918z"/><path d="M89.095 26.216L77.186 38.135l11.909 11.918 11.908-11.918-11.908-11.919z"/><path d="M101.003 14.298L89.095 26.216l11.908 11.919 11.908-11.919-11.908-11.918zM43.546 95.64l-27.984 28.01 4.167 4.171 27.985-28.008-4.168-4.171zM71.53 67.633L43.546 95.64l4.168 4.171 27.984-28.008-4.168-4.171z"/><path d="M127.499 11.616L99.515 39.624l4.168 4.172 27.984-28.008-4.168-4.172zM99.515 39.624L71.53 67.633l4.168 4.171 27.985-28.008-4.168-4.172zM57.538 89.98L45.63 101.898l11.908 11.918 11.908-11.918L57.538 89.98z"/><path d="M69.446 78.061L57.538 89.98l11.908 11.918L81.355 89.98 69.446 78.06z"/><path d="M81.355 66.143L69.446 78.06l11.909 11.92 11.908-11.92-11.908-11.917z"/><path d="M93.263 54.224L81.354 66.143l11.91 11.917 11.908-11.918-11.908-11.919z"/><path d="M105.171 42.306L93.263 54.225l11.908 11.918 11.908-11.919-11.908-11.918zM87.606 83.723L59.622 111.73l4.168 4.171 27.984-28.008-4.168-4.171z"/><path d="M115.591 55.714L87.606 83.722l4.168 4.172 27.985-28.008-4.168-4.172zM85.522 94.151L73.614 106.07l11.908 11.919 11.909-11.919-11.909-11.918z"/><path d="M97.43 82.233L85.523 94.15l11.909 11.918L109.34 94.15 97.432 82.232z"/><path d="M109.339 70.314L97.431 82.233l11.908 11.918 11.908-11.918-11.908-11.919z"/></g></g><path d="M1 1h98v98H1z"/><defs><clipPath id="cla"><path d="M0 0h100v100H0z"/></clipPath><clipPath id="clb"><path transform="translate(-49 -53)" d="M0 0h197v207H0z"/></clipPath></defs></svg><svg viewBox="0 0 100 100" id="var-15" xmlns="http://www.w3.org/2000/svg"><g clip-path="url(#cma)"><path d="M0 0h100v100H0z"/><g clip-path="url(#cmb)" stroke-width=".5" stroke-miterlimit="10"><path d="M50 .199H6.654v6.455H50V.2zM50 50V6.654h-6.456V50H50zM.198 50h43.346v-6.456H.198V50z"/><path d="M.2.199v43.345h6.455V.2H.199z"/><path d="M25.1 6.654H6.653V25.1H25.1V6.654zm18.444 0H25.1V25.1h18.444V6.654zM25.1 25.1H6.653v18.444H25.1V25.1zm18.444 0H25.1v18.444h18.444V25.1zM99.802.199H56.456v6.455h43.346V.2zm0 49.801V6.654h-6.456V50h6.456zM50 50h43.346v-6.456H50V50zM50 .199v43.345h6.456V.2H50zm24.9 6.455H56.457V25.1h18.445V6.654z"/><path d="M93.345 6.654H74.9V25.1h18.445V6.654zM74.9 25.1H56.457v18.444h18.445V25.1z"/><path d="M93.345 25.1H74.9v18.444h18.445V25.1zM50 50H6.654v6.456H50V50zm0 49.801V56.456h-6.456V99.8H50zm-49.802 0h43.346v-6.455H.198V99.8z"/><path d="M.2 50v43.346h6.455V50H.199z"/><path d="M25.1 56.456H6.653V74.9H25.1V56.456zm18.444 0H25.1V74.9h18.444V56.456zM25.1 74.9H6.653v18.445H25.1V74.901zm18.444 0H25.1v18.445h18.444V74.901zM99.802 50H56.456v6.456h43.346V50zM99.8 99.801V56.456h-6.455V99.8h6.456z"/><path d="M50 99.801h43.346v-6.455H50V99.8zM50 50v43.346h6.456V50H50zm24.9 6.456H56.457V74.9h18.445V56.456z"/><path d="M93.345 56.456H74.9V74.9h18.445V56.456zM74.9 74.9H56.457v18.445h18.445V74.901z"/><path d="M93.345 74.9H74.9v18.445h18.445V74.901z"/></g></g><path d="M1 1h98v98H1z"/><defs><clipPath id="cma"><path d="M0 0h100v100H0z"/></clipPath><clipPath id="cmb"><path d="M0 0h100v100H0z"/></clipPath></defs></svg><svg viewBox="0 0 100 100" id="var-16" xmlns="http://www.w3.org/2000/svg"><g clip-path="url(#cna)"><path d="M0 0h100v100H0z"/><g clip-path="url(#cnb)" stroke-width=".5" stroke-miterlimit="10"><path d="M46.578 20.173H.615v6.846h45.963v-6.846zM-6.23.615v45.962H.615V.615H-6.23z"/><path d="M20.173-25.79v45.963h6.845v-45.962h-6.845zm0 52.809V72.98h6.845V27.02h-6.845z"/><path d="M20.174 27.019H.615v19.558h19.559V27.02zm0-26.404H.615v19.558h19.559V.615zm26.403 26.404H27.019v19.558h19.558V27.02zm.001 45.962H.615v6.846h45.963V72.98zM-6.23 53.423v45.962H.615V53.423H-6.23zm26.403 26.404v45.962h6.845V79.827h-6.845z"/><path d="M20.174 79.827H.615v19.558h19.559V79.827zm26.403 0H27.019v19.558h19.558V79.827zm-26.404-33.25h-45.962v6.846h45.962v-6.846zm105.617 0H79.827v6.846h45.963v-6.846zm-52.809 0H27.019v6.846H72.98v-6.846zm-52.807 6.846H.615V72.98h19.559V53.423zm79.211-33.25H53.423v6.846h45.962v-6.846z"/><path d="M46.577.615v45.962h6.846V.615h-6.846zm26.404 26.404H53.423v19.558H72.98V27.02zm0-26.404H53.423v19.558H72.98V.615zm26.404 72.366H53.423v6.846h45.962V72.98zM46.577 53.423v45.962h6.846V53.423h-6.846zm26.404 26.404H53.423v19.558H72.98V79.827zm0-26.404H53.423V72.98H72.98V53.423zm-26.404 0H27.019V72.98h19.558V53.423z"/><path d="M72.981 27.019V72.98h6.846V27.02H72.98zm26.405 0H79.827v19.558h19.559V27.02zM72.981 79.827v45.962h6.846V79.827H72.98zm26.405 0H79.827v19.558h19.559V79.827zm0-26.404H79.827V72.98h19.559V53.423zM20.173 99.385h-45.962v6.846h45.962v-6.846zm105.617 0H79.827v6.846h45.963v-6.846z"/><path d="M72.981 99.385H27.019v6.846H72.98v-6.846zM46.577.615H27.019v19.558h19.558V.615zM72.981-25.79v45.963h6.846v-45.962H72.98zM99.386.615H79.827v19.558h19.559V.615z"/></g></g><path d="M1 1h98v98H1z"/><defs><clipPath id="cna"><path d="M0 0h100v100H0z"/></clipPath><clipPath id="cnb"><path transform="translate(-26 -26)" d="M0 0h152v152H0z"/></clipPath></defs></svg><svg viewBox="0 0 100 100" id="var-2" xmlns="http://www.w3.org/2000/svg"><g clip-path="url(#coa)"><path d="M0 0h100v100H0z"/><g clip-path="url(#cob)" stroke-width=".5" stroke-miterlimit="10"><path d="M-.498 31.896h11.222V-12.92H-.498v44.817z"/><path d="M-.498 76.714h11.222V31.896H-.498v44.818zm0 44.818h11.222V76.714H-.498v44.818z"/><path d="M10.723 44.234h11.222V-.584H10.723v44.818zm0 44.817h11.222V44.234H10.723V89.05zm0 44.818h11.222V89.052H10.723v44.817zm11.222-77.298h11.222V11.754H21.945V56.57zm0 44.818h11.222V56.571H21.945v44.818zm11.222-32.48h11.222V24.09H33.167v44.82z"/><path d="M33.167 113.727h11.222V68.909H33.167v44.818zM44.39 81.246h11.22V36.43H44.39v44.817z"/><path d="M44.39 126.064h11.22V81.246H44.39v44.818zm11.221-32.48h11.222V48.766H55.611v44.818zm0 44.818h11.222V93.584H55.611v44.818zm11.222-32.48h11.222V61.104H66.833v44.818zm11.222 12.337h11.222V73.441H78.055v44.818zm11.222 12.338h11.222V85.779H89.277v44.818zM21.945 11.754h11.222v-44.818H21.945v44.818zm11.222 12.337h11.222v-44.817H33.167V24.09zM44.39 36.429h11.22V-8.39H44.39v44.818zM55.611 3.948h11.222v-44.817H55.611V3.948z"/><path d="M55.611 48.766h11.222V3.95H55.611v44.817zm11.222-32.48h11.222v-44.818H66.833v44.818zm0 44.818h11.222V16.286H66.833v44.818zm11.222-32.48h11.222v-44.818H78.055v44.818zm0 44.817h11.222V28.624H78.055V73.44zm11.222-32.48h11.222V-3.857H89.277v44.818z"/><path d="M89.277 85.78h11.222V40.96H89.277v44.82z"/></g></g><path d="M1 1h98v98H1z"/><defs><clipPath id="coa"><path d="M0 0h100v100H0z"/></clipPath><clipPath id="cob"><path transform="translate(-57 -75)" d="M0 0h214v243H0z"/></clipPath></defs></svg><svg viewBox="0 0 100 100" id="var-3" xmlns="http://www.w3.org/2000/svg"><g clip-path="url(#cpa)"><path d="M0 0h100v100H0z"/><g clip-path="url(#cpb)" stroke-width=".5" stroke-miterlimit="10"><path d="M-19.303-9.137V.719H20.3v-9.856h-39.602zm0 9.857v9.855H20.3V.72h-39.602z"/><path d="M-19.303 10.575v9.857H20.3v-9.857h-39.602zM20.299-9.137V.719H59.9v-9.856H20.3z"/><path d="M20.299.72v9.855H59.9V.72H20.3z"/><path d="M20.299 10.575v9.857H59.9v-9.857H20.3zM59.9-9.137V.719h39.602v-9.856H59.9zm0 9.857v9.855h39.602V.72H59.9zM59.9 10.575v9.857h39.602v-9.857H59.9zM99.502-9.137V.719h39.601v-9.856H99.502zm0 9.857v9.855h39.601V.72H99.502zM99.502 10.575v9.857h39.601v-9.857H99.502zm-138.604 9.856v9.857h39.6V20.43h-39.6zM-39.102 30.288v9.856h39.6v-9.856h-39.6zm0 9.856V50h39.6v-9.856h-39.6z"/><path d="M.498 20.431v9.857h39.601V20.43H.498z"/><path d="M.498 30.288v9.856h39.601v-9.856H.498zm0 9.856V50h39.601v-9.856H.498zM40.1 20.431v9.857h39.6V20.43H40.1z"/><path d="M40.1 30.288v9.856h39.6v-9.856H40.1zm0 9.856V50h39.6v-9.856H40.1zm39.601-19.713v9.857h39.602V20.43H79.701zM79.701 30.288v9.856h39.602v-9.856H79.701zm0 9.856V50h39.602v-9.856H79.701zM-19.303 50v9.856H20.3V50h-39.602zm0 9.856v9.856H20.3v-9.856h-39.602zm0 9.856v9.856H20.3v-9.856h-39.602z"/><path d="M20.299 50v9.856H59.9V50H20.3zm0 9.856v9.856H59.9v-9.856H20.3zm0 9.856v9.856H59.9v-9.856H20.3zM59.9 50v9.856h39.602V50H59.9zm0 9.856v9.856h39.602v-9.856H59.9zm0 9.856v9.856h39.602v-9.856H59.9zM99.502 50v9.856h39.601V50H99.502zm0 9.856v9.856h39.601v-9.856H99.502zm0 9.856v9.856h39.601v-9.856H99.502zm-138.605 9.856v9.857h39.6v-9.857h-39.6zm0 9.857v9.856h39.6v-9.856h-39.6z"/><path d="M-39.103 99.28v9.857h39.6v-9.856h-39.6zM.498 79.569v9.856h39.601v-9.856H.498zm0 9.856v9.856h39.601v-9.856H.498z"/><path d="M.498 99.28v9.857h39.601v-9.856H.498zM40.1 79.569v9.856h39.6v-9.856H40.1zm0 9.856v9.856h39.6v-9.856H40.1z"/><path d="M40.1 99.28v9.857h39.6v-9.856H40.1zm39.601-19.711v9.856h39.602v-9.856H79.701zm0 9.856v9.856h39.602v-9.856H79.701z"/><path d="M79.701 99.28v9.857h39.602v-9.856H79.701z"/></g></g><path d="M1 1h98v98H1z"/><defs><clipPath id="cpa"><path d="M0 0h100v100H0z"/></clipPath><clipPath id="cpb"><path transform="translate(-79 -39)" d="M0 0h258v178H0z"/></clipPath></defs></svg><svg viewBox="0 0 100 100" id="var-4" xmlns="http://www.w3.org/2000/svg"><g clip-path="url(#cqa)"><path d="M0 0h100v100H0z"/><g clip-path="url(#cqb)" stroke-width=".512" stroke-miterlimit="10"><path d="M24.678-29.381L-.744-3.96v16.674l25.422-25.421v-16.674z"/><path d="M24.678-12.707L-.744 12.714v16.674L24.678 3.967v-16.674z"/><path d="M24.678 3.966L-.744 29.388v16.674L24.678 20.64V3.966z"/><path d="M24.678 20.64L-.744 46.062v16.674l25.422-25.422V20.64zm0 16.674L-.744 62.736V79.41l25.422-25.422V37.314z"/><path d="M24.678 53.988L-.744 79.41v16.674l25.422-25.422V53.988z"/><path d="M24.678 70.662L-.744 96.084v16.674l25.422-25.422V70.662zm0-100.043L50.1-3.96v16.674L24.678-12.707v-16.674z"/><path d="M24.678-12.707L50.1 12.714v16.674L24.678 3.967v-16.674z"/><path d="M24.678 3.966L50.1 29.388v16.674L24.678 20.64V3.966z"/><path d="M24.678 20.64L50.1 46.062v16.674L24.678 37.314V20.64z"/><path d="M24.678 37.314L50.1 62.736V79.41L24.678 53.988V37.314z"/><path d="M24.678 53.988L50.1 79.41v16.674L24.678 70.662V53.988z"/><path d="M24.678 70.662L50.1 96.084v16.674L24.678 87.336V70.662zM75.52-29.381L50.1-3.96v16.674l25.42-25.421v-16.674z"/><path d="M75.52-12.707L50.1 12.714v16.674L75.52 3.967v-16.674z"/><path d="M75.52 3.966L50.1 29.388v16.674L75.52 20.64V3.966zm0 16.674L50.1 46.062v16.674l25.42-25.422V20.64z"/><path d="M75.52 37.314L50.1 62.736V79.41l25.42-25.422V37.314z"/><path d="M75.52 53.988L50.1 79.41v16.674l25.42-25.422V53.988z"/><path d="M75.52 70.662L50.1 96.084v16.674l25.42-25.422V70.662zm.002-100.043l25.42 25.421v16.674l-25.42-25.421v-16.674z"/><path d="M75.522-12.707l25.421 25.421v16.674L75.522 3.967v-16.674z"/><path d="M75.522 3.966l25.421 25.422v16.674L75.522 20.64V3.966z"/><path d="M75.522 20.64l25.421 25.422v16.674L75.522 37.314V20.64zm0 16.674l25.421 25.422V79.41L75.522 53.988V37.314z"/><path d="M75.522 53.988l25.421 25.422v16.674L75.522 70.662V53.988z"/><path d="M75.522 70.662l25.421 25.422v16.674L75.522 87.336V70.662zM24.678 87.336L-.744 112.758v16.674l25.422-25.422V87.336zm0 0L50.1 112.758v16.674L24.678 104.01V87.336zm50.842 0L50.1 112.758v16.674l25.42-25.422V87.336z"/><path d="M75.522 87.336l25.421 25.422v16.674L75.522 104.01V87.336z"/></g></g><path d="M1 1h98v98H1z"/><defs><clipPath id="cqa"><path d="M0 0h100v100H0z"/></clipPath><clipPath id="cqb"><path transform="translate(-1 -30)" d="M0 0h102.2v160.051H0z"/></clipPath></defs></svg><svg viewBox="0 0 100 100" id="var-5" xmlns="http://www.w3.org/2000/svg"><g clip-path="url(#cra)"><path d="M0 0h100v100H0z"/><g clip-path="url(#crb)" stroke-width=".512" stroke-miterlimit="10"><path d="M135.685-4.046l-8.927-8.88L90.61 23.031l8.927 8.88 36.148-35.958zM9.83 14.589L.901 5.709l-36.147 35.958 8.927 8.88L9.829 14.589z"/><path d="M45.977-21.37l-8.927-8.88L.902 5.71l8.927 8.88 36.148-35.96z"/><path d="M36.83 5.49l-8.927-8.88-36.147 35.958 8.927 8.88L36.83 5.49z"/><path d="M27.683 32.35l-8.927-8.881-36.148 35.958 8.927 8.88L27.683 32.35zM63.83-3.609l-8.927-8.88-36.147 35.958 8.927 8.88L63.83-3.609z"/><path d="M18.536 59.208l-8.927-8.88-36.147 35.958 8.927 8.88 36.147-35.958z"/><path d="M54.684 23.25l-8.927-8.88L9.609 50.328l8.927 8.88L54.684 23.25z"/><path d="M90.831-12.708l-8.927-8.88L45.757 14.37l8.927 8.88L90.83-12.708z"/><path d="M117.831-21.807l-8.927-8.88L72.757 5.271l8.927 8.88 36.147-35.958zM9.389 86.067l-8.927-8.88-36.148 35.958 8.927 8.88L9.39 86.067zM45.536 50.11l-8.927-8.88L.462 77.186l8.927 8.88L45.536 50.11z"/><path d="M81.684 14.151l-8.927-8.88L36.609 41.23l8.927 8.88 36.148-35.958zM36.39 76.969l-8.927-8.88-36.148 35.957 8.927 8.881L36.39 76.968z"/><path d="M72.537 41.01l-8.927-8.88-36.147 35.958 8.927 8.88L72.537 41.01z"/><path d="M108.685 5.052l-8.927-8.88L63.61 32.13l8.927 8.88 36.148-35.958zM63.39 67.87l-8.926-8.88-36.148 35.958 8.927 8.88L63.391 67.87z"/><path d="M99.538 31.912l-8.927-8.88L54.464 58.99l8.927 8.88 36.147-35.958zM54.243 94.729l-8.927-8.88L9.17 121.807l8.927 8.88 36.147-35.958z"/><path d="M90.39 58.77l-8.926-8.88-36.148 35.96 8.927 8.88 36.148-35.96z"/><path d="M126.538 22.813l-8.927-8.88L81.464 49.89l8.927 8.88 36.147-35.958zM81.244 85.63l-8.927-8.88-36.147 35.958 8.927 8.88L81.244 85.63z"/><path d="M117.392 49.672l-8.927-8.88L72.317 76.75l8.927 8.88 36.148-35.958z"/><path d="M108.244 76.531l-8.927-8.88-36.147 35.958 8.927 8.88 36.147-35.958z"/></g></g><path d="M1 1h98v98H1z"/><defs><clipPath id="cra"><path d="M0 0h100v100H0z"/></clipPath><clipPath id="crb"><path transform="translate(-36 -31)" d="M0 0h172v162H0z"/></clipPath></defs></svg><svg viewBox="0 0 100 100" id="var-6" xmlns="http://www.w3.org/2000/svg"><g clip-path="url(#csa)"><path d="M0 0h100v100H0z"/><g clip-path="url(#csb)" stroke-width=".5" stroke-miterlimit="10"><path d="M-28.432-32.69l-8.256 8.257L-3.663 8.59 4.592.335-28.432-32.69z"/><path d="M-28.432-16.178l-8.256 8.256 33.024 33.024 8.256-8.256-33.024-33.024z"/><path d="M-28.432.334l-8.256 8.255 33.024 33.024 8.256-8.255L-28.432.334z"/><path d="M-28.432 16.845l-8.256 8.256 33.024 33.024 8.256-8.256-33.024-33.024z"/><path d="M-28.432 33.356l-8.256 8.256 33.024 33.024 8.256-8.256-33.024-33.024zm0 16.512l-8.256 8.255 33.024 33.024 8.256-8.255-33.024-33.024z"/><path d="M-28.432 66.38l-8.256 8.255 33.024 33.024 8.256-8.256-33.024-33.024z"/><path d="M-28.432 82.89l-8.256 8.256 33.024 33.024 8.256-8.256-33.024-33.024z"/><path d="M-28.432 99.402l-8.256 8.255 33.024 33.024 8.256-8.255-33.024-33.024zM37.616-32.689l-8.256-8.256L-3.664-7.92 4.592.335l33.024-33.024z"/><path d="M37.616-32.69l-8.256 8.257L62.384 8.59 70.64.335 37.616-32.69z"/><path d="M37.616-16.178l-8.256-8.255L-3.664 8.59l8.256 8.255 33.024-33.024zm0 0L29.36-7.922l33.024 33.024 8.256-8.256-33.024-33.024z"/><path d="M37.616.334L29.36-7.922-3.664 25.102l8.256 8.256L37.616.334z"/><path d="M37.616.334L29.36 8.589l33.024 33.024 8.256-8.255L37.616.334z"/><path d="M37.616 16.845L29.36 8.59-3.664 41.613l8.256 8.256 33.024-33.024z"/><path d="M37.616 16.845l-8.256 8.256 33.024 33.024 8.256-8.256-33.024-33.024z"/><path d="M37.616 33.356l-8.256-8.255-33.024 33.024 8.256 8.255 33.024-33.024z"/><path d="M37.616 33.356l-8.256 8.256 33.024 33.024 8.256-8.256-33.024-33.024z"/><path d="M37.616 49.868l-8.256-8.256-33.024 33.024 8.256 8.256 33.024-33.024z"/><path d="M37.616 49.868l-8.256 8.255 33.024 33.024 8.256-8.255-33.024-33.024z"/><path d="M37.616 66.38l-8.256-8.257-33.024 33.024 8.256 8.256L37.616 66.38z"/><path d="M37.616 66.38l-8.256 8.255 33.024 33.024 8.256-8.256-33.024-33.024z"/><path d="M37.616 82.89l-8.256-8.255-33.024 33.024 8.256 8.255 33.024-33.023z"/><path d="M37.616 82.89l-8.256 8.256 33.024 33.024 8.256-8.256L37.616 82.89z"/><path d="M37.616 99.402l-8.256-8.256-33.024 33.024 8.256 8.256 33.024-33.024z"/><path d="M37.616 99.402l-8.256 8.255 33.024 33.024 8.256-8.255-33.024-33.024zm66.048-132.091l-8.256-8.256L62.384-7.92 70.64.335l33.024-33.024z"/><path d="M103.664-32.689l-8.256 8.256L128.432 8.59l8.256-8.256-33.024-33.024z"/><path d="M103.664-16.178l-8.256-8.255L62.384 8.59l8.256 8.255 33.024-33.024zm0 0l-8.256 8.256 33.024 33.024 8.256-8.256-33.024-33.024zm0 16.512l-8.256-8.256-33.024 33.024 8.256 8.256L103.664.334z"/><path d="M103.664.334l-8.256 8.255 33.024 33.024 8.256-8.255L103.664.334zm0 16.511L95.408 8.59 62.384 41.613l8.256 8.256 33.024-33.024z"/><path d="M103.664 16.845l-8.256 8.256 33.024 33.024 8.256-8.256-33.024-33.024z"/><path d="M103.664 33.356l-8.256-8.255-33.024 33.024 8.256 8.255 33.024-33.024z"/><path d="M103.664 33.356l-8.256 8.256 33.024 33.024 8.256-8.256-33.024-33.024z"/><path d="M103.664 49.868l-8.256-8.256-33.024 33.024 8.256 8.256 33.024-33.024z"/><path d="M103.664 49.868l-8.256 8.255 33.024 33.024 8.256-8.255-33.024-33.024z"/><path d="M103.664 66.38l-8.256-8.257-33.024 33.024 8.256 8.256 33.024-33.024z"/><path d="M103.664 66.38l-8.256 8.255 33.024 33.024 8.256-8.256-33.024-33.024z"/><path d="M103.664 82.89l-8.256-8.255-33.024 33.024 8.256 8.255 33.024-33.023z"/><path d="M103.664 82.89l-8.256 8.256 33.024 33.024 8.256-8.256-33.024-33.023z"/><path d="M103.664 99.402l-8.256-8.256-33.024 33.024 8.256 8.256 33.024-33.024z"/><path d="M103.664 99.402l-8.256 8.256 33.024 33.024 8.256-8.256-33.024-33.024z"/></g></g><path d="M1 1h98v98H1z"/><defs><clipPath id="csa"><path d="M0 0h100v100H0z"/></clipPath><clipPath id="csb"><path transform="translate(-70 -66)" d="M0 0h240v231.737H0z"/></clipPath></defs></svg><svg viewBox="0 0 100 100" id="var-7" xmlns="http://www.w3.org/2000/svg"><g clip-path="url(#cta)"><path d="M0 0h100v100H0z"/><g clip-path="url(#ctb)" stroke-width=".5" stroke-miterlimit="10"><path d="M-6.358.551L.687-6.493l-28.18-28.18-7.044 7.045L-6.358.552zm-.001 28.179l7.045-7.045-28.18-28.18L-34.538.55-6.36 28.73zm.001 28.178l7.045-7.045-28.18-28.18-7.044 7.045 28.179 28.18zm-.001 28.178L.686 78.04l-28.18-28.179-7.044 7.045 28.178 28.18zm.001 28.178l7.045-7.045-28.18-28.179-7.044 7.045 28.179 28.179zM50 .551l7.045-7.044-28.18-28.18-7.044 7.045L50.001.552z"/><path d="M42.956 7.596L50 .55 21.82-27.628l-7.044 7.044 28.18 28.18zM21.82-13.539l-7.044-7.044-28.179 28.179 7.045 7.044L21.82-13.538z"/><path d="M28.865-6.494L21.82-13.54-6.359 14.64l7.045 7.044 28.179-28.18z"/><path d="M50 28.73l7.045-7.045-28.18-28.18L21.822.55l28.18 28.18zm-7.044 7.044L50 28.73 21.82.55l-7.044 7.045 28.18 28.179z"/><path d="M21.82 14.64l-7.044-7.045-28.179 28.18 7.045 7.044 28.179-28.18z"/><path d="M28.865 21.684l-7.045-7.045-28.179 28.18 7.045 7.044 28.179-28.18z"/><path d="M50 56.908l7.045-7.045-28.18-28.18-7.044 7.045 28.18 28.18zm-7.044 7.044L50 56.908l-28.18-28.18-7.044 7.045 28.18 28.18z"/><path d="M21.82 42.818l-7.044-7.045-28.179 28.18 7.045 7.044 28.179-28.18z"/><path d="M28.865 49.862l-7.045-7.044-28.179 28.179L.686 78.04l28.179-28.179z"/><path d="M50 85.086l7.045-7.045-28.18-28.179-7.044 7.044 28.18 28.18zm-7.044 7.044L50 85.086l-28.18-28.18-7.044 7.045 28.18 28.18z"/><path d="M21.82 70.996l-7.044-7.045-28.179 28.18 7.045 7.044 28.179-28.18z"/><path d="M28.865 78.04l-7.045-7.044-28.179 28.179 7.045 7.045 28.179-28.18z"/><path d="M50 113.264l7.045-7.045-28.18-28.179-7.044 7.045 28.18 28.179zm-7.044 7.045L50 113.264l-28.18-28.18-7.044 7.045 28.18 28.18z"/><path d="M21.82 99.174l-7.044-7.045-28.179 28.18 7.045 7.044 28.179-28.18z"/><path d="M28.865 106.218l-7.045-7.044-28.179 28.179 7.045 7.045 28.179-28.18zM106.359.551l7.044-7.044-28.179-28.18-7.044 7.045L106.359.552z"/><path d="M99.314 7.596L106.358.55 78.179-27.628l-7.044 7.044 28.179 28.18z"/><path d="M78.18-13.539l-7.045-7.044-28.18 28.179L50 14.64l28.18-28.179z"/><path d="M85.224-6.494L78.18-13.54 50 14.641l7.045 7.044 28.18-28.18z"/><path d="M106.359 28.73l7.044-7.045-28.179-28.18L78.18.55l28.179 28.18zm-7.045 7.044l7.044-7.044L78.179.55l-7.044 7.045 28.179 28.18z"/><path d="M78.18 14.64l-7.045-7.045-28.18 28.18L50 42.818l28.18-28.18z"/><path d="M85.224 21.684l-7.044-7.045L50 42.82l7.045 7.044 28.18-28.18z"/><path d="M106.359 56.908l7.044-7.045-28.179-28.18-7.044 7.045 28.179 28.18zm-7.045 7.044l7.044-7.044-28.179-28.18-7.044 7.045 28.179 28.18z"/><path d="M78.18 42.818l-7.045-7.045-28.18 28.18L50 70.996l28.18-28.18zm7.044 7.044l-7.044-7.044L50 70.997l7.045 7.044 28.18-28.179z"/><path d="M106.359 85.086l7.044-7.045-28.179-28.179-7.044 7.045 28.179 28.179zm-7.045 7.044l7.044-7.044-28.179-28.18-7.044 7.045 28.179 28.18z"/><path d="M78.18 70.996l-7.045-7.045-28.18 28.18L50 99.174l28.18-28.18zm7.044 7.044l-7.044-7.044L50 99.175l7.045 7.045 28.18-28.18z"/><path d="M106.359 113.264l7.044-7.045L85.224 78.04l-7.044 7.045 28.179 28.179zm-7.045 7.045l7.044-7.045-28.179-28.18-7.044 7.045 28.179 28.18z"/><path d="M78.18 99.174l-7.045-7.045-28.18 28.18L50 127.353l28.18-28.18z"/><path d="M85.224 106.218l-7.044-7.044L50 127.353l7.045 7.045 28.18-28.18zm49.314-119.757l-7.045-7.044-28.18 28.179 7.045 7.044 28.18-28.179zm0 28.179l-7.045-7.045-28.18 28.18 7.045 7.044 28.18-28.18zm0 28.178l-7.045-7.045-28.18 28.18 7.045 7.044 28.18-28.18zm0 28.178l-7.045-7.045-28.18 28.18 7.045 7.044 28.18-28.18zm0 28.178l-7.045-7.045-28.18 28.18 7.045 7.044 28.18-28.18z"/></g></g><path d="M1 1h98v98H1z"/><defs><clipPath id="cta"><path d="M0 0h100v100H0z"/></clipPath><clipPath id="ctb"><path transform="translate(-70 -49)" d="M0 0h240v197.725H0z"/></clipPath></defs></svg><svg viewBox="0 0 100 100" id="var-8" xmlns="http://www.w3.org/2000/svg"><g clip-path="url(#cua)"><path d="M0 0h100v100H0z"/><g clip-path="url(#cub)" stroke-width=".5" stroke-miterlimit="10"><path d="M-1.294 9.097L5.545 2.25l-27.357-27.392-6.84 6.848L-1.293 9.097zm0 41.087l6.839-6.848-27.357-27.392-6.84 6.847 27.358 27.393zm-.001 41.086l6.839-6.847-27.357-27.393-6.84 6.848L-1.294 91.27zm0 41.087l6.839-6.848-27.357-27.392-6.839 6.848 27.357 27.392zm34.198-157.5l-6.84-6.848L-1.293-4.598l6.84 6.848 27.357-27.393z"/><path d="M53.42 9.097l6.839-6.848-27.357-27.392-6.84 6.848L53.42 9.097z"/><path d="M46.58 15.945l6.84-6.848-27.357-27.392-6.84 6.848 27.358 27.392z"/><path d="M39.742 22.793l6.84-6.848-27.358-27.392L12.385-4.6l27.357 27.393zM19.224 2.248l-6.84-6.847-27.356 27.392 6.839 6.848L19.224 2.248z"/><path d="M26.063 9.096l-6.84-6.848-27.356 27.393 6.839 6.848L26.063 9.096z"/><path d="M32.901 15.944l-6.839-6.848-27.356 27.392 6.839 6.848 27.357-27.392z"/><path d="M53.42 50.184l6.839-6.848-27.357-27.392-6.84 6.847L53.42 50.184z"/><path d="M46.58 57.032l6.84-6.848L26.063 22.79l-6.84 6.848 27.358 27.393z"/><path d="M39.741 63.88l6.84-6.848-27.358-27.393-6.839 6.848L39.741 63.88z"/><path d="M19.224 43.335l-6.84-6.848-27.356 27.392 6.839 6.848 27.357-27.392z"/><path d="M26.063 50.183l-6.84-6.848-27.356 27.392 6.839 6.848 27.357-27.392z"/><path d="M32.901 57.03l-6.839-6.847-27.357 27.392 6.84 6.848L32.902 57.03z"/><path d="M53.419 91.27l6.839-6.847L32.9 57.03l-6.84 6.848L53.42 91.27z"/><path d="M46.58 98.118l6.839-6.848-27.357-27.392-6.839 6.848L46.58 98.118z"/><path d="M39.741 104.966l6.84-6.848-27.358-27.392-6.839 6.848 27.357 27.392z"/><path d="M19.224 84.422l-6.84-6.848-27.356 27.392 6.839 6.848 27.357-27.392z"/><path d="M26.063 91.27l-6.84-6.848-27.356 27.392 6.839 6.848 27.357-27.393z"/><path d="M32.901 98.117l-6.839-6.848-27.356 27.393 6.839 6.847 27.357-27.392z"/><path d="M53.419 132.357l6.839-6.848L32.9 98.117l-6.84 6.848 27.358 27.392zm34.197-157.5l-6.839-6.848L53.42-4.598l6.84 6.848 27.356-27.393z"/><path d="M108.134 9.097l6.839-6.848-27.357-27.392-6.84 6.848 27.358 27.392z"/><path d="M101.295 15.945l6.839-6.848-27.357-27.392-6.84 6.848 27.358 27.392z"/><path d="M94.456 22.793l6.839-6.848-27.357-27.392-6.84 6.847 27.358 27.393z"/><path d="M73.938 2.248l-6.84-6.847-27.356 27.392 6.839 6.848L73.938 2.248z"/><path d="M80.776 9.096l-6.838-6.848L46.58 29.641l6.84 6.847L80.775 9.096zm6.839 6.848l-6.839-6.848L53.42 36.488l6.84 6.848 27.356-27.392z"/><path d="M108.134 50.184l6.839-6.848-27.357-27.392-6.84 6.847 27.358 27.393z"/><path d="M101.295 57.032l6.839-6.848L80.777 22.79l-6.84 6.848 27.358 27.393z"/><path d="M94.456 63.88l6.839-6.849L73.938 29.64l-6.84 6.848L94.456 63.88z"/><path d="M73.938 43.335l-6.84-6.848L39.743 63.88l6.839 6.848 27.357-27.392z"/><path d="M80.776 50.183l-6.838-6.848L46.58 70.727l6.84 6.848 27.356-27.392z"/><path d="M87.615 57.03l-6.839-6.847L53.42 77.575l6.84 6.848L87.614 57.03z"/><path d="M108.134 91.27l6.839-6.847L87.616 57.03l-6.84 6.848 27.358 27.392zm-6.84 6.848l6.839-6.848-27.357-27.392-6.84 6.848 27.358 27.392z"/><path d="M94.455 104.966l6.839-6.848-27.357-27.392-6.839 6.848 27.357 27.392z"/><path d="M73.938 84.422l-6.84-6.848-27.356 27.392 6.839 6.848 27.357-27.392z"/><path d="M80.776 91.27l-6.838-6.849-27.358 27.393 6.84 6.848 27.356-27.393z"/><path d="M87.615 98.117l-6.839-6.848-27.357 27.393 6.84 6.847 27.356-27.392z"/><path d="M108.133 132.357l6.839-6.848-27.357-27.392-6.84 6.848 27.358 27.392zM128.651 2.248L121.812-4.6 94.456 22.793l6.839 6.848 27.356-27.393zm0 41.087l-6.839-6.848L94.456 63.88l6.839 6.848 27.356-27.392z"/><path d="M128.651 84.422l-6.839-6.848-27.356 27.392 6.838 6.848 27.357-27.392z"/></g></g><path d="M1 1h98v98H1z"/><defs><clipPath id="cua"><path d="M0 0h100v100H0z"/></clipPath><clipPath id="cub"><path transform="translate(-70 -46)" d="M0 0h240v192.366H0z"/></clipPath></defs></svg><svg viewBox="0 0 100 100" id="var-9" xmlns="http://www.w3.org/2000/svg"><g clip-path="url(#cva)"><path d="M0 0h100v100H0z"/><g clip-path="url(#cvb)" stroke-width=".5" stroke-miterlimit="10"><path d="M.105-29.748h-9.979v39.916H.105v-39.916z"/><path d="M10.083-29.748H.104v39.916h9.98v-39.916zm.001 49.896v-9.979h-39.917v9.979h39.917zm0 9.979v-9.979h-39.917v9.979h39.917z"/><path d="M10.084 40.105v-9.978h-39.917v9.979h39.917zm0 9.979v-9.978h-39.917v9.978h39.917zm-9.979 0h-9.979v39.917H.105V50.084z"/><path d="M10.083 50.084H.104v39.917h9.98V50.084zm.001 49.896v-9.978h-39.917v9.979h39.917z"/><path d="M10.084 109.96v-9.98h-39.917v9.98h39.917zM50 .19v-9.978H10.083V.19H50zm0 9.98V.19H10.083v9.98H50z"/><path d="M20.063 10.17h-9.979v39.916h9.979V10.169zm9.979 0h-9.979v39.916h9.98V10.169z"/><path d="M40.02 10.17h-9.978v39.916h9.979V10.169z"/><path d="M50 10.17h-9.98v39.916H50V10.169zm0 49.896v-9.98H10.083v9.98H50z"/><path d="M50 70.044v-9.978H10.083v9.978H50zm0 9.979v-9.979H10.083v9.98H50z"/><path d="M50 90.002v-9.979H10.083v9.979H50zm-29.937 0h-9.979v39.917h9.979V90.002zm9.979 0h-9.979v39.917h9.98V90.002z"/><path d="M40.02 90.002h-9.978v39.917h9.979V90.002z"/><path d="M50 90.002h-9.98v39.917H50V90.002zm9.979-119.75H50v39.916h9.979v-39.916zm9.979 0H59.98v39.916h9.978v-39.916zm9.979 0h-9.979v39.916h9.979v-39.916z"/><path d="M89.915-29.748h-9.979v39.916h9.98v-39.916zm.001 49.896v-9.979H49.999v9.979h39.917zm0 9.979v-9.979H49.999v9.979h39.917z"/><path d="M89.916 40.106v-9.98H49.999v9.98h39.917zm0 9.978v-9.978H49.999v9.978h39.917zm-29.937 0H50v39.917h9.979V50.084zm9.979 0H59.98v39.917h9.978V50.084zm9.979 0h-9.979v39.917h9.979V50.084z"/><path d="M89.915 50.084h-9.979v39.917h9.98V50.084zm.001 49.896v-9.978H49.999v9.979h39.917z"/><path d="M89.916 109.96v-9.98H49.999v9.98h39.917zM129.832.19v-9.978H89.915V.19h39.917zm0 9.98V.19H89.915v9.98h39.917z"/><path d="M99.895 10.17h-9.979v39.916h9.979V10.169zm9.979 0h-9.978v39.916h9.978V10.169zm19.958 49.896v-9.98H89.915v9.98h39.917z"/><path d="M129.832 70.044v-9.978H89.915v9.978h39.917zm0 9.979v-9.979H89.915v9.979h39.917zm0 9.979v-9.979H89.915v9.979h39.917zm-29.937 0h-9.979v39.917h9.979V90.002zm9.979 0h-9.978v39.917h9.978V90.002z"/></g></g><path d="M1 1h98v98H1z"/><defs><clipPath id="cva"><path d="M0 0h100v100H0z"/></clipPath><clipPath id="cvb"><path transform="translate(-70 -30)" d="M0 0h240v160.17H0z"/></clipPath></defs></svg><svg viewBox="0 0 100 100" id="var1" xmlns="http://www.w3.org/2000/svg"><g clip-path="url(#cwa)"><path d="M0 0h100v100H0z"/><g clip-path="url(#cwb)" fill-rule="evenodd" clip-rule="evenodd"><path d="M10.965 36.867H-.76v-45.4h11.725v45.4zm-.5-.5v-44.4H-.26v44.4h10.725z"/><path d="M10.965 81.766H-.76v-45.4h11.725v45.4zm-.5-.5v-44.4H-.26v44.4h10.725z"/><path d="M10.965 126.665H-.76v-45.4h11.725v45.4zm-.5-.5v-44.4H-.26v44.4h10.725zM22.19 14.417H10.464v-45.4h11.724v45.4zm-.5-.5v-44.4H10.964v44.4h10.724z"/><path d="M22.19 59.316H10.464V13.917h11.724v45.4zm-.5-.5V14.417H10.964v44.4h10.724z"/><path d="M22.19 104.215H10.464V58.816h11.724v45.399zm-.5-.5V59.316H10.964v44.399h10.724zm11.723-66.848H21.69v-45.4h11.724v45.4zm-.5-.5v-44.4H22.19v44.4h10.724z"/><path d="M33.413 81.766H21.69v-45.4h11.724v45.4zm-.5-.5v-44.4H22.19v44.4h10.724z"/><path d="M33.413 126.665H21.69v-45.4h11.724v45.4zm-.5-.5v-44.4H22.19v44.4h10.724zM44.638 14.417H32.913v-45.4h11.725v45.4zm-.5-.5v-44.4H33.413v44.4h10.725z"/><path d="M44.638 59.316H32.913V13.917h11.725v45.4zm-.5-.5V14.417H33.413v44.4h10.725z"/><path d="M44.638 104.215H32.913V58.816h11.725v45.399zm-.5-.5V59.316H33.413v44.399h10.725zm11.724-66.848H44.138v-45.4h11.724v45.4zm-.5-.5v-44.4H44.638v44.4h10.724z"/><path d="M55.862 81.766H44.138v-45.4h11.724v45.4zm-.5-.5v-44.4H44.638v44.4h10.724z"/><path d="M55.862 126.665H44.138v-45.4h11.724v45.4zm-.5-.5v-44.4H44.638v44.4h10.724zM67.087 14.417H55.362v-45.4h11.725v45.4zm-.5-.5v-44.4H55.862v44.4h10.725z"/><path d="M67.087 59.316H55.362V13.917h11.725v45.4zm-.5-.5V14.417H55.862v44.4h10.725z"/><path d="M67.087 104.215H55.362V58.816h11.725v45.399zm-.5-.5V59.316H55.862v44.399h10.725zm11.724-66.848H66.587v-45.4h11.724v45.4zm-.5-.5v-44.4H67.087v44.4h10.724z"/><path d="M78.311 81.766H66.587v-45.4h11.724v45.4zm-.5-.5v-44.4H67.087v44.4h10.724z"/><path d="M78.311 126.665H66.587v-45.4h11.724v45.4zm-.5-.5v-44.4H67.087v44.4h10.724zM89.535 14.417H77.811v-45.4h11.724v45.4zm-.5-.5v-44.4H78.311v44.4h10.724z"/><path d="M89.535 59.316H77.811V13.917h11.724v45.4zm-.5-.5V14.417H78.311v44.4h10.724z"/><path d="M89.535 104.215H77.811V58.816h11.724v45.399zm-.5-.5V59.316H78.311v44.399h10.724zm11.725-66.848H89.035v-45.4h11.725v45.4zm-.5-.5v-44.4H89.535v44.4h10.725z"/><path d="M100.76 81.766H89.035v-45.4h11.725v45.4zm-.5-.5v-44.4H89.535v44.4h10.725z"/><path d="M100.76 126.665H89.035v-45.4h11.725v45.4zm-.5-.5v-44.4H89.535v44.4h10.725z"/></g></g><path d="M1 1h98v98H1z"/><defs><clipPath id="cwa"><path d="M0 0h100v100H0z"/></clipPath><clipPath id="cwb"><path transform="translate(-57 -76)" d="M0 0h214v225.233H0z"/></clipPath></defs></svg><svg viewBox="0 0 39 40" id="visual-3d" xmlns="http://www.w3.org/2000/svg"><g clip-path="url(#cxa)"><path fill-rule="evenodd" clip-rule="evenodd" d="M27.017 1.176H11.16c-.973 0-1.762.79-1.762 1.765v12.421l-1.174.766V2.941A2.939 2.939 0 0111.159 0h15.858a2.939 2.939 0 012.937 2.941v12.805l1.213.79-.593.94-4.596-2.998.593-.939 2.208 1.44V2.942c0-.974-.789-1.765-1.762-1.765zM9.397 27.91l2.785 1.9.612-.925-4.596-3.137-.611.926.636.434v9.952A2.939 2.939 0 0011.159 40h15.858a2.939 2.939 0 002.937-2.941v-9.552l-1.175.802v8.75c0 .974-.789 1.765-1.762 1.765H11.16c-.973 0-1.762-.79-1.762-1.765v-9.15zm-6.396-8.374L0 21.493l2.991 2.042.612-.926L2 21.514l1.595-1.04L3 19.535zm9.19-5.995l-4.595 2.997.593.94 4.595-2.999-.592-.938zm7.19-4.69l-2.594 1.692.593.938 2.001-1.305 2.002 1.305.592-.939-2.594-1.692zM17.39 32.02l-.612.926 2.604 1.778 2.603-1.778-.611-.926-1.992 1.36-1.992-1.36zm9.191-2.211l4.596-3.138-.612-.926-4.596 3.138.612.926zm12.183-8.318l-3-1.957-.593.938 1.594 1.04-1.604 1.096.612.926 2.991-2.043zm-22.117 2.986c.467 0 .861-.043 1.189-.136.32-.085.582-.22.779-.39.197-.169.336-.38.426-.626.082-.246.131-.525.131-.838 0-.542-.155-.966-.45-1.254-.304-.288-.73-.44-1.271-.457l-.312-.009 1.599-1.473v-.788h-4.345v.991h2.926l-1.36 1.287v.72h.688c.303 0 .55.026.73.068.18.05.311.11.41.195a.573.573 0 01.188.296c.033.119.05.246.05.39 0 .16-.025.305-.066.423a.667.667 0 01-.221.322 1.066 1.066 0 01-.427.195c-.18.05-.401.067-.68.067a2.9 2.9 0 01-.574-.05 1.08 1.08 0 01-.435-.178.799.799 0 01-.278-.356 1.434 1.434 0 01-.107-.576h-1.14c-.008.415.05.762.164 1.033.115.28.287.5.509.67.221.169.492.296.811.363.312.077.673.11 1.066.11zm3.32-.127v-5.844h2.411c.46 0 .87.043 1.23.119s.656.22.902.432.426.508.557.89c.123.38.189.88.189 1.49 0 .575-.066 1.05-.18 1.422a1.979 1.979 0 01-.534.89 1.94 1.94 0 01-.893.465c-.36.093-.787.136-1.27.136h-2.411zm1.116-.991h1.197c.311 0 .582-.017.811-.06a1.18 1.18 0 00.574-.27c.148-.136.263-.33.345-.585.073-.254.114-.584.114-1.008 0-.448-.04-.804-.114-1.067-.082-.254-.197-.448-.353-.584a1.144 1.144 0 00-.574-.237 5.61 5.61 0 00-.803-.05h-1.197v3.86zm.15-21.096h-3.7a1.132 1.132 0 100 2.264h3.7a1.132 1.132 0 000-2.264zm-5.945 34.718h7.445a.377.377 0 110 .754h-7.445a.377.377 0 110-.754z"/></g><defs><clipPath id="cxa"><path d="M0 0h39v40H0z"/></clipPath></defs></svg><svg viewBox="0 0 32 32" id="wood" xmlns="http://www.w3.org/2000/svg"><g clip-path="url(#cya)"><path fill-rule="evenodd" clip-rule="evenodd" d="M9.693 3h12.55c.835 1.858 2.233 3.084 3.668 3.85A10.42 10.42 0 0029 7.904V29h-2.816c2.165-5.899 2.845-9.316 2.316-13.852a25.583 25.583 0 01-.054-.522c-.035-.346-.073-.74-.12-1.066-.26-1.847-1.47-6.392-6.872-7.742-4.119-1.03-8.234-.127-11.829 1.487C7.19 8.4 4.938 9.844 3 11.322V7.498a7.366 7.366 0 002.643-.547C7.199 6.313 8.67 5.073 9.693 3zm17.631 1.204A5.516 5.516 0 0125.773 3H29v1.84a7.285 7.285 0 01-1.676-.636zM6.13 3H3v1.497c.46-.016.981-.106 1.504-.32A4.357 4.357 0 006.13 3zm19.39 12.496c.477 4.09-.12 7.093-2.537 13.504h-2.99c1.405-2.931 2.034-5.686 1.867-8.103-.214-3.115-1.76-5.615-4.462-6.966-3.217-1.608-7.193-.53-10.267 1.054A21.891 21.891 0 003 17.75v-2.566c2.155-1.858 4.883-3.807 7.854-5.142 3.233-1.452 6.633-2.124 9.873-1.314 3.6.9 4.428 3.829 4.63 5.25.04.296.064.538.09.81.02.208.04.431.073.708zM3 28.197V29h8.142c1.432-1.227 2.232-2.084 2.699-2.863.472-.786.659-1.585.659-2.864 0-.84-.357-1.255-.915-1.497-.672-.29-1.743-.344-2.973.024-1.467.44-2.892 1.508-4.296 2.868-.69.67-1.346 1.378-1.98 2.075l-.258.283c-.364.401-.727.8-1.078 1.171zm0-4.43c.39-.416.801-.84 1.229-1.253 1.505-1.459 3.353-2.936 5.521-3.587 1.68-.504 3.518-.558 5.028.097 1.624.703 2.722 2.18 2.722 4.249 0 1.629-.25 3.013-1.087 4.408A9.653 9.653 0 0115.45 29h1.167c1.75-3.145 2.394-5.836 2.252-7.897-.15-2.158-1.149-3.657-2.811-4.489-1.874-.936-4.686-.439-7.551 1.038a18.826 18.826 0 00-3.679 2.484c-.853.745-1.467 1.443-1.827 2v1.63zM0 32V0h32v32H0z"/></g><defs><clipPath id="cya"><path d="M0 0h32v32H0z"/></clipPath></defs></svg><svg viewBox="0 0 32 32" id="zamkoviy" xmlns="http://www.w3.org/2000/svg"><path fill-rule="evenodd" clip-rule="evenodd" d="M1.334 1.333h13.772l4.922 2.461-3.894 2.921v4.757l-2.956 1.97H8.439l2.69 10.764h6.864l1.346-2.69h3.522v9.417H1.334v-29.6zm2.69 2.691v24.218H20.17V25.87l-.514 1.028H9.03L4.993 10.752h7.37l1.08-.72V5.37l1.488-1.116-.46-.23H4.025z"/><path fill-rule="evenodd" clip-rule="evenodd" d="M25.08 1.333h5.854v29.6h-6.728V20.17h-5.895l-1.346 2.69h-4.573l-2.018-8.072h4.007l3.098-2.066V7.414l7.6-6.08zm.944 2.691L20.17 8.707v5.455l-4.975 3.317H13.82l.673 2.69h.81l1.345-2.69h10.25v10.763h1.345V4.024h-2.22z"/></svg></svg>